  0
SECTION
  2
BLOCKS
  0
ENDSEC
  0
SECTION
  2
ENTITIES
  0
LINE
  8
0
 10
131.126
 20
0.00393677
 11
131.251
 21
0.0157623
  0
LINE
  8
0
 10
131.251
 20
0.0157623
 11
131.375
 21
0.0354156
  0
LINE
  8
0
 10
131.375
 20
0.0354156
 11
131.497
 21
0.0628204
  0
LINE
  8
0
 10
131.497
 20
0.0628204
 11
131.618
 21
0.0978851
  0
LINE
  8
0
 10
131.618
 20
0.0978851
 11
131.736
 21
0.140442
  0
LINE
  8
0
 10
131.736
 20
0.140442
 11
131.852
 21
0.190338
  0
LINE
  8
0
 10
131.852
 20
0.190338
 11
131.964
 21
0.247375
  0
LINE
  8
0
 10
131.964
 20
0.247375
 11
132.072
 21
0.31134
  0
LINE
  8
0
 10
132.072
 20
0.31134
 11
132.176
 21
0.381958
  0
LINE
  8
0
 10
132.176
 20
0.381958
 11
132.275
 21
0.458969
  0
LINE
  8
0
 10
132.275
 20
0.458969
 11
132.369
 21
0.542053
  0
LINE
  8
0
 10
132.369
 20
0.542053
 11
132.458
 21
0.630905
  0
LINE
  8
0
 10
132.458
 20
0.630905
 11
132.541
 21
0.725143
  0
LINE
  8
0
 10
132.541
 20
0.725143
 11
132.618
 21
0.824417
  0
LINE
  8
0
 10
132.618
 20
0.824417
 11
132.689
 21
0.928345
  0
LINE
  8
0
 10
132.689
 20
0.928345
 11
132.753
 21
1.03648
  0
LINE
  8
0
 10
132.753
 20
1.03648
 11
132.81
 21
1.14844
  0
LINE
  8
0
 10
132.81
 20
1.14844
 11
132.86
 21
1.26375
  0
LINE
  8
0
 10
132.86
 20
1.26375
 11
132.902
 21
1.38196
  0
LINE
  8
0
 10
132.902
 20
1.38196
 11
132.937
 21
1.50261
  0
LINE
  8
0
 10
132.937
 20
1.50261
 11
132.965
 21
1.62523
  0
LINE
  8
0
 10
132.965
 20
1.62523
 11
132.984
 21
1.74933
  0
LINE
  8
0
 10
132.984
 20
1.74933
 11
132.996
 21
1.8744
  0
LINE
  8
0
 10
132.996
 20
1.8744
 11
133
 21
2
  0
LINE
  8
0
 10
133
 20
2
 11
133
 21
120
  0
LINE
  8
0
 10
133
 20
120
 11
132.996
 21
120.126
  0
LINE
  8
0
 10
132.996
 20
120.126
 11
132.984
 21
120.251
  0
LINE
  8
0
 10
132.984
 20
120.251
 11
132.965
 21
120.375
  0
LINE
  8
0
 10
132.965
 20
120.375
 11
132.937
 21
120.497
  0
LINE
  8
0
 10
132.937
 20
120.497
 11
132.902
 21
120.618
  0
LINE
  8
0
 10
132.902
 20
120.618
 11
132.86
 21
120.736
  0
LINE
  8
0
 10
132.86
 20
120.736
 11
132.81
 21
120.852
  0
LINE
  8
0
 10
132.81
 20
120.852
 11
132.753
 21
120.964
  0
LINE
  8
0
 10
132.753
 20
120.964
 11
132.689
 21
121.072
  0
LINE
  8
0
 10
132.689
 20
121.072
 11
132.618
 21
121.176
  0
LINE
  8
0
 10
132.618
 20
121.176
 11
132.541
 21
121.275
  0
LINE
  8
0
 10
132.541
 20
121.275
 11
132.458
 21
121.369
  0
LINE
  8
0
 10
132.458
 20
121.369
 11
132.369
 21
121.458
  0
LINE
  8
0
 10
132.369
 20
121.458
 11
132.275
 21
121.541
  0
LINE
  8
0
 10
132.275
 20
121.541
 11
132.176
 21
121.618
  0
LINE
  8
0
 10
132.176
 20
121.618
 11
132.072
 21
121.689
  0
LINE
  8
0
 10
132.072
 20
121.689
 11
131.964
 21
121.753
  0
LINE
  8
0
 10
131.964
 20
121.753
 11
131.852
 21
121.81
  0
LINE
  8
0
 10
131.852
 20
121.81
 11
131.736
 21
121.86
  0
LINE
  8
0
 10
131.736
 20
121.86
 11
131.618
 21
121.902
  0
LINE
  8
0
 10
131.618
 20
121.902
 11
131.497
 21
121.937
  0
LINE
  8
0
 10
131.497
 20
121.937
 11
131.375
 21
121.965
  0
LINE
  8
0
 10
131.375
 20
121.965
 11
131.251
 21
121.984
  0
LINE
  8
0
 10
131.251
 20
121.984
 11
131.126
 21
121.996
  0
LINE
  8
0
 10
131.126
 20
121.996
 11
131
 21
122
  0
LINE
  8
0
 10
131
 20
122
 11
119
 21
122
  0
LINE
  8
0
 10
119
 20
122
 11
119
 21
108.5
  0
LINE
  8
0
 10
119
 20
108.5
 11
128.5
 21
108.5
  0
LINE
  8
0
 10
128.5
 20
108.5
 11
128.5
 21
100.5
  0
LINE
  8
0
 10
128.5
 20
100.5
 11
118.5
 21
100.5
  0
LINE
  8
0
 10
118.5
 20
100.5
 11
118.5
 21
102
  0
LINE
  8
0
 10
118.5
 20
102
 11
116.5
 21
102
  0
LINE
  8
0
 10
116.5
 20
102
 11
116.5
 21
97.5
  0
LINE
  8
0
 10
116.5
 20
97.5
 11
111.5
 21
97.5
  0
LINE
  8
0
 10
111.5
 20
97.5
 11
111.5
 21
102
  0
LINE
  8
0
 10
111.5
 20
102
 11
109
 21
102
  0
LINE
  8
0
 10
109
 20
102
 11
109
 21
104.5
  0
LINE
  8
0
 10
109
 20
104.5
 11
99.5
 21
104.5
  0
LINE
  8
0
 10
99.5
 20
104.5
 11
99.5
 21
112.5
  0
LINE
  8
0
 10
99.5
 20
112.5
 11
109
 21
112.5
  0
LINE
  8
0
 10
109
 20
112.5
 11
109
 21
122
  0
LINE
  8
0
 10
109
 20
122
 11
24
 21
122
  0
LINE
  8
0
 10
24
 20
122
 11
24
 21
112.5
  0
LINE
  8
0
 10
24
 20
112.5
 11
33.5
 21
112.5
  0
LINE
  8
0
 10
33.5
 20
112.5
 11
33.5
 21
104.5
  0
LINE
  8
0
 10
33.5
 20
104.5
 11
24
 21
104.5
  0
LINE
  8
0
 10
24
 20
104.5
 11
24
 21
102
  0
LINE
  8
0
 10
24
 20
102
 11
21.5
 21
102
  0
LINE
  8
0
 10
21.5
 20
102
 11
21.5
 21
97.5
  0
LINE
  8
0
 10
21.5
 20
97.5
 11
16.5
 21
97.5
  0
LINE
  8
0
 10
16.5
 20
97.5
 11
16.5
 21
102
  0
LINE
  8
0
 10
16.5
 20
102
 11
14.5
 21
102
  0
LINE
  8
0
 10
14.5
 20
102
 11
14.5
 21
100.5
  0
LINE
  8
0
 10
14.5
 20
100.5
 11
4.5
 21
100.5
  0
LINE
  8
0
 10
4.5
 20
100.5
 11
4.5
 21
108.5
  0
LINE
  8
0
 10
4.5
 20
108.5
 11
14
 21
108.5
  0
LINE
  8
0
 10
14
 20
108.5
 11
14
 21
122
  0
LINE
  8
0
 10
14
 20
122
 11
2
 21
122
  0
LINE
  8
0
 10
2
 20
122
 11
1.8744
 21
121.996
  0
LINE
  8
0
 10
1.8744
 20
121.996
 11
1.74933
 21
121.984
  0
LINE
  8
0
 10
1.74933
 20
121.984
 11
1.62523
 21
121.965
  0
LINE
  8
0
 10
1.62523
 20
121.965
 11
1.50261
 21
121.937
  0
LINE
  8
0
 10
1.50261
 20
121.937
 11
1.38196
 21
121.902
  0
LINE
  8
0
 10
1.38196
 20
121.902
 11
1.26375
 21
121.86
  0
LINE
  8
0
 10
1.26375
 20
121.86
 11
1.14844
 21
121.81
  0
LINE
  8
0
 10
1.14844
 20
121.81
 11
1.03648
 21
121.753
  0
LINE
  8
0
 10
1.03648
 20
121.753
 11
0.928345
 21
121.689
  0
LINE
  8
0
 10
0.928345
 20
121.689
 11
0.824417
 21
121.618
  0
LINE
  8
0
 10
0.824417
 20
121.618
 11
0.725143
 21
121.541
  0
LINE
  8
0
 10
0.725143
 20
121.541
 11
0.630905
 21
121.458
  0
LINE
  8
0
 10
0.630905
 20
121.458
 11
0.542053
 21
121.369
  0
LINE
  8
0
 10
0.542053
 20
121.369
 11
0.458969
 21
121.275
  0
LINE
  8
0
 10
0.458969
 20
121.275
 11
0.381958
 21
121.176
  0
LINE
  8
0
 10
0.381958
 20
121.176
 11
0.31134
 21
121.072
  0
LINE
  8
0
 10
0.31134
 20
121.072
 11
0.247375
 21
120.964
  0
LINE
  8
0
 10
0.247375
 20
120.964
 11
0.190338
 21
120.852
  0
LINE
  8
0
 10
0.190338
 20
120.852
 11
0.140442
 21
120.736
  0
LINE
  8
0
 10
0.140442
 20
120.736
 11
0.0978851
 21
120.618
  0
LINE
  8
0
 10
0.0978851
 20
120.618
 11
0.0628204
 21
120.497
  0
LINE
  8
0
 10
0.0628204
 20
120.497
 11
0.0354156
 21
120.375
  0
LINE
  8
0
 10
0.0354156
 20
120.375
 11
0.0157623
 21
120.251
  0
LINE
  8
0
 10
0.0157623
 20
120.251
 11
0.00393677
 21
120.126
  0
LINE
  8
0
 10
0.00393677
 20
120.126
 11
0
 21
120
  0
LINE
  8
0
 10
0
 20
120
 11
0
 21
2
  0
LINE
  8
0
 10
0
 20
2
 11
0.00393677
 21
1.8744
  0
LINE
  8
0
 10
0.00393677
 20
1.8744
 11
0.0157623
 21
1.74933
  0
LINE
  8
0
 10
0.0157623
 20
1.74933
 11
0.0354156
 21
1.62523
  0
LINE
  8
0
 10
0.0354156
 20
1.62523
 11
0.0628204
 21
1.50261
  0
LINE
  8
0
 10
0.0628204
 20
1.50261
 11
0.0978851
 21
1.38196
  0
LINE
  8
0
 10
0.0978851
 20
1.38196
 11
0.140442
 21
1.26375
  0
LINE
  8
0
 10
0.140442
 20
1.26375
 11
0.190338
 21
1.14844
  0
LINE
  8
0
 10
0.190338
 20
1.14844
 11
0.247375
 21
1.03648
  0
LINE
  8
0
 10
0.247375
 20
1.03648
 11
0.31134
 21
0.928345
  0
LINE
  8
0
 10
0.31134
 20
0.928345
 11
0.381958
 21
0.824417
  0
LINE
  8
0
 10
0.381958
 20
0.824417
 11
0.458969
 21
0.725143
  0
LINE
  8
0
 10
0.458969
 20
0.725143
 11
0.542053
 21
0.630905
  0
LINE
  8
0
 10
0.542053
 20
0.630905
 11
0.630905
 21
0.542053
  0
LINE
  8
0
 10
0.630905
 20
0.542053
 11
0.725143
 21
0.458969
  0
LINE
  8
0
 10
0.725143
 20
0.458969
 11
0.824417
 21
0.381958
  0
LINE
  8
0
 10
0.824417
 20
0.381958
 11
0.928345
 21
0.31134
  0
LINE
  8
0
 10
0.928345
 20
0.31134
 11
1.03648
 21
0.247375
  0
LINE
  8
0
 10
1.03648
 20
0.247375
 11
1.14844
 21
0.190338
  0
LINE
  8
0
 10
1.14844
 20
0.190338
 11
1.26375
 21
0.140442
  0
LINE
  8
0
 10
1.26375
 20
0.140442
 11
1.38196
 21
0.0978851
  0
LINE
  8
0
 10
1.38196
 20
0.0978851
 11
1.50261
 21
0.0628204
  0
LINE
  8
0
 10
1.50261
 20
0.0628204
 11
1.62523
 21
0.0354156
  0
LINE
  8
0
 10
1.62523
 20
0.0354156
 11
1.74933
 21
0.0157623
  0
LINE
  8
0
 10
1.74933
 20
0.0157623
 11
1.8744
 21
0.00393677
  0
LINE
  8
0
 10
1.8744
 20
0.00393677
 11
2
 21
0
  0
LINE
  8
0
 10
2
 20
0
 11
131
 21
0
  0
LINE
  8
0
 10
131
 20
0
 11
131.126
 21
0.00393677
  0
LINE
  8
0
 10
4.89011
 20
115.253
 11
4.78065
 21
115.264
  0
LINE
  8
0
 10
4.78065
 20
115.264
 11
4.67207
 21
115.281
  0
LINE
  8
0
 10
4.67207
 20
115.281
 11
4.56479
 21
115.305
  0
LINE
  8
0
 10
4.56479
 20
115.305
 11
4.45921
 21
115.336
  0
LINE
  8
0
 10
4.45921
 20
115.336
 11
4.35577
 21
115.373
  0
LINE
  8
0
 10
4.35577
 20
115.373
 11
4.25488
 21
115.417
  0
LINE
  8
0
 10
4.25488
 20
115.417
 11
4.15692
 21
115.466
  0
LINE
  8
0
 10
4.15692
 20
115.466
 11
4.0623
 21
115.522
  0
LINE
  8
0
 10
4.0623
 20
115.522
 11
3.97137
 21
115.584
  0
LINE
  8
0
 10
3.97137
 20
115.584
 11
3.88451
 21
115.652
  0
LINE
  8
0
 10
3.88451
 20
115.652
 11
3.80203
 21
115.724
  0
LINE
  8
0
 10
3.80203
 20
115.724
 11
3.7243
 21
115.802
  0
LINE
  8
0
 10
3.7243
 20
115.802
 11
3.6516
 21
115.885
  0
LINE
  8
0
 10
3.6516
 20
115.885
 11
3.58421
 21
115.971
  0
LINE
  8
0
 10
3.58421
 20
115.971
 11
3.52242
 21
116.062
  0
LINE
  8
0
 10
3.52242
 20
116.062
 11
3.46646
 21
116.157
  0
LINE
  8
0
 10
3.46646
 20
116.157
 11
3.41655
 21
116.255
  0
LINE
  8
0
 10
3.41655
 20
116.255
 11
3.37288
 21
116.356
  0
LINE
  8
0
 10
3.37288
 20
116.356
 11
3.33565
 21
116.459
  0
LINE
  8
0
 10
3.33565
 20
116.459
 11
3.30498
 21
116.565
  0
LINE
  8
0
 10
3.30498
 20
116.565
 11
3.28099
 21
116.672
  0
LINE
  8
0
 10
3.28099
 20
116.672
 11
3.26379
 21
116.781
  0
LINE
  8
0
 10
3.26379
 20
116.781
 11
3.25345
 21
116.89
  0
LINE
  8
0
 10
3.25345
 20
116.89
 11
3.25
 21
117
  0
LINE
  8
0
 10
3.25
 20
117
 11
3.25345
 21
117.11
  0
LINE
  8
0
 10
3.25345
 20
117.11
 11
3.26379
 21
117.219
  0
LINE
  8
0
 10
3.26379
 20
117.219
 11
3.28099
 21
117.328
  0
LINE
  8
0
 10
3.28099
 20
117.328
 11
3.30498
 21
117.435
  0
LINE
  8
0
 10
3.30498
 20
117.435
 11
3.33565
 21
117.541
  0
LINE
  8
0
 10
3.33565
 20
117.541
 11
3.37288
 21
117.644
  0
LINE
  8
0
 10
3.37288
 20
117.644
 11
3.41655
 21
117.745
  0
LINE
  8
0
 10
3.41655
 20
117.745
 11
3.46646
 21
117.843
  0
LINE
  8
0
 10
3.46646
 20
117.843
 11
3.52242
 21
117.938
  0
LINE
  8
0
 10
3.52242
 20
117.938
 11
3.58421
 21
118.029
  0
LINE
  8
0
 10
3.58421
 20
118.029
 11
3.6516
 21
118.115
  0
LINE
  8
0
 10
3.6516
 20
118.115
 11
3.7243
 21
118.198
  0
LINE
  8
0
 10
3.7243
 20
118.198
 11
3.80203
 21
118.276
  0
LINE
  8
0
 10
3.80203
 20
118.276
 11
3.88451
 21
118.348
  0
LINE
  8
0
 10
3.88451
 20
118.348
 11
3.97137
 21
118.416
  0
LINE
  8
0
 10
3.97137
 20
118.416
 11
4.0623
 21
118.478
  0
LINE
  8
0
 10
4.0623
 20
118.478
 11
4.15692
 21
118.534
  0
LINE
  8
0
 10
4.15692
 20
118.534
 11
4.25488
 21
118.583
  0
LINE
  8
0
 10
4.25488
 20
118.583
 11
4.35577
 21
118.627
  0
LINE
  8
0
 10
4.35577
 20
118.627
 11
4.45921
 21
118.664
  0
LINE
  8
0
 10
4.45921
 20
118.664
 11
4.56479
 21
118.695
  0
LINE
  8
0
 10
4.56479
 20
118.695
 11
4.67207
 21
118.719
  0
LINE
  8
0
 10
4.67207
 20
118.719
 11
4.78065
 21
118.736
  0
LINE
  8
0
 10
4.78065
 20
118.736
 11
4.89011
 21
118.747
  0
LINE
  8
0
 10
4.89011
 20
118.747
 11
5
 21
118.75
  0
LINE
  8
0
 10
5
 20
118.75
 11
5.10988
 21
118.747
  0
LINE
  8
0
 10
5.10988
 20
118.747
 11
5.21933
 21
118.736
  0
LINE
  8
0
 10
5.21933
 20
118.736
 11
5.32791
 21
118.719
  0
LINE
  8
0
 10
5.32791
 20
118.719
 11
5.4352
 21
118.695
  0
LINE
  8
0
 10
5.4352
 20
118.695
 11
5.54077
 21
118.664
  0
LINE
  8
0
 10
5.54077
 20
118.664
 11
5.64421
 21
118.627
  0
LINE
  8
0
 10
5.64421
 20
118.627
 11
5.7451
 21
118.583
  0
LINE
  8
0
 10
5.7451
 20
118.583
 11
5.84306
 21
118.534
  0
LINE
  8
0
 10
5.84306
 20
118.534
 11
5.93768
 21
118.478
  0
LINE
  8
0
 10
5.93768
 20
118.478
 11
6.02861
 21
118.416
  0
LINE
  8
0
 10
6.02861
 20
118.416
 11
6.11548
 21
118.348
  0
LINE
  8
0
 10
6.11548
 20
118.348
 11
6.19795
 21
118.276
  0
LINE
  8
0
 10
6.19795
 20
118.276
 11
6.27568
 21
118.198
  0
LINE
  8
0
 10
6.27568
 20
118.198
 11
6.34839
 21
118.115
  0
LINE
  8
0
 10
6.34839
 20
118.115
 11
6.41577
 21
118.029
  0
LINE
  8
0
 10
6.41577
 20
118.029
 11
6.47757
 21
117.938
  0
LINE
  8
0
 10
6.47757
 20
117.938
 11
6.53352
 21
117.843
  0
LINE
  8
0
 10
6.53352
 20
117.843
 11
6.58344
 21
117.745
  0
LINE
  8
0
 10
6.58344
 20
117.745
 11
6.62711
 21
117.644
  0
LINE
  8
0
 10
6.62711
 20
117.644
 11
6.66434
 21
117.541
  0
LINE
  8
0
 10
6.66434
 20
117.541
 11
6.69501
 21
117.435
  0
LINE
  8
0
 10
6.69501
 20
117.435
 11
6.71899
 21
117.328
  0
LINE
  8
0
 10
6.71899
 20
117.328
 11
6.73619
 21
117.219
  0
LINE
  8
0
 10
6.73619
 20
117.219
 11
6.74654
 21
117.11
  0
LINE
  8
0
 10
6.74654
 20
117.11
 11
6.75
 21
117
  0
LINE
  8
0
 10
6.75
 20
117
 11
6.74654
 21
116.89
  0
LINE
  8
0
 10
6.74654
 20
116.89
 11
6.73619
 21
116.781
  0
LINE
  8
0
 10
6.73619
 20
116.781
 11
6.71899
 21
116.672
  0
LINE
  8
0
 10
6.71899
 20
116.672
 11
6.69501
 21
116.565
  0
LINE
  8
0
 10
6.69501
 20
116.565
 11
6.66434
 21
116.459
  0
LINE
  8
0
 10
6.66434
 20
116.459
 11
6.62711
 21
116.356
  0
LINE
  8
0
 10
6.62711
 20
116.356
 11
6.58344
 21
116.255
  0
LINE
  8
0
 10
6.58344
 20
116.255
 11
6.53352
 21
116.157
  0
LINE
  8
0
 10
6.53352
 20
116.157
 11
6.47757
 21
116.062
  0
LINE
  8
0
 10
6.47757
 20
116.062
 11
6.41577
 21
115.971
  0
LINE
  8
0
 10
6.41577
 20
115.971
 11
6.34839
 21
115.885
  0
LINE
  8
0
 10
6.34839
 20
115.885
 11
6.27568
 21
115.802
  0
LINE
  8
0
 10
6.27568
 20
115.802
 11
6.19795
 21
115.724
  0
LINE
  8
0
 10
6.19795
 20
115.724
 11
6.11548
 21
115.652
  0
LINE
  8
0
 10
6.11548
 20
115.652
 11
6.02861
 21
115.584
  0
LINE
  8
0
 10
6.02861
 20
115.584
 11
5.93768
 21
115.522
  0
LINE
  8
0
 10
5.93768
 20
115.522
 11
5.84306
 21
115.466
  0
LINE
  8
0
 10
5.84306
 20
115.466
 11
5.7451
 21
115.417
  0
LINE
  8
0
 10
5.7451
 20
115.417
 11
5.64421
 21
115.373
  0
LINE
  8
0
 10
5.64421
 20
115.373
 11
5.54077
 21
115.336
  0
LINE
  8
0
 10
5.54077
 20
115.336
 11
5.4352
 21
115.305
  0
LINE
  8
0
 10
5.4352
 20
115.305
 11
5.32791
 21
115.281
  0
LINE
  8
0
 10
5.32791
 20
115.281
 11
5.21933
 21
115.264
  0
LINE
  8
0
 10
5.21933
 20
115.264
 11
5.10988
 21
115.253
  0
LINE
  8
0
 10
5.10988
 20
115.253
 11
5
 21
115.25
  0
LINE
  8
0
 10
5
 20
115.25
 11
4.89011
 21
115.253
  0
LINE
  8
0
 10
127.89
 20
115.253
 11
127.781
 21
115.264
  0
LINE
  8
0
 10
127.781
 20
115.264
 11
127.672
 21
115.281
  0
LINE
  8
0
 10
127.672
 20
115.281
 11
127.565
 21
115.305
  0
LINE
  8
0
 10
127.565
 20
115.305
 11
127.459
 21
115.336
  0
LINE
  8
0
 10
127.459
 20
115.336
 11
127.356
 21
115.373
  0
LINE
  8
0
 10
127.356
 20
115.373
 11
127.255
 21
115.417
  0
LINE
  8
0
 10
127.255
 20
115.417
 11
127.157
 21
115.466
  0
LINE
  8
0
 10
127.157
 20
115.466
 11
127.062
 21
115.522
  0
LINE
  8
0
 10
127.062
 20
115.522
 11
126.971
 21
115.584
  0
LINE
  8
0
 10
126.971
 20
115.584
 11
126.885
 21
115.652
  0
LINE
  8
0
 10
126.885
 20
115.652
 11
126.802
 21
115.724
  0
LINE
  8
0
 10
126.802
 20
115.724
 11
126.724
 21
115.802
  0
LINE
  8
0
 10
126.724
 20
115.802
 11
126.652
 21
115.885
  0
LINE
  8
0
 10
126.652
 20
115.885
 11
126.584
 21
115.971
  0
LINE
  8
0
 10
126.584
 20
115.971
 11
126.522
 21
116.062
  0
LINE
  8
0
 10
126.522
 20
116.062
 11
126.466
 21
116.157
  0
LINE
  8
0
 10
126.466
 20
116.157
 11
126.417
 21
116.255
  0
LINE
  8
0
 10
126.417
 20
116.255
 11
126.373
 21
116.356
  0
LINE
  8
0
 10
126.373
 20
116.356
 11
126.336
 21
116.459
  0
LINE
  8
0
 10
126.336
 20
116.459
 11
126.305
 21
116.565
  0
LINE
  8
0
 10
126.305
 20
116.565
 11
126.281
 21
116.672
  0
LINE
  8
0
 10
126.281
 20
116.672
 11
126.264
 21
116.781
  0
LINE
  8
0
 10
126.264
 20
116.781
 11
126.253
 21
116.89
  0
LINE
  8
0
 10
126.253
 20
116.89
 11
126.25
 21
117
  0
LINE
  8
0
 10
126.25
 20
117
 11
126.253
 21
117.11
  0
LINE
  8
0
 10
126.253
 20
117.11
 11
126.264
 21
117.219
  0
LINE
  8
0
 10
126.264
 20
117.219
 11
126.281
 21
117.328
  0
LINE
  8
0
 10
126.281
 20
117.328
 11
126.305
 21
117.435
  0
LINE
  8
0
 10
126.305
 20
117.435
 11
126.336
 21
117.541
  0
LINE
  8
0
 10
126.336
 20
117.541
 11
126.373
 21
117.644
  0
LINE
  8
0
 10
126.373
 20
117.644
 11
126.417
 21
117.745
  0
LINE
  8
0
 10
126.417
 20
117.745
 11
126.466
 21
117.843
  0
LINE
  8
0
 10
126.466
 20
117.843
 11
126.522
 21
117.938
  0
LINE
  8
0
 10
126.522
 20
117.938
 11
126.584
 21
118.029
  0
LINE
  8
0
 10
126.584
 20
118.029
 11
126.652
 21
118.115
  0
LINE
  8
0
 10
126.652
 20
118.115
 11
126.724
 21
118.198
  0
LINE
  8
0
 10
126.724
 20
118.198
 11
126.802
 21
118.276
  0
LINE
  8
0
 10
126.802
 20
118.276
 11
126.885
 21
118.348
  0
LINE
  8
0
 10
126.885
 20
118.348
 11
126.971
 21
118.416
  0
LINE
  8
0
 10
126.971
 20
118.416
 11
127.062
 21
118.478
  0
LINE
  8
0
 10
127.062
 20
118.478
 11
127.157
 21
118.534
  0
LINE
  8
0
 10
127.157
 20
118.534
 11
127.255
 21
118.583
  0
LINE
  8
0
 10
127.255
 20
118.583
 11
127.356
 21
118.627
  0
LINE
  8
0
 10
127.356
 20
118.627
 11
127.459
 21
118.664
  0
LINE
  8
0
 10
127.459
 20
118.664
 11
127.565
 21
118.695
  0
LINE
  8
0
 10
127.565
 20
118.695
 11
127.672
 21
118.719
  0
LINE
  8
0
 10
127.672
 20
118.719
 11
127.781
 21
118.736
  0
LINE
  8
0
 10
127.781
 20
118.736
 11
127.89
 21
118.747
  0
LINE
  8
0
 10
127.89
 20
118.747
 11
128
 21
118.75
  0
LINE
  8
0
 10
128
 20
118.75
 11
128.11
 21
118.747
  0
LINE
  8
0
 10
128.11
 20
118.747
 11
128.219
 21
118.736
  0
LINE
  8
0
 10
128.219
 20
118.736
 11
128.328
 21
118.719
  0
LINE
  8
0
 10
128.328
 20
118.719
 11
128.435
 21
118.695
  0
LINE
  8
0
 10
128.435
 20
118.695
 11
128.541
 21
118.664
  0
LINE
  8
0
 10
128.541
 20
118.664
 11
128.644
 21
118.627
  0
LINE
  8
0
 10
128.644
 20
118.627
 11
128.745
 21
118.583
  0
LINE
  8
0
 10
128.745
 20
118.583
 11
128.843
 21
118.534
  0
LINE
  8
0
 10
128.843
 20
118.534
 11
128.938
 21
118.478
  0
LINE
  8
0
 10
128.938
 20
118.478
 11
129.029
 21
118.416
  0
LINE
  8
0
 10
129.029
 20
118.416
 11
129.115
 21
118.348
  0
LINE
  8
0
 10
129.115
 20
118.348
 11
129.198
 21
118.276
  0
LINE
  8
0
 10
129.198
 20
118.276
 11
129.276
 21
118.198
  0
LINE
  8
0
 10
129.276
 20
118.198
 11
129.348
 21
118.115
  0
LINE
  8
0
 10
129.348
 20
118.115
 11
129.416
 21
118.029
  0
LINE
  8
0
 10
129.416
 20
118.029
 11
129.478
 21
117.938
  0
LINE
  8
0
 10
129.478
 20
117.938
 11
129.534
 21
117.843
  0
LINE
  8
0
 10
129.534
 20
117.843
 11
129.583
 21
117.745
  0
LINE
  8
0
 10
129.583
 20
117.745
 11
129.627
 21
117.644
  0
LINE
  8
0
 10
129.627
 20
117.644
 11
129.664
 21
117.541
  0
LINE
  8
0
 10
129.664
 20
117.541
 11
129.695
 21
117.435
  0
LINE
  8
0
 10
129.695
 20
117.435
 11
129.719
 21
117.328
  0
LINE
  8
0
 10
129.719
 20
117.328
 11
129.736
 21
117.219
  0
LINE
  8
0
 10
129.736
 20
117.219
 11
129.747
 21
117.11
  0
LINE
  8
0
 10
129.747
 20
117.11
 11
129.75
 21
117
  0
LINE
  8
0
 10
129.75
 20
117
 11
129.747
 21
116.89
  0
LINE
  8
0
 10
129.747
 20
116.89
 11
129.736
 21
116.781
  0
LINE
  8
0
 10
129.736
 20
116.781
 11
129.719
 21
116.672
  0
LINE
  8
0
 10
129.719
 20
116.672
 11
129.695
 21
116.565
  0
LINE
  8
0
 10
129.695
 20
116.565
 11
129.664
 21
116.459
  0
LINE
  8
0
 10
129.664
 20
116.459
 11
129.627
 21
116.356
  0
LINE
  8
0
 10
129.627
 20
116.356
 11
129.583
 21
116.255
  0
LINE
  8
0
 10
129.583
 20
116.255
 11
129.534
 21
116.157
  0
LINE
  8
0
 10
129.534
 20
116.157
 11
129.478
 21
116.062
  0
LINE
  8
0
 10
129.478
 20
116.062
 11
129.416
 21
115.971
  0
LINE
  8
0
 10
129.416
 20
115.971
 11
129.348
 21
115.885
  0
LINE
  8
0
 10
129.348
 20
115.885
 11
129.276
 21
115.802
  0
LINE
  8
0
 10
129.276
 20
115.802
 11
129.198
 21
115.724
  0
LINE
  8
0
 10
129.198
 20
115.724
 11
129.115
 21
115.652
  0
LINE
  8
0
 10
129.115
 20
115.652
 11
129.029
 21
115.584
  0
LINE
  8
0
 10
129.029
 20
115.584
 11
128.938
 21
115.522
  0
LINE
  8
0
 10
128.938
 20
115.522
 11
128.843
 21
115.466
  0
LINE
  8
0
 10
128.843
 20
115.466
 11
128.745
 21
115.417
  0
LINE
  8
0
 10
128.745
 20
115.417
 11
128.644
 21
115.373
  0
LINE
  8
0
 10
128.644
 20
115.373
 11
128.541
 21
115.336
  0
LINE
  8
0
 10
128.541
 20
115.336
 11
128.435
 21
115.305
  0
LINE
  8
0
 10
128.435
 20
115.305
 11
128.328
 21
115.281
  0
LINE
  8
0
 10
128.328
 20
115.281
 11
128.219
 21
115.264
  0
LINE
  8
0
 10
128.219
 20
115.264
 11
128.11
 21
115.253
  0
LINE
  8
0
 10
128.11
 20
115.253
 11
128
 21
115.25
  0
LINE
  8
0
 10
128
 20
115.25
 11
127.89
 21
115.253
  0
LINE
  8
0
 10
42.5
 20
108.5
 11
42.5
 21
116.5
  0
LINE
  8
0
 10
42.5
 20
116.5
 11
52.5
 21
116.5
  0
LINE
  8
0
 10
52.5
 20
116.5
 11
52.5
 21
108.5
  0
LINE
  8
0
 10
52.5
 20
108.5
 11
42.5
 21
108.5
  0
LINE
  8
0
 10
61.5
 20
108.5
 11
61.5
 21
116.5
  0
LINE
  8
0
 10
61.5
 20
116.5
 11
71.5
 21
116.5
  0
LINE
  8
0
 10
71.5
 20
116.5
 11
71.5
 21
108.5
  0
LINE
  8
0
 10
71.5
 20
108.5
 11
61.5
 21
108.5
  0
LINE
  8
0
 10
80.5
 20
108.5
 11
80.5
 21
116.5
  0
LINE
  8
0
 10
80.5
 20
116.5
 11
90.5
 21
116.5
  0
LINE
  8
0
 10
90.5
 20
116.5
 11
90.5
 21
108.5
  0
LINE
  8
0
 10
90.5
 20
108.5
 11
80.5
 21
108.5
  0
LINE
  8
0
 10
54.5
 20
97.5
 11
54.5
 21
102.5
  0
LINE
  8
0
 10
54.5
 20
102.5
 11
59.5
 21
102.5
  0
LINE
  8
0
 10
59.5
 20
102.5
 11
59.5
 21
97.5
  0
LINE
  8
0
 10
59.5
 20
97.5
 11
54.5
 21
97.5
  0
LINE
  8
0
 10
35.5
 20
97.5
 11
35.5
 21
102.5
  0
LINE
  8
0
 10
35.5
 20
102.5
 11
40.5
 21
102.5
  0
LINE
  8
0
 10
40.5
 20
102.5
 11
40.5
 21
97.5
  0
LINE
  8
0
 10
40.5
 20
97.5
 11
35.5
 21
97.5
  0
LINE
  8
0
 10
73.5
 20
97.5
 11
73.5
 21
102.5
  0
LINE
  8
0
 10
73.5
 20
102.5
 11
78.5
 21
102.5
  0
LINE
  8
0
 10
78.5
 20
102.5
 11
78.5
 21
97.5
  0
LINE
  8
0
 10
78.5
 20
97.5
 11
73.5
 21
97.5
  0
LINE
  8
0
 10
92.5
 20
97.5
 11
92.5
 21
102.5
  0
LINE
  8
0
 10
92.5
 20
102.5
 11
97.5
 21
102.5
  0
LINE
  8
0
 10
97.5
 20
102.5
 11
97.5
 21
97.5
  0
LINE
  8
0
 10
97.5
 20
97.5
 11
92.5
 21
97.5
  0
LINE
  8
0
 10
63.5
 20
86
 11
63.5
 21
89.5
  0
LINE
  8
0
 10
63.5
 20
89.5
 11
61.5
 21
89.5
  0
LINE
  8
0
 10
61.5
 20
89.5
 11
61.5
 21
97.5
  0
LINE
  8
0
 10
61.5
 20
97.5
 11
71.5
 21
97.5
  0
LINE
  8
0
 10
71.5
 20
97.5
 11
71.5
 21
89.5
  0
LINE
  8
0
 10
71.5
 20
89.5
 11
69.5
 21
89.5
  0
LINE
  8
0
 10
69.5
 20
89.5
 11
69.5
 21
86
  0
LINE
  8
0
 10
69.5
 20
86
 11
63.5
 21
86
  0
LINE
  8
0
 10
82.5
 20
86
 11
82.5
 21
89.5
  0
LINE
  8
0
 10
82.5
 20
89.5
 11
80.5
 21
89.5
  0
LINE
  8
0
 10
80.5
 20
89.5
 11
80.5
 21
97.5
  0
LINE
  8
0
 10
80.5
 20
97.5
 11
90.5
 21
97.5
  0
LINE
  8
0
 10
90.5
 20
97.5
 11
90.5
 21
89.5
  0
LINE
  8
0
 10
90.5
 20
89.5
 11
88.5
 21
89.5
  0
LINE
  8
0
 10
88.5
 20
89.5
 11
88.5
 21
86
  0
LINE
  8
0
 10
88.5
 20
86
 11
82.5
 21
86
  0
LINE
  8
0
 10
44.5
 20
86
 11
44.5
 21
89.5
  0
LINE
  8
0
 10
44.5
 20
89.5
 11
42.5
 21
89.5
  0
LINE
  8
0
 10
42.5
 20
89.5
 11
42.5
 21
97.5
  0
LINE
  8
0
 10
42.5
 20
97.5
 11
52.5
 21
97.5
  0
LINE
  8
0
 10
52.5
 20
97.5
 11
52.5
 21
89.5
  0
LINE
  8
0
 10
52.5
 20
89.5
 11
50.5
 21
89.5
  0
LINE
  8
0
 10
50.5
 20
89.5
 11
50.5
 21
86
  0
LINE
  8
0
 10
50.5
 20
86
 11
44.5
 21
86
  0
LINE
  8
0
 10
25.5
 20
82
 11
25.5
 21
85.5
  0
LINE
  8
0
 10
25.5
 20
85.5
 11
23.5
 21
85.5
  0
LINE
  8
0
 10
23.5
 20
85.5
 11
23.5
 21
93.5
  0
LINE
  8
0
 10
23.5
 20
93.5
 11
33.5
 21
93.5
  0
LINE
  8
0
 10
33.5
 20
93.5
 11
33.5
 21
85.5
  0
LINE
  8
0
 10
33.5
 20
85.5
 11
31.5
 21
85.5
  0
LINE
  8
0
 10
31.5
 20
85.5
 11
31.5
 21
82
  0
LINE
  8
0
 10
31.5
 20
82
 11
25.5
 21
82
  0
LINE
  8
0
 10
101.5
 20
82
 11
101.5
 21
85.5
  0
LINE
  8
0
 10
101.5
 20
85.5
 11
99.5
 21
85.5
  0
LINE
  8
0
 10
99.5
 20
85.5
 11
99.5
 21
93.5
  0
LINE
  8
0
 10
99.5
 20
93.5
 11
109.5
 21
93.5
  0
LINE
  8
0
 10
109.5
 20
93.5
 11
109.5
 21
85.5
  0
LINE
  8
0
 10
109.5
 20
85.5
 11
107.5
 21
85.5
  0
LINE
  8
0
 10
107.5
 20
85.5
 11
107.5
 21
82
  0
LINE
  8
0
 10
107.5
 20
82
 11
101.5
 21
82
  0
LINE
  8
0
 10
6.5
 20
78
 11
6.5
 21
81.5
  0
LINE
  8
0
 10
6.5
 20
81.5
 11
4.5
 21
81.5
  0
LINE
  8
0
 10
4.5
 20
81.5
 11
4.5
 21
89.5
  0
LINE
  8
0
 10
4.5
 20
89.5
 11
14.5
 21
89.5
  0
LINE
  8
0
 10
14.5
 20
89.5
 11
14.5
 21
81.5
  0
LINE
  8
0
 10
14.5
 20
81.5
 11
12.5
 21
81.5
  0
LINE
  8
0
 10
12.5
 20
81.5
 11
12.5
 21
78
  0
LINE
  8
0
 10
12.5
 20
78
 11
6.5
 21
78
  0
LINE
  8
0
 10
120.5
 20
78
 11
120.5
 21
81.5
  0
LINE
  8
0
 10
120.5
 20
81.5
 11
118.5
 21
81.5
  0
LINE
  8
0
 10
118.5
 20
81.5
 11
118.5
 21
89.5
  0
LINE
  8
0
 10
118.5
 20
89.5
 11
128.5
 21
89.5
  0
LINE
  8
0
 10
128.5
 20
89.5
 11
128.5
 21
81.5
  0
LINE
  8
0
 10
128.5
 20
81.5
 11
126.5
 21
81.5
  0
LINE
  8
0
 10
126.5
 20
81.5
 11
126.5
 21
78
  0
LINE
  8
0
 10
126.5
 20
78
 11
120.5
 21
78
  0
LINE
  8
0
 10
85.3901
 20
82.2534
 11
85.2807
 21
82.2638
  0
LINE
  8
0
 10
85.2807
 20
82.2638
 11
85.1721
 21
82.281
  0
LINE
  8
0
 10
85.1721
 20
82.281
 11
85.0648
 21
82.305
  0
LINE
  8
0
 10
85.0648
 20
82.305
 11
84.9592
 21
82.3356
  0
LINE
  8
0
 10
84.9592
 20
82.3356
 11
84.8558
 21
82.3729
  0
LINE
  8
0
 10
84.8558
 20
82.3729
 11
84.7549
 21
82.4165
  0
LINE
  8
0
 10
84.7549
 20
82.4165
 11
84.6569
 21
82.4665
  0
LINE
  8
0
 10
84.6569
 20
82.4665
 11
84.5623
 21
82.5224
  0
LINE
  8
0
 10
84.5623
 20
82.5224
 11
84.4714
 21
82.5842
  0
LINE
  8
0
 10
84.4714
 20
82.5842
 11
84.3845
 21
82.6516
  0
LINE
  8
0
 10
84.3845
 20
82.6516
 11
84.302
 21
82.7243
  0
LINE
  8
0
 10
84.302
 20
82.7243
 11
84.2243
 21
82.802
  0
LINE
  8
0
 10
84.2243
 20
82.802
 11
84.1516
 21
82.8845
  0
LINE
  8
0
 10
84.1516
 20
82.8845
 11
84.0842
 21
82.9714
  0
LINE
  8
0
 10
84.0842
 20
82.9714
 11
84.0224
 21
83.0623
  0
LINE
  8
0
 10
84.0224
 20
83.0623
 11
83.9665
 21
83.1569
  0
LINE
  8
0
 10
83.9665
 20
83.1569
 11
83.9165
 21
83.2549
  0
LINE
  8
0
 10
83.9165
 20
83.2549
 11
83.8729
 21
83.3558
  0
LINE
  8
0
 10
83.8729
 20
83.3558
 11
83.8356
 21
83.4592
  0
LINE
  8
0
 10
83.8356
 20
83.4592
 11
83.805
 21
83.5648
  0
LINE
  8
0
 10
83.805
 20
83.5648
 11
83.781
 21
83.6721
  0
LINE
  8
0
 10
83.781
 20
83.6721
 11
83.7638
 21
83.7807
  0
LINE
  8
0
 10
83.7638
 20
83.7807
 11
83.7534
 21
83.8901
  0
LINE
  8
0
 10
83.7534
 20
83.8901
 11
83.75
 21
84
  0
LINE
  8
0
 10
83.75
 20
84
 11
83.7534
 21
84.1099
  0
LINE
  8
0
 10
83.7534
 20
84.1099
 11
83.7638
 21
84.2193
  0
LINE
  8
0
 10
83.7638
 20
84.2193
 11
83.781
 21
84.3279
  0
LINE
  8
0
 10
83.781
 20
84.3279
 11
83.805
 21
84.4352
  0
LINE
  8
0
 10
83.805
 20
84.4352
 11
83.8356
 21
84.5408
  0
LINE
  8
0
 10
83.8356
 20
84.5408
 11
83.8729
 21
84.6442
  0
LINE
  8
0
 10
83.8729
 20
84.6442
 11
83.9165
 21
84.7451
  0
LINE
  8
0
 10
83.9165
 20
84.7451
 11
83.9665
 21
84.8431
  0
LINE
  8
0
 10
83.9665
 20
84.8431
 11
84.0224
 21
84.9377
  0
LINE
  8
0
 10
84.0224
 20
84.9377
 11
84.0842
 21
85.0286
  0
LINE
  8
0
 10
84.0842
 20
85.0286
 11
84.1516
 21
85.1155
  0
LINE
  8
0
 10
84.1516
 20
85.1155
 11
84.2243
 21
85.198
  0
LINE
  8
0
 10
84.2243
 20
85.198
 11
84.302
 21
85.2757
  0
LINE
  8
0
 10
84.302
 20
85.2757
 11
84.3845
 21
85.3484
  0
LINE
  8
0
 10
84.3845
 20
85.3484
 11
84.4714
 21
85.4158
  0
LINE
  8
0
 10
84.4714
 20
85.4158
 11
84.5623
 21
85.4776
  0
LINE
  8
0
 10
84.5623
 20
85.4776
 11
84.6569
 21
85.5335
  0
LINE
  8
0
 10
84.6569
 20
85.5335
 11
84.7549
 21
85.5835
  0
LINE
  8
0
 10
84.7549
 20
85.5835
 11
84.8558
 21
85.6271
  0
LINE
  8
0
 10
84.8558
 20
85.6271
 11
84.9592
 21
85.6644
  0
LINE
  8
0
 10
84.9592
 20
85.6644
 11
85.0648
 21
85.695
  0
LINE
  8
0
 10
85.0648
 20
85.695
 11
85.1721
 21
85.719
  0
LINE
  8
0
 10
85.1721
 20
85.719
 11
85.2807
 21
85.7362
  0
LINE
  8
0
 10
85.2807
 20
85.7362
 11
85.3901
 21
85.7465
  0
LINE
  8
0
 10
85.3901
 20
85.7465
 11
85.5
 21
85.75
  0
LINE
  8
0
 10
85.5
 20
85.75
 11
85.6099
 21
85.7465
  0
LINE
  8
0
 10
85.6099
 20
85.7465
 11
85.7193
 21
85.7362
  0
LINE
  8
0
 10
85.7193
 20
85.7362
 11
85.8279
 21
85.719
  0
LINE
  8
0
 10
85.8279
 20
85.719
 11
85.9352
 21
85.695
  0
LINE
  8
0
 10
85.9352
 20
85.695
 11
86.0408
 21
85.6644
  0
LINE
  8
0
 10
86.0408
 20
85.6644
 11
86.1442
 21
85.6271
  0
LINE
  8
0
 10
86.1442
 20
85.6271
 11
86.2451
 21
85.5835
  0
LINE
  8
0
 10
86.2451
 20
85.5835
 11
86.3431
 21
85.5335
  0
LINE
  8
0
 10
86.3431
 20
85.5335
 11
86.4377
 21
85.4776
  0
LINE
  8
0
 10
86.4377
 20
85.4776
 11
86.5286
 21
85.4158
  0
LINE
  8
0
 10
86.5286
 20
85.4158
 11
86.6155
 21
85.3484
  0
LINE
  8
0
 10
86.6155
 20
85.3484
 11
86.698
 21
85.2757
  0
LINE
  8
0
 10
86.698
 20
85.2757
 11
86.7757
 21
85.198
  0
LINE
  8
0
 10
86.7757
 20
85.198
 11
86.8484
 21
85.1155
  0
LINE
  8
0
 10
86.8484
 20
85.1155
 11
86.9158
 21
85.0286
  0
LINE
  8
0
 10
86.9158
 20
85.0286
 11
86.9776
 21
84.9377
  0
LINE
  8
0
 10
86.9776
 20
84.9377
 11
87.0335
 21
84.8431
  0
LINE
  8
0
 10
87.0335
 20
84.8431
 11
87.0835
 21
84.7451
  0
LINE
  8
0
 10
87.0835
 20
84.7451
 11
87.1271
 21
84.6442
  0
LINE
  8
0
 10
87.1271
 20
84.6442
 11
87.1644
 21
84.5408
  0
LINE
  8
0
 10
87.1644
 20
84.5408
 11
87.195
 21
84.4352
  0
LINE
  8
0
 10
87.195
 20
84.4352
 11
87.219
 21
84.3279
  0
LINE
  8
0
 10
87.219
 20
84.3279
 11
87.2362
 21
84.2193
  0
LINE
  8
0
 10
87.2362
 20
84.2193
 11
87.2465
 21
84.1099
  0
LINE
  8
0
 10
87.2465
 20
84.1099
 11
87.25
 21
84
  0
LINE
  8
0
 10
87.25
 20
84
 11
87.2465
 21
83.8901
  0
LINE
  8
0
 10
87.2465
 20
83.8901
 11
87.2362
 21
83.7807
  0
LINE
  8
0
 10
87.2362
 20
83.7807
 11
87.219
 21
83.6721
  0
LINE
  8
0
 10
87.219
 20
83.6721
 11
87.195
 21
83.5648
  0
LINE
  8
0
 10
87.195
 20
83.5648
 11
87.1644
 21
83.4592
  0
LINE
  8
0
 10
87.1644
 20
83.4592
 11
87.1271
 21
83.3558
  0
LINE
  8
0
 10
87.1271
 20
83.3558
 11
87.0835
 21
83.2549
  0
LINE
  8
0
 10
87.0835
 20
83.2549
 11
87.0335
 21
83.1569
  0
LINE
  8
0
 10
87.0335
 20
83.1569
 11
86.9776
 21
83.0623
  0
LINE
  8
0
 10
86.9776
 20
83.0623
 11
86.9158
 21
82.9714
  0
LINE
  8
0
 10
86.9158
 20
82.9714
 11
86.8484
 21
82.8845
  0
LINE
  8
0
 10
86.8484
 20
82.8845
 11
86.7757
 21
82.802
  0
LINE
  8
0
 10
86.7757
 20
82.802
 11
86.698
 21
82.7243
  0
LINE
  8
0
 10
86.698
 20
82.7243
 11
86.6155
 21
82.6516
  0
LINE
  8
0
 10
86.6155
 20
82.6516
 11
86.5286
 21
82.5842
  0
LINE
  8
0
 10
86.5286
 20
82.5842
 11
86.4377
 21
82.5224
  0
LINE
  8
0
 10
86.4377
 20
82.5224
 11
86.3431
 21
82.4665
  0
LINE
  8
0
 10
86.3431
 20
82.4665
 11
86.2451
 21
82.4165
  0
LINE
  8
0
 10
86.2451
 20
82.4165
 11
86.1442
 21
82.3729
  0
LINE
  8
0
 10
86.1442
 20
82.3729
 11
86.0408
 21
82.3356
  0
LINE
  8
0
 10
86.0408
 20
82.3356
 11
85.9352
 21
82.305
  0
LINE
  8
0
 10
85.9352
 20
82.305
 11
85.8279
 21
82.281
  0
LINE
  8
0
 10
85.8279
 20
82.281
 11
85.7193
 21
82.2638
  0
LINE
  8
0
 10
85.7193
 20
82.2638
 11
85.6099
 21
82.2534
  0
LINE
  8
0
 10
85.6099
 20
82.2534
 11
85.5
 21
82.25
  0
LINE
  8
0
 10
85.5
 20
82.25
 11
85.3901
 21
82.2534
  0
LINE
  8
0
 10
47.3901
 20
82.2534
 11
47.2807
 21
82.2638
  0
LINE
  8
0
 10
47.2807
 20
82.2638
 11
47.1721
 21
82.281
  0
LINE
  8
0
 10
47.1721
 20
82.281
 11
47.0648
 21
82.305
  0
LINE
  8
0
 10
47.0648
 20
82.305
 11
46.9592
 21
82.3356
  0
LINE
  8
0
 10
46.9592
 20
82.3356
 11
46.8558
 21
82.3729
  0
LINE
  8
0
 10
46.8558
 20
82.3729
 11
46.7549
 21
82.4165
  0
LINE
  8
0
 10
46.7549
 20
82.4165
 11
46.6569
 21
82.4665
  0
LINE
  8
0
 10
46.6569
 20
82.4665
 11
46.5623
 21
82.5224
  0
LINE
  8
0
 10
46.5623
 20
82.5224
 11
46.4714
 21
82.5842
  0
LINE
  8
0
 10
46.4714
 20
82.5842
 11
46.3845
 21
82.6516
  0
LINE
  8
0
 10
46.3845
 20
82.6516
 11
46.302
 21
82.7243
  0
LINE
  8
0
 10
46.302
 20
82.7243
 11
46.2243
 21
82.802
  0
LINE
  8
0
 10
46.2243
 20
82.802
 11
46.1516
 21
82.8845
  0
LINE
  8
0
 10
46.1516
 20
82.8845
 11
46.0842
 21
82.9714
  0
LINE
  8
0
 10
46.0842
 20
82.9714
 11
46.0224
 21
83.0623
  0
LINE
  8
0
 10
46.0224
 20
83.0623
 11
45.9665
 21
83.1569
  0
LINE
  8
0
 10
45.9665
 20
83.1569
 11
45.9165
 21
83.2549
  0
LINE
  8
0
 10
45.9165
 20
83.2549
 11
45.8729
 21
83.3558
  0
LINE
  8
0
 10
45.8729
 20
83.3558
 11
45.8356
 21
83.4592
  0
LINE
  8
0
 10
45.8356
 20
83.4592
 11
45.805
 21
83.5648
  0
LINE
  8
0
 10
45.805
 20
83.5648
 11
45.781
 21
83.6721
  0
LINE
  8
0
 10
45.781
 20
83.6721
 11
45.7638
 21
83.7807
  0
LINE
  8
0
 10
45.7638
 20
83.7807
 11
45.7534
 21
83.8901
  0
LINE
  8
0
 10
45.7534
 20
83.8901
 11
45.75
 21
84
  0
LINE
  8
0
 10
45.75
 20
84
 11
45.7534
 21
84.1099
  0
LINE
  8
0
 10
45.7534
 20
84.1099
 11
45.7638
 21
84.2193
  0
LINE
  8
0
 10
45.7638
 20
84.2193
 11
45.781
 21
84.3279
  0
LINE
  8
0
 10
45.781
 20
84.3279
 11
45.805
 21
84.4352
  0
LINE
  8
0
 10
45.805
 20
84.4352
 11
45.8356
 21
84.5408
  0
LINE
  8
0
 10
45.8356
 20
84.5408
 11
45.8729
 21
84.6442
  0
LINE
  8
0
 10
45.8729
 20
84.6442
 11
45.9165
 21
84.7451
  0
LINE
  8
0
 10
45.9165
 20
84.7451
 11
45.9665
 21
84.8431
  0
LINE
  8
0
 10
45.9665
 20
84.8431
 11
46.0224
 21
84.9377
  0
LINE
  8
0
 10
46.0224
 20
84.9377
 11
46.0842
 21
85.0286
  0
LINE
  8
0
 10
46.0842
 20
85.0286
 11
46.1516
 21
85.1155
  0
LINE
  8
0
 10
46.1516
 20
85.1155
 11
46.2243
 21
85.198
  0
LINE
  8
0
 10
46.2243
 20
85.198
 11
46.302
 21
85.2757
  0
LINE
  8
0
 10
46.302
 20
85.2757
 11
46.3845
 21
85.3484
  0
LINE
  8
0
 10
46.3845
 20
85.3484
 11
46.4714
 21
85.4158
  0
LINE
  8
0
 10
46.4714
 20
85.4158
 11
46.5623
 21
85.4776
  0
LINE
  8
0
 10
46.5623
 20
85.4776
 11
46.6569
 21
85.5335
  0
LINE
  8
0
 10
46.6569
 20
85.5335
 11
46.7549
 21
85.5835
  0
LINE
  8
0
 10
46.7549
 20
85.5835
 11
46.8558
 21
85.6271
  0
LINE
  8
0
 10
46.8558
 20
85.6271
 11
46.9592
 21
85.6644
  0
LINE
  8
0
 10
46.9592
 20
85.6644
 11
47.0648
 21
85.695
  0
LINE
  8
0
 10
47.0648
 20
85.695
 11
47.1721
 21
85.719
  0
LINE
  8
0
 10
47.1721
 20
85.719
 11
47.2807
 21
85.7362
  0
LINE
  8
0
 10
47.2807
 20
85.7362
 11
47.3901
 21
85.7465
  0
LINE
  8
0
 10
47.3901
 20
85.7465
 11
47.5
 21
85.75
  0
LINE
  8
0
 10
47.5
 20
85.75
 11
47.6099
 21
85.7465
  0
LINE
  8
0
 10
47.6099
 20
85.7465
 11
47.7193
 21
85.7362
  0
LINE
  8
0
 10
47.7193
 20
85.7362
 11
47.8279
 21
85.719
  0
LINE
  8
0
 10
47.8279
 20
85.719
 11
47.9352
 21
85.695
  0
LINE
  8
0
 10
47.9352
 20
85.695
 11
48.0408
 21
85.6644
  0
LINE
  8
0
 10
48.0408
 20
85.6644
 11
48.1442
 21
85.6271
  0
LINE
  8
0
 10
48.1442
 20
85.6271
 11
48.2451
 21
85.5835
  0
LINE
  8
0
 10
48.2451
 20
85.5835
 11
48.3431
 21
85.5335
  0
LINE
  8
0
 10
48.3431
 20
85.5335
 11
48.4377
 21
85.4776
  0
LINE
  8
0
 10
48.4377
 20
85.4776
 11
48.5286
 21
85.4158
  0
LINE
  8
0
 10
48.5286
 20
85.4158
 11
48.6155
 21
85.3484
  0
LINE
  8
0
 10
48.6155
 20
85.3484
 11
48.698
 21
85.2757
  0
LINE
  8
0
 10
48.698
 20
85.2757
 11
48.7757
 21
85.198
  0
LINE
  8
0
 10
48.7757
 20
85.198
 11
48.8484
 21
85.1155
  0
LINE
  8
0
 10
48.8484
 20
85.1155
 11
48.9158
 21
85.0286
  0
LINE
  8
0
 10
48.9158
 20
85.0286
 11
48.9776
 21
84.9377
  0
LINE
  8
0
 10
48.9776
 20
84.9377
 11
49.0335
 21
84.8431
  0
LINE
  8
0
 10
49.0335
 20
84.8431
 11
49.0834
 21
84.7451
  0
LINE
  8
0
 10
49.0834
 20
84.7451
 11
49.1271
 21
84.6442
  0
LINE
  8
0
 10
49.1271
 20
84.6442
 11
49.1643
 21
84.5408
  0
LINE
  8
0
 10
49.1643
 20
84.5408
 11
49.195
 21
84.4352
  0
LINE
  8
0
 10
49.195
 20
84.4352
 11
49.219
 21
84.3279
  0
LINE
  8
0
 10
49.219
 20
84.3279
 11
49.2362
 21
84.2193
  0
LINE
  8
0
 10
49.2362
 20
84.2193
 11
49.2465
 21
84.1099
  0
LINE
  8
0
 10
49.2465
 20
84.1099
 11
49.25
 21
84
  0
LINE
  8
0
 10
49.25
 20
84
 11
49.2465
 21
83.8901
  0
LINE
  8
0
 10
49.2465
 20
83.8901
 11
49.2362
 21
83.7807
  0
LINE
  8
0
 10
49.2362
 20
83.7807
 11
49.219
 21
83.6721
  0
LINE
  8
0
 10
49.219
 20
83.6721
 11
49.195
 21
83.5648
  0
LINE
  8
0
 10
49.195
 20
83.5648
 11
49.1643
 21
83.4592
  0
LINE
  8
0
 10
49.1643
 20
83.4592
 11
49.1271
 21
83.3558
  0
LINE
  8
0
 10
49.1271
 20
83.3558
 11
49.0834
 21
83.2549
  0
LINE
  8
0
 10
49.0834
 20
83.2549
 11
49.0335
 21
83.1569
  0
LINE
  8
0
 10
49.0335
 20
83.1569
 11
48.9776
 21
83.0623
  0
LINE
  8
0
 10
48.9776
 20
83.0623
 11
48.9158
 21
82.9714
  0
LINE
  8
0
 10
48.9158
 20
82.9714
 11
48.8484
 21
82.8845
  0
LINE
  8
0
 10
48.8484
 20
82.8845
 11
48.7757
 21
82.802
  0
LINE
  8
0
 10
48.7757
 20
82.802
 11
48.698
 21
82.7243
  0
LINE
  8
0
 10
48.698
 20
82.7243
 11
48.6155
 21
82.6516
  0
LINE
  8
0
 10
48.6155
 20
82.6516
 11
48.5286
 21
82.5842
  0
LINE
  8
0
 10
48.5286
 20
82.5842
 11
48.4377
 21
82.5224
  0
LINE
  8
0
 10
48.4377
 20
82.5224
 11
48.3431
 21
82.4665
  0
LINE
  8
0
 10
48.3431
 20
82.4665
 11
48.2451
 21
82.4165
  0
LINE
  8
0
 10
48.2451
 20
82.4165
 11
48.1442
 21
82.3729
  0
LINE
  8
0
 10
48.1442
 20
82.3729
 11
48.0408
 21
82.3356
  0
LINE
  8
0
 10
48.0408
 20
82.3356
 11
47.9352
 21
82.305
  0
LINE
  8
0
 10
47.9352
 20
82.305
 11
47.8279
 21
82.281
  0
LINE
  8
0
 10
47.8279
 20
82.281
 11
47.7193
 21
82.2638
  0
LINE
  8
0
 10
47.7193
 20
82.2638
 11
47.6099
 21
82.2534
  0
LINE
  8
0
 10
47.6099
 20
82.2534
 11
47.5
 21
82.25
  0
LINE
  8
0
 10
47.5
 20
82.25
 11
47.3901
 21
82.2534
  0
LINE
  8
0
 10
23.5
 20
28.5
 11
23.5
 21
50
  0
LINE
  8
0
 10
23.5
 20
50
 11
14.5
 21
50
  0
LINE
  8
0
 10
14.5
 20
50
 11
14.5
 21
43.5
  0
LINE
  8
0
 10
14.5
 20
43.5
 11
4.5
 21
43.5
  0
LINE
  8
0
 10
4.5
 20
43.5
 11
4.5
 21
51.5
  0
LINE
  8
0
 10
4.5
 20
51.5
 11
11.5
 21
51.5
  0
LINE
  8
0
 10
11.5
 20
51.5
 11
11.5
 21
62.5
  0
LINE
  8
0
 10
11.5
 20
62.5
 11
4.5
 21
62.5
  0
LINE
  8
0
 10
4.5
 20
62.5
 11
4.5
 21
70.5
  0
LINE
  8
0
 10
4.5
 20
70.5
 11
16.5
 21
70.5
  0
LINE
  8
0
 10
16.5
 20
70.5
 11
16.5
 21
83.5
  0
LINE
  8
0
 10
16.5
 20
83.5
 11
21.5
 21
83.5
  0
LINE
  8
0
 10
21.5
 20
83.5
 11
21.5
 21
80
  0
LINE
  8
0
 10
21.5
 20
80
 11
111.5
 21
80
  0
LINE
  8
0
 10
111.5
 20
80
 11
111.5
 21
83.5
  0
LINE
  8
0
 10
111.5
 20
83.5
 11
116.5
 21
83.5
  0
LINE
  8
0
 10
116.5
 20
83.5
 11
116.5
 21
70.5
  0
LINE
  8
0
 10
116.5
 20
70.5
 11
128.5
 21
70.5
  0
LINE
  8
0
 10
128.5
 20
70.5
 11
128.5
 21
62.5
  0
LINE
  8
0
 10
128.5
 20
62.5
 11
121.5
 21
62.5
  0
LINE
  8
0
 10
121.5
 20
62.5
 11
121.5
 21
51.5
  0
LINE
  8
0
 10
121.5
 20
51.5
 11
128.5
 21
51.5
  0
LINE
  8
0
 10
128.5
 20
51.5
 11
128.5
 21
43.5
  0
LINE
  8
0
 10
128.5
 20
43.5
 11
118.5
 21
43.5
  0
LINE
  8
0
 10
118.5
 20
43.5
 11
118.5
 21
50
  0
LINE
  8
0
 10
118.5
 20
50
 11
109.5
 21
50
  0
LINE
  8
0
 10
109.5
 20
50
 11
109.5
 21
28.5
  0
LINE
  8
0
 10
109.5
 20
28.5
 11
99.5
 21
28.5
  0
LINE
  8
0
 10
99.5
 20
28.5
 11
99.5
 21
50
  0
LINE
  8
0
 10
99.5
 20
50
 11
33.5
 21
50
  0
LINE
  8
0
 10
33.5
 20
50
 11
33.5
 21
28.5
  0
LINE
  8
0
 10
33.5
 20
28.5
 11
23.5
 21
28.5
  0
LINE
  8
0
 10
123.39
 20
74.2534
 11
123.281
 21
74.2638
  0
LINE
  8
0
 10
123.281
 20
74.2638
 11
123.172
 21
74.281
  0
LINE
  8
0
 10
123.172
 20
74.281
 11
123.065
 21
74.305
  0
LINE
  8
0
 10
123.065
 20
74.305
 11
122.959
 21
74.3356
  0
LINE
  8
0
 10
122.959
 20
74.3356
 11
122.856
 21
74.3729
  0
LINE
  8
0
 10
122.856
 20
74.3729
 11
122.755
 21
74.4165
  0
LINE
  8
0
 10
122.755
 20
74.4165
 11
122.657
 21
74.4665
  0
LINE
  8
0
 10
122.657
 20
74.4665
 11
122.562
 21
74.5224
  0
LINE
  8
0
 10
122.562
 20
74.5224
 11
122.471
 21
74.5842
  0
LINE
  8
0
 10
122.471
 20
74.5842
 11
122.385
 21
74.6516
  0
LINE
  8
0
 10
122.385
 20
74.6516
 11
122.302
 21
74.7243
  0
LINE
  8
0
 10
122.302
 20
74.7243
 11
122.224
 21
74.802
  0
LINE
  8
0
 10
122.224
 20
74.802
 11
122.152
 21
74.8845
  0
LINE
  8
0
 10
122.152
 20
74.8845
 11
122.084
 21
74.9714
  0
LINE
  8
0
 10
122.084
 20
74.9714
 11
122.022
 21
75.0623
  0
LINE
  8
0
 10
122.022
 20
75.0623
 11
121.966
 21
75.1569
  0
LINE
  8
0
 10
121.966
 20
75.1569
 11
121.917
 21
75.2549
  0
LINE
  8
0
 10
121.917
 20
75.2549
 11
121.873
 21
75.3558
  0
LINE
  8
0
 10
121.873
 20
75.3558
 11
121.836
 21
75.4592
  0
LINE
  8
0
 10
121.836
 20
75.4592
 11
121.805
 21
75.5648
  0
LINE
  8
0
 10
121.805
 20
75.5648
 11
121.781
 21
75.6721
  0
LINE
  8
0
 10
121.781
 20
75.6721
 11
121.764
 21
75.7807
  0
LINE
  8
0
 10
121.764
 20
75.7807
 11
121.753
 21
75.8901
  0
LINE
  8
0
 10
121.753
 20
75.8901
 11
121.75
 21
76
  0
LINE
  8
0
 10
121.75
 20
76
 11
121.753
 21
76.1099
  0
LINE
  8
0
 10
121.753
 20
76.1099
 11
121.764
 21
76.2193
  0
LINE
  8
0
 10
121.764
 20
76.2193
 11
121.781
 21
76.3279
  0
LINE
  8
0
 10
121.781
 20
76.3279
 11
121.805
 21
76.4352
  0
LINE
  8
0
 10
121.805
 20
76.4352
 11
121.836
 21
76.5408
  0
LINE
  8
0
 10
121.836
 20
76.5408
 11
121.873
 21
76.6442
  0
LINE
  8
0
 10
121.873
 20
76.6442
 11
121.917
 21
76.7451
  0
LINE
  8
0
 10
121.917
 20
76.7451
 11
121.966
 21
76.8431
  0
LINE
  8
0
 10
121.966
 20
76.8431
 11
122.022
 21
76.9377
  0
LINE
  8
0
 10
122.022
 20
76.9377
 11
122.084
 21
77.0286
  0
LINE
  8
0
 10
122.084
 20
77.0286
 11
122.152
 21
77.1155
  0
LINE
  8
0
 10
122.152
 20
77.1155
 11
122.224
 21
77.198
  0
LINE
  8
0
 10
122.224
 20
77.198
 11
122.302
 21
77.2757
  0
LINE
  8
0
 10
122.302
 20
77.2757
 11
122.385
 21
77.3484
  0
LINE
  8
0
 10
122.385
 20
77.3484
 11
122.471
 21
77.4158
  0
LINE
  8
0
 10
122.471
 20
77.4158
 11
122.562
 21
77.4776
  0
LINE
  8
0
 10
122.562
 20
77.4776
 11
122.657
 21
77.5335
  0
LINE
  8
0
 10
122.657
 20
77.5335
 11
122.755
 21
77.5835
  0
LINE
  8
0
 10
122.755
 20
77.5835
 11
122.856
 21
77.6271
  0
LINE
  8
0
 10
122.856
 20
77.6271
 11
122.959
 21
77.6644
  0
LINE
  8
0
 10
122.959
 20
77.6644
 11
123.065
 21
77.695
  0
LINE
  8
0
 10
123.065
 20
77.695
 11
123.172
 21
77.719
  0
LINE
  8
0
 10
123.172
 20
77.719
 11
123.281
 21
77.7362
  0
LINE
  8
0
 10
123.281
 20
77.7362
 11
123.39
 21
77.7465
  0
LINE
  8
0
 10
123.39
 20
77.7465
 11
123.5
 21
77.75
  0
LINE
  8
0
 10
123.5
 20
77.75
 11
123.61
 21
77.7465
  0
LINE
  8
0
 10
123.61
 20
77.7465
 11
123.719
 21
77.7362
  0
LINE
  8
0
 10
123.719
 20
77.7362
 11
123.828
 21
77.719
  0
LINE
  8
0
 10
123.828
 20
77.719
 11
123.935
 21
77.695
  0
LINE
  8
0
 10
123.935
 20
77.695
 11
124.041
 21
77.6644
  0
LINE
  8
0
 10
124.041
 20
77.6644
 11
124.144
 21
77.6271
  0
LINE
  8
0
 10
124.144
 20
77.6271
 11
124.245
 21
77.5835
  0
LINE
  8
0
 10
124.245
 20
77.5835
 11
124.343
 21
77.5335
  0
LINE
  8
0
 10
124.343
 20
77.5335
 11
124.438
 21
77.4776
  0
LINE
  8
0
 10
124.438
 20
77.4776
 11
124.529
 21
77.4158
  0
LINE
  8
0
 10
124.529
 20
77.4158
 11
124.615
 21
77.3484
  0
LINE
  8
0
 10
124.615
 20
77.3484
 11
124.698
 21
77.2757
  0
LINE
  8
0
 10
124.698
 20
77.2757
 11
124.776
 21
77.198
  0
LINE
  8
0
 10
124.776
 20
77.198
 11
124.848
 21
77.1155
  0
LINE
  8
0
 10
124.848
 20
77.1155
 11
124.916
 21
77.0286
  0
LINE
  8
0
 10
124.916
 20
77.0286
 11
124.978
 21
76.9377
  0
LINE
  8
0
 10
124.978
 20
76.9377
 11
125.034
 21
76.8431
  0
LINE
  8
0
 10
125.034
 20
76.8431
 11
125.083
 21
76.7451
  0
LINE
  8
0
 10
125.083
 20
76.7451
 11
125.127
 21
76.6442
  0
LINE
  8
0
 10
125.127
 20
76.6442
 11
125.164
 21
76.5408
  0
LINE
  8
0
 10
125.164
 20
76.5408
 11
125.195
 21
76.4352
  0
LINE
  8
0
 10
125.195
 20
76.4352
 11
125.219
 21
76.3279
  0
LINE
  8
0
 10
125.219
 20
76.3279
 11
125.236
 21
76.2193
  0
LINE
  8
0
 10
125.236
 20
76.2193
 11
125.247
 21
76.1099
  0
LINE
  8
0
 10
125.247
 20
76.1099
 11
125.25
 21
76
  0
LINE
  8
0
 10
125.25
 20
76
 11
125.247
 21
75.8901
  0
LINE
  8
0
 10
125.247
 20
75.8901
 11
125.236
 21
75.7807
  0
LINE
  8
0
 10
125.236
 20
75.7807
 11
125.219
 21
75.6721
  0
LINE
  8
0
 10
125.219
 20
75.6721
 11
125.195
 21
75.5648
  0
LINE
  8
0
 10
125.195
 20
75.5648
 11
125.164
 21
75.4592
  0
LINE
  8
0
 10
125.164
 20
75.4592
 11
125.127
 21
75.3558
  0
LINE
  8
0
 10
125.127
 20
75.3558
 11
125.083
 21
75.2549
  0
LINE
  8
0
 10
125.083
 20
75.2549
 11
125.034
 21
75.1569
  0
LINE
  8
0
 10
125.034
 20
75.1569
 11
124.978
 21
75.0623
  0
LINE
  8
0
 10
124.978
 20
75.0623
 11
124.916
 21
74.9714
  0
LINE
  8
0
 10
124.916
 20
74.9714
 11
124.848
 21
74.8845
  0
LINE
  8
0
 10
124.848
 20
74.8845
 11
124.776
 21
74.802
  0
LINE
  8
0
 10
124.776
 20
74.802
 11
124.698
 21
74.7243
  0
LINE
  8
0
 10
124.698
 20
74.7243
 11
124.615
 21
74.6516
  0
LINE
  8
0
 10
124.615
 20
74.6516
 11
124.529
 21
74.5842
  0
LINE
  8
0
 10
124.529
 20
74.5842
 11
124.438
 21
74.5224
  0
LINE
  8
0
 10
124.438
 20
74.5224
 11
124.343
 21
74.4665
  0
LINE
  8
0
 10
124.343
 20
74.4665
 11
124.245
 21
74.4165
  0
LINE
  8
0
 10
124.245
 20
74.4165
 11
124.144
 21
74.3729
  0
LINE
  8
0
 10
124.144
 20
74.3729
 11
124.041
 21
74.3356
  0
LINE
  8
0
 10
124.041
 20
74.3356
 11
123.935
 21
74.305
  0
LINE
  8
0
 10
123.935
 20
74.305
 11
123.828
 21
74.281
  0
LINE
  8
0
 10
123.828
 20
74.281
 11
123.719
 21
74.2638
  0
LINE
  8
0
 10
123.719
 20
74.2638
 11
123.61
 21
74.2534
  0
LINE
  8
0
 10
123.61
 20
74.2534
 11
123.5
 21
74.25
  0
LINE
  8
0
 10
123.5
 20
74.25
 11
123.39
 21
74.2534
  0
LINE
  8
0
 10
9.39011
 20
74.2534
 11
9.28065
 21
74.2638
  0
LINE
  8
0
 10
9.28065
 20
74.2638
 11
9.17207
 21
74.281
  0
LINE
  8
0
 10
9.17207
 20
74.281
 11
9.06479
 21
74.305
  0
LINE
  8
0
 10
9.06479
 20
74.305
 11
8.95921
 21
74.3356
  0
LINE
  8
0
 10
8.95921
 20
74.3356
 11
8.85577
 21
74.3729
  0
LINE
  8
0
 10
8.85577
 20
74.3729
 11
8.75488
 21
74.4165
  0
LINE
  8
0
 10
8.75488
 20
74.4165
 11
8.65692
 21
74.4665
  0
LINE
  8
0
 10
8.65692
 20
74.4665
 11
8.5623
 21
74.5224
  0
LINE
  8
0
 10
8.5623
 20
74.5224
 11
8.47137
 21
74.5842
  0
LINE
  8
0
 10
8.47137
 20
74.5842
 11
8.38451
 21
74.6516
  0
LINE
  8
0
 10
8.38451
 20
74.6516
 11
8.30203
 21
74.7243
  0
LINE
  8
0
 10
8.30203
 20
74.7243
 11
8.2243
 21
74.802
  0
LINE
  8
0
 10
8.2243
 20
74.802
 11
8.1516
 21
74.8845
  0
LINE
  8
0
 10
8.1516
 20
74.8845
 11
8.08421
 21
74.9714
  0
LINE
  8
0
 10
8.08421
 20
74.9714
 11
8.02242
 21
75.0623
  0
LINE
  8
0
 10
8.02242
 20
75.0623
 11
7.96646
 21
75.1569
  0
LINE
  8
0
 10
7.96646
 20
75.1569
 11
7.91655
 21
75.2549
  0
LINE
  8
0
 10
7.91655
 20
75.2549
 11
7.87288
 21
75.3558
  0
LINE
  8
0
 10
7.87288
 20
75.3558
 11
7.83565
 21
75.4592
  0
LINE
  8
0
 10
7.83565
 20
75.4592
 11
7.80498
 21
75.5648
  0
LINE
  8
0
 10
7.80498
 20
75.5648
 11
7.78099
 21
75.6721
  0
LINE
  8
0
 10
7.78099
 20
75.6721
 11
7.76379
 21
75.7807
  0
LINE
  8
0
 10
7.76379
 20
75.7807
 11
7.75345
 21
75.8901
  0
LINE
  8
0
 10
7.75345
 20
75.8901
 11
7.75
 21
76
  0
LINE
  8
0
 10
7.75
 20
76
 11
7.75345
 21
76.1099
  0
LINE
  8
0
 10
7.75345
 20
76.1099
 11
7.76379
 21
76.2193
  0
LINE
  8
0
 10
7.76379
 20
76.2193
 11
7.78099
 21
76.3279
  0
LINE
  8
0
 10
7.78099
 20
76.3279
 11
7.80498
 21
76.4352
  0
LINE
  8
0
 10
7.80498
 20
76.4352
 11
7.83565
 21
76.5408
  0
LINE
  8
0
 10
7.83565
 20
76.5408
 11
7.87288
 21
76.6442
  0
LINE
  8
0
 10
7.87288
 20
76.6442
 11
7.91655
 21
76.7451
  0
LINE
  8
0
 10
7.91655
 20
76.7451
 11
7.96646
 21
76.8431
  0
LINE
  8
0
 10
7.96646
 20
76.8431
 11
8.02242
 21
76.9377
  0
LINE
  8
0
 10
8.02242
 20
76.9377
 11
8.08421
 21
77.0286
  0
LINE
  8
0
 10
8.08421
 20
77.0286
 11
8.1516
 21
77.1155
  0
LINE
  8
0
 10
8.1516
 20
77.1155
 11
8.2243
 21
77.198
  0
LINE
  8
0
 10
8.2243
 20
77.198
 11
8.30203
 21
77.2757
  0
LINE
  8
0
 10
8.30203
 20
77.2757
 11
8.38451
 21
77.3484
  0
LINE
  8
0
 10
8.38451
 20
77.3484
 11
8.47137
 21
77.4158
  0
LINE
  8
0
 10
8.47137
 20
77.4158
 11
8.5623
 21
77.4776
  0
LINE
  8
0
 10
8.5623
 20
77.4776
 11
8.65692
 21
77.5335
  0
LINE
  8
0
 10
8.65692
 20
77.5335
 11
8.75488
 21
77.5835
  0
LINE
  8
0
 10
8.75488
 20
77.5835
 11
8.85577
 21
77.6271
  0
LINE
  8
0
 10
8.85577
 20
77.6271
 11
8.95921
 21
77.6644
  0
LINE
  8
0
 10
8.95921
 20
77.6644
 11
9.06479
 21
77.695
  0
LINE
  8
0
 10
9.06479
 20
77.695
 11
9.17207
 21
77.719
  0
LINE
  8
0
 10
9.17207
 20
77.719
 11
9.28065
 21
77.7362
  0
LINE
  8
0
 10
9.28065
 20
77.7362
 11
9.39011
 21
77.7465
  0
LINE
  8
0
 10
9.39011
 20
77.7465
 11
9.5
 21
77.75
  0
LINE
  8
0
 10
9.5
 20
77.75
 11
9.60988
 21
77.7465
  0
LINE
  8
0
 10
9.60988
 20
77.7465
 11
9.71933
 21
77.7362
  0
LINE
  8
0
 10
9.71933
 20
77.7362
 11
9.82791
 21
77.719
  0
LINE
  8
0
 10
9.82791
 20
77.719
 11
9.9352
 21
77.695
  0
LINE
  8
0
 10
9.9352
 20
77.695
 11
10.0408
 21
77.6644
  0
LINE
  8
0
 10
10.0408
 20
77.6644
 11
10.1442
 21
77.6271
  0
LINE
  8
0
 10
10.1442
 20
77.6271
 11
10.2451
 21
77.5835
  0
LINE
  8
0
 10
10.2451
 20
77.5835
 11
10.3431
 21
77.5335
  0
LINE
  8
0
 10
10.3431
 20
77.5335
 11
10.4377
 21
77.4776
  0
LINE
  8
0
 10
10.4377
 20
77.4776
 11
10.5286
 21
77.4158
  0
LINE
  8
0
 10
10.5286
 20
77.4158
 11
10.6155
 21
77.3484
  0
LINE
  8
0
 10
10.6155
 20
77.3484
 11
10.698
 21
77.2757
  0
LINE
  8
0
 10
10.698
 20
77.2757
 11
10.7757
 21
77.198
  0
LINE
  8
0
 10
10.7757
 20
77.198
 11
10.8484
 21
77.1155
  0
LINE
  8
0
 10
10.8484
 20
77.1155
 11
10.9158
 21
77.0286
  0
LINE
  8
0
 10
10.9158
 20
77.0286
 11
10.9776
 21
76.9377
  0
LINE
  8
0
 10
10.9776
 20
76.9377
 11
11.0335
 21
76.8431
  0
LINE
  8
0
 10
11.0335
 20
76.8431
 11
11.0834
 21
76.7451
  0
LINE
  8
0
 10
11.0834
 20
76.7451
 11
11.1271
 21
76.6442
  0
LINE
  8
0
 10
11.1271
 20
76.6442
 11
11.1643
 21
76.5408
  0
LINE
  8
0
 10
11.1643
 20
76.5408
 11
11.195
 21
76.4352
  0
LINE
  8
0
 10
11.195
 20
76.4352
 11
11.219
 21
76.3279
  0
LINE
  8
0
 10
11.219
 20
76.3279
 11
11.2362
 21
76.2193
  0
LINE
  8
0
 10
11.2362
 20
76.2193
 11
11.2465
 21
76.1099
  0
LINE
  8
0
 10
11.2465
 20
76.1099
 11
11.25
 21
76
  0
LINE
  8
0
 10
11.25
 20
76
 11
11.2465
 21
75.8901
  0
LINE
  8
0
 10
11.2465
 20
75.8901
 11
11.2362
 21
75.7807
  0
LINE
  8
0
 10
11.2362
 20
75.7807
 11
11.219
 21
75.6721
  0
LINE
  8
0
 10
11.219
 20
75.6721
 11
11.195
 21
75.5648
  0
LINE
  8
0
 10
11.195
 20
75.5648
 11
11.1643
 21
75.4592
  0
LINE
  8
0
 10
11.1643
 20
75.4592
 11
11.1271
 21
75.3558
  0
LINE
  8
0
 10
11.1271
 20
75.3558
 11
11.0834
 21
75.2549
  0
LINE
  8
0
 10
11.0834
 20
75.2549
 11
11.0335
 21
75.1569
  0
LINE
  8
0
 10
11.0335
 20
75.1569
 11
10.9776
 21
75.0623
  0
LINE
  8
0
 10
10.9776
 20
75.0623
 11
10.9158
 21
74.9714
  0
LINE
  8
0
 10
10.9158
 20
74.9714
 11
10.8484
 21
74.8845
  0
LINE
  8
0
 10
10.8484
 20
74.8845
 11
10.7757
 21
74.802
  0
LINE
  8
0
 10
10.7757
 20
74.802
 11
10.698
 21
74.7243
  0
LINE
  8
0
 10
10.698
 20
74.7243
 11
10.6155
 21
74.6516
  0
LINE
  8
0
 10
10.6155
 20
74.6516
 11
10.5286
 21
74.5842
  0
LINE
  8
0
 10
10.5286
 20
74.5842
 11
10.4377
 21
74.5224
  0
LINE
  8
0
 10
10.4377
 20
74.5224
 11
10.3431
 21
74.4665
  0
LINE
  8
0
 10
10.3431
 20
74.4665
 11
10.2451
 21
74.4165
  0
LINE
  8
0
 10
10.2451
 20
74.4165
 11
10.1442
 21
74.3729
  0
LINE
  8
0
 10
10.1442
 20
74.3729
 11
10.0408
 21
74.3356
  0
LINE
  8
0
 10
10.0408
 20
74.3356
 11
9.9352
 21
74.305
  0
LINE
  8
0
 10
9.9352
 20
74.305
 11
9.82791
 21
74.281
  0
LINE
  8
0
 10
9.82791
 20
74.281
 11
9.71933
 21
74.2638
  0
LINE
  8
0
 10
9.71933
 20
74.2638
 11
9.60988
 21
74.2534
  0
LINE
  8
0
 10
9.60988
 20
74.2534
 11
9.5
 21
74.25
  0
LINE
  8
0
 10
9.5
 20
74.25
 11
9.39011
 21
74.2534
  0
LINE
  8
0
 10
85.3901
 20
44.2534
 11
85.2807
 21
44.2638
  0
LINE
  8
0
 10
85.2807
 20
44.2638
 11
85.1721
 21
44.281
  0
LINE
  8
0
 10
85.1721
 20
44.281
 11
85.0648
 21
44.305
  0
LINE
  8
0
 10
85.0648
 20
44.305
 11
84.9592
 21
44.3356
  0
LINE
  8
0
 10
84.9592
 20
44.3356
 11
84.8558
 21
44.3729
  0
LINE
  8
0
 10
84.8558
 20
44.3729
 11
84.7549
 21
44.4165
  0
LINE
  8
0
 10
84.7549
 20
44.4165
 11
84.6569
 21
44.4665
  0
LINE
  8
0
 10
84.6569
 20
44.4665
 11
84.5623
 21
44.5224
  0
LINE
  8
0
 10
84.5623
 20
44.5224
 11
84.4714
 21
44.5842
  0
LINE
  8
0
 10
84.4714
 20
44.5842
 11
84.3845
 21
44.6516
  0
LINE
  8
0
 10
84.3845
 20
44.6516
 11
84.302
 21
44.7243
  0
LINE
  8
0
 10
84.302
 20
44.7243
 11
84.2243
 21
44.802
  0
LINE
  8
0
 10
84.2243
 20
44.802
 11
84.1516
 21
44.8845
  0
LINE
  8
0
 10
84.1516
 20
44.8845
 11
84.0842
 21
44.9714
  0
LINE
  8
0
 10
84.0842
 20
44.9714
 11
84.0224
 21
45.0623
  0
LINE
  8
0
 10
84.0224
 20
45.0623
 11
83.9665
 21
45.1569
  0
LINE
  8
0
 10
83.9665
 20
45.1569
 11
83.9165
 21
45.2549
  0
LINE
  8
0
 10
83.9165
 20
45.2549
 11
83.8729
 21
45.3558
  0
LINE
  8
0
 10
83.8729
 20
45.3558
 11
83.8356
 21
45.4592
  0
LINE
  8
0
 10
83.8356
 20
45.4592
 11
83.805
 21
45.5648
  0
LINE
  8
0
 10
83.805
 20
45.5648
 11
83.781
 21
45.6721
  0
LINE
  8
0
 10
83.781
 20
45.6721
 11
83.7638
 21
45.7807
  0
LINE
  8
0
 10
83.7638
 20
45.7807
 11
83.7534
 21
45.8901
  0
LINE
  8
0
 10
83.7534
 20
45.8901
 11
83.75
 21
46
  0
LINE
  8
0
 10
83.75
 20
46
 11
83.7534
 21
46.1099
  0
LINE
  8
0
 10
83.7534
 20
46.1099
 11
83.7638
 21
46.2193
  0
LINE
  8
0
 10
83.7638
 20
46.2193
 11
83.781
 21
46.3279
  0
LINE
  8
0
 10
83.781
 20
46.3279
 11
83.805
 21
46.4352
  0
LINE
  8
0
 10
83.805
 20
46.4352
 11
83.8356
 21
46.5408
  0
LINE
  8
0
 10
83.8356
 20
46.5408
 11
83.8729
 21
46.6442
  0
LINE
  8
0
 10
83.8729
 20
46.6442
 11
83.9165
 21
46.7451
  0
LINE
  8
0
 10
83.9165
 20
46.7451
 11
83.9665
 21
46.8431
  0
LINE
  8
0
 10
83.9665
 20
46.8431
 11
84.0224
 21
46.9377
  0
LINE
  8
0
 10
84.0224
 20
46.9377
 11
84.0842
 21
47.0286
  0
LINE
  8
0
 10
84.0842
 20
47.0286
 11
84.1516
 21
47.1155
  0
LINE
  8
0
 10
84.1516
 20
47.1155
 11
84.2243
 21
47.198
  0
LINE
  8
0
 10
84.2243
 20
47.198
 11
84.302
 21
47.2757
  0
LINE
  8
0
 10
84.302
 20
47.2757
 11
84.3845
 21
47.3484
  0
LINE
  8
0
 10
84.3845
 20
47.3484
 11
84.4714
 21
47.4158
  0
LINE
  8
0
 10
84.4714
 20
47.4158
 11
84.5623
 21
47.4776
  0
LINE
  8
0
 10
84.5623
 20
47.4776
 11
84.6569
 21
47.5335
  0
LINE
  8
0
 10
84.6569
 20
47.5335
 11
84.7549
 21
47.5834
  0
LINE
  8
0
 10
84.7549
 20
47.5834
 11
84.8558
 21
47.6271
  0
LINE
  8
0
 10
84.8558
 20
47.6271
 11
84.9592
 21
47.6643
  0
LINE
  8
0
 10
84.9592
 20
47.6643
 11
85.0648
 21
47.695
  0
LINE
  8
0
 10
85.0648
 20
47.695
 11
85.1721
 21
47.719
  0
LINE
  8
0
 10
85.1721
 20
47.719
 11
85.2807
 21
47.7362
  0
LINE
  8
0
 10
85.2807
 20
47.7362
 11
85.3901
 21
47.7465
  0
LINE
  8
0
 10
85.3901
 20
47.7465
 11
85.5
 21
47.75
  0
LINE
  8
0
 10
85.5
 20
47.75
 11
85.6099
 21
47.7465
  0
LINE
  8
0
 10
85.6099
 20
47.7465
 11
85.7193
 21
47.7362
  0
LINE
  8
0
 10
85.7193
 20
47.7362
 11
85.8279
 21
47.719
  0
LINE
  8
0
 10
85.8279
 20
47.719
 11
85.9352
 21
47.695
  0
LINE
  8
0
 10
85.9352
 20
47.695
 11
86.0408
 21
47.6643
  0
LINE
  8
0
 10
86.0408
 20
47.6643
 11
86.1442
 21
47.6271
  0
LINE
  8
0
 10
86.1442
 20
47.6271
 11
86.2451
 21
47.5834
  0
LINE
  8
0
 10
86.2451
 20
47.5834
 11
86.3431
 21
47.5335
  0
LINE
  8
0
 10
86.3431
 20
47.5335
 11
86.4377
 21
47.4776
  0
LINE
  8
0
 10
86.4377
 20
47.4776
 11
86.5286
 21
47.4158
  0
LINE
  8
0
 10
86.5286
 20
47.4158
 11
86.6155
 21
47.3484
  0
LINE
  8
0
 10
86.6155
 20
47.3484
 11
86.698
 21
47.2757
  0
LINE
  8
0
 10
86.698
 20
47.2757
 11
86.7757
 21
47.198
  0
LINE
  8
0
 10
86.7757
 20
47.198
 11
86.8484
 21
47.1155
  0
LINE
  8
0
 10
86.8484
 20
47.1155
 11
86.9158
 21
47.0286
  0
LINE
  8
0
 10
86.9158
 20
47.0286
 11
86.9776
 21
46.9377
  0
LINE
  8
0
 10
86.9776
 20
46.9377
 11
87.0335
 21
46.8431
  0
LINE
  8
0
 10
87.0335
 20
46.8431
 11
87.0835
 21
46.7451
  0
LINE
  8
0
 10
87.0835
 20
46.7451
 11
87.1271
 21
46.6442
  0
LINE
  8
0
 10
87.1271
 20
46.6442
 11
87.1644
 21
46.5408
  0
LINE
  8
0
 10
87.1644
 20
46.5408
 11
87.195
 21
46.4352
  0
LINE
  8
0
 10
87.195
 20
46.4352
 11
87.219
 21
46.3279
  0
LINE
  8
0
 10
87.219
 20
46.3279
 11
87.2362
 21
46.2193
  0
LINE
  8
0
 10
87.2362
 20
46.2193
 11
87.2465
 21
46.1099
  0
LINE
  8
0
 10
87.2465
 20
46.1099
 11
87.25
 21
46
  0
LINE
  8
0
 10
87.25
 20
46
 11
87.2465
 21
45.8901
  0
LINE
  8
0
 10
87.2465
 20
45.8901
 11
87.2362
 21
45.7807
  0
LINE
  8
0
 10
87.2362
 20
45.7807
 11
87.219
 21
45.6721
  0
LINE
  8
0
 10
87.219
 20
45.6721
 11
87.195
 21
45.5648
  0
LINE
  8
0
 10
87.195
 20
45.5648
 11
87.1644
 21
45.4592
  0
LINE
  8
0
 10
87.1644
 20
45.4592
 11
87.1271
 21
45.3558
  0
LINE
  8
0
 10
87.1271
 20
45.3558
 11
87.0835
 21
45.2549
  0
LINE
  8
0
 10
87.0835
 20
45.2549
 11
87.0335
 21
45.1569
  0
LINE
  8
0
 10
87.0335
 20
45.1569
 11
86.9776
 21
45.0623
  0
LINE
  8
0
 10
86.9776
 20
45.0623
 11
86.9158
 21
44.9714
  0
LINE
  8
0
 10
86.9158
 20
44.9714
 11
86.8484
 21
44.8845
  0
LINE
  8
0
 10
86.8484
 20
44.8845
 11
86.7757
 21
44.802
  0
LINE
  8
0
 10
86.7757
 20
44.802
 11
86.698
 21
44.7243
  0
LINE
  8
0
 10
86.698
 20
44.7243
 11
86.6155
 21
44.6516
  0
LINE
  8
0
 10
86.6155
 20
44.6516
 11
86.5286
 21
44.5842
  0
LINE
  8
0
 10
86.5286
 20
44.5842
 11
86.4377
 21
44.5224
  0
LINE
  8
0
 10
86.4377
 20
44.5224
 11
86.3431
 21
44.4665
  0
LINE
  8
0
 10
86.3431
 20
44.4665
 11
86.2451
 21
44.4165
  0
LINE
  8
0
 10
86.2451
 20
44.4165
 11
86.1442
 21
44.3729
  0
LINE
  8
0
 10
86.1442
 20
44.3729
 11
86.0408
 21
44.3356
  0
LINE
  8
0
 10
86.0408
 20
44.3356
 11
85.9352
 21
44.305
  0
LINE
  8
0
 10
85.9352
 20
44.305
 11
85.8279
 21
44.281
  0
LINE
  8
0
 10
85.8279
 20
44.281
 11
85.7193
 21
44.2638
  0
LINE
  8
0
 10
85.7193
 20
44.2638
 11
85.6099
 21
44.2534
  0
LINE
  8
0
 10
85.6099
 20
44.2534
 11
85.5
 21
44.25
  0
LINE
  8
0
 10
85.5
 20
44.25
 11
85.3901
 21
44.2534
  0
LINE
  8
0
 10
47.3901
 20
44.2534
 11
47.2807
 21
44.2638
  0
LINE
  8
0
 10
47.2807
 20
44.2638
 11
47.1721
 21
44.281
  0
LINE
  8
0
 10
47.1721
 20
44.281
 11
47.0648
 21
44.305
  0
LINE
  8
0
 10
47.0648
 20
44.305
 11
46.9592
 21
44.3356
  0
LINE
  8
0
 10
46.9592
 20
44.3356
 11
46.8558
 21
44.3729
  0
LINE
  8
0
 10
46.8558
 20
44.3729
 11
46.7549
 21
44.4165
  0
LINE
  8
0
 10
46.7549
 20
44.4165
 11
46.6569
 21
44.4665
  0
LINE
  8
0
 10
46.6569
 20
44.4665
 11
46.5623
 21
44.5224
  0
LINE
  8
0
 10
46.5623
 20
44.5224
 11
46.4714
 21
44.5842
  0
LINE
  8
0
 10
46.4714
 20
44.5842
 11
46.3845
 21
44.6516
  0
LINE
  8
0
 10
46.3845
 20
44.6516
 11
46.302
 21
44.7243
  0
LINE
  8
0
 10
46.302
 20
44.7243
 11
46.2243
 21
44.802
  0
LINE
  8
0
 10
46.2243
 20
44.802
 11
46.1516
 21
44.8845
  0
LINE
  8
0
 10
46.1516
 20
44.8845
 11
46.0842
 21
44.9714
  0
LINE
  8
0
 10
46.0842
 20
44.9714
 11
46.0224
 21
45.0623
  0
LINE
  8
0
 10
46.0224
 20
45.0623
 11
45.9665
 21
45.1569
  0
LINE
  8
0
 10
45.9665
 20
45.1569
 11
45.9165
 21
45.2549
  0
LINE
  8
0
 10
45.9165
 20
45.2549
 11
45.8729
 21
45.3558
  0
LINE
  8
0
 10
45.8729
 20
45.3558
 11
45.8356
 21
45.4592
  0
LINE
  8
0
 10
45.8356
 20
45.4592
 11
45.805
 21
45.5648
  0
LINE
  8
0
 10
45.805
 20
45.5648
 11
45.781
 21
45.6721
  0
LINE
  8
0
 10
45.781
 20
45.6721
 11
45.7638
 21
45.7807
  0
LINE
  8
0
 10
45.7638
 20
45.7807
 11
45.7534
 21
45.8901
  0
LINE
  8
0
 10
45.7534
 20
45.8901
 11
45.75
 21
46
  0
LINE
  8
0
 10
45.75
 20
46
 11
45.7534
 21
46.1099
  0
LINE
  8
0
 10
45.7534
 20
46.1099
 11
45.7638
 21
46.2193
  0
LINE
  8
0
 10
45.7638
 20
46.2193
 11
45.781
 21
46.3279
  0
LINE
  8
0
 10
45.781
 20
46.3279
 11
45.805
 21
46.4352
  0
LINE
  8
0
 10
45.805
 20
46.4352
 11
45.8356
 21
46.5408
  0
LINE
  8
0
 10
45.8356
 20
46.5408
 11
45.8729
 21
46.6442
  0
LINE
  8
0
 10
45.8729
 20
46.6442
 11
45.9165
 21
46.7451
  0
LINE
  8
0
 10
45.9165
 20
46.7451
 11
45.9665
 21
46.8431
  0
LINE
  8
0
 10
45.9665
 20
46.8431
 11
46.0224
 21
46.9377
  0
LINE
  8
0
 10
46.0224
 20
46.9377
 11
46.0842
 21
47.0286
  0
LINE
  8
0
 10
46.0842
 20
47.0286
 11
46.1516
 21
47.1155
  0
LINE
  8
0
 10
46.1516
 20
47.1155
 11
46.2243
 21
47.198
  0
LINE
  8
0
 10
46.2243
 20
47.198
 11
46.302
 21
47.2757
  0
LINE
  8
0
 10
46.302
 20
47.2757
 11
46.3845
 21
47.3484
  0
LINE
  8
0
 10
46.3845
 20
47.3484
 11
46.4714
 21
47.4158
  0
LINE
  8
0
 10
46.4714
 20
47.4158
 11
46.5623
 21
47.4776
  0
LINE
  8
0
 10
46.5623
 20
47.4776
 11
46.6569
 21
47.5335
  0
LINE
  8
0
 10
46.6569
 20
47.5335
 11
46.7549
 21
47.5834
  0
LINE
  8
0
 10
46.7549
 20
47.5834
 11
46.8558
 21
47.6271
  0
LINE
  8
0
 10
46.8558
 20
47.6271
 11
46.9592
 21
47.6643
  0
LINE
  8
0
 10
46.9592
 20
47.6643
 11
47.0648
 21
47.695
  0
LINE
  8
0
 10
47.0648
 20
47.695
 11
47.1721
 21
47.719
  0
LINE
  8
0
 10
47.1721
 20
47.719
 11
47.2807
 21
47.7362
  0
LINE
  8
0
 10
47.2807
 20
47.7362
 11
47.3901
 21
47.7465
  0
LINE
  8
0
 10
47.3901
 20
47.7465
 11
47.5
 21
47.75
  0
LINE
  8
0
 10
47.5
 20
47.75
 11
47.6099
 21
47.7465
  0
LINE
  8
0
 10
47.6099
 20
47.7465
 11
47.7193
 21
47.7362
  0
LINE
  8
0
 10
47.7193
 20
47.7362
 11
47.8279
 21
47.719
  0
LINE
  8
0
 10
47.8279
 20
47.719
 11
47.9352
 21
47.695
  0
LINE
  8
0
 10
47.9352
 20
47.695
 11
48.0408
 21
47.6643
  0
LINE
  8
0
 10
48.0408
 20
47.6643
 11
48.1442
 21
47.6271
  0
LINE
  8
0
 10
48.1442
 20
47.6271
 11
48.2451
 21
47.5834
  0
LINE
  8
0
 10
48.2451
 20
47.5834
 11
48.3431
 21
47.5335
  0
LINE
  8
0
 10
48.3431
 20
47.5335
 11
48.4377
 21
47.4776
  0
LINE
  8
0
 10
48.4377
 20
47.4776
 11
48.5286
 21
47.4158
  0
LINE
  8
0
 10
48.5286
 20
47.4158
 11
48.6155
 21
47.3484
  0
LINE
  8
0
 10
48.6155
 20
47.3484
 11
48.698
 21
47.2757
  0
LINE
  8
0
 10
48.698
 20
47.2757
 11
48.7757
 21
47.198
  0
LINE
  8
0
 10
48.7757
 20
47.198
 11
48.8484
 21
47.1155
  0
LINE
  8
0
 10
48.8484
 20
47.1155
 11
48.9158
 21
47.0286
  0
LINE
  8
0
 10
48.9158
 20
47.0286
 11
48.9776
 21
46.9377
  0
LINE
  8
0
 10
48.9776
 20
46.9377
 11
49.0335
 21
46.8431
  0
LINE
  8
0
 10
49.0335
 20
46.8431
 11
49.0834
 21
46.7451
  0
LINE
  8
0
 10
49.0834
 20
46.7451
 11
49.1271
 21
46.6442
  0
LINE
  8
0
 10
49.1271
 20
46.6442
 11
49.1643
 21
46.5408
  0
LINE
  8
0
 10
49.1643
 20
46.5408
 11
49.195
 21
46.4352
  0
LINE
  8
0
 10
49.195
 20
46.4352
 11
49.219
 21
46.3279
  0
LINE
  8
0
 10
49.219
 20
46.3279
 11
49.2362
 21
46.2193
  0
LINE
  8
0
 10
49.2362
 20
46.2193
 11
49.2465
 21
46.1099
  0
LINE
  8
0
 10
49.2465
 20
46.1099
 11
49.25
 21
46
  0
LINE
  8
0
 10
49.25
 20
46
 11
49.2465
 21
45.8901
  0
LINE
  8
0
 10
49.2465
 20
45.8901
 11
49.2362
 21
45.7807
  0
LINE
  8
0
 10
49.2362
 20
45.7807
 11
49.219
 21
45.6721
  0
LINE
  8
0
 10
49.219
 20
45.6721
 11
49.195
 21
45.5648
  0
LINE
  8
0
 10
49.195
 20
45.5648
 11
49.1643
 21
45.4592
  0
LINE
  8
0
 10
49.1643
 20
45.4592
 11
49.1271
 21
45.3558
  0
LINE
  8
0
 10
49.1271
 20
45.3558
 11
49.0834
 21
45.2549
  0
LINE
  8
0
 10
49.0834
 20
45.2549
 11
49.0335
 21
45.1569
  0
LINE
  8
0
 10
49.0335
 20
45.1569
 11
48.9776
 21
45.0623
  0
LINE
  8
0
 10
48.9776
 20
45.0623
 11
48.9158
 21
44.9714
  0
LINE
  8
0
 10
48.9158
 20
44.9714
 11
48.8484
 21
44.8845
  0
LINE
  8
0
 10
48.8484
 20
44.8845
 11
48.7757
 21
44.802
  0
LINE
  8
0
 10
48.7757
 20
44.802
 11
48.698
 21
44.7243
  0
LINE
  8
0
 10
48.698
 20
44.7243
 11
48.6155
 21
44.6516
  0
LINE
  8
0
 10
48.6155
 20
44.6516
 11
48.5286
 21
44.5842
  0
LINE
  8
0
 10
48.5286
 20
44.5842
 11
48.4377
 21
44.5224
  0
LINE
  8
0
 10
48.4377
 20
44.5224
 11
48.3431
 21
44.4665
  0
LINE
  8
0
 10
48.3431
 20
44.4665
 11
48.2451
 21
44.4165
  0
LINE
  8
0
 10
48.2451
 20
44.4165
 11
48.1442
 21
44.3729
  0
LINE
  8
0
 10
48.1442
 20
44.3729
 11
48.0408
 21
44.3356
  0
LINE
  8
0
 10
48.0408
 20
44.3356
 11
47.9352
 21
44.305
  0
LINE
  8
0
 10
47.9352
 20
44.305
 11
47.8279
 21
44.281
  0
LINE
  8
0
 10
47.8279
 20
44.281
 11
47.7193
 21
44.2638
  0
LINE
  8
0
 10
47.7193
 20
44.2638
 11
47.6099
 21
44.2534
  0
LINE
  8
0
 10
47.6099
 20
44.2534
 11
47.5
 21
44.25
  0
LINE
  8
0
 10
47.5
 20
44.25
 11
47.3901
 21
44.2534
  0
LINE
  8
0
 10
16.5
 20
40.5
 11
16.5
 21
45.5
  0
LINE
  8
0
 10
16.5
 20
45.5
 11
21.5
 21
45.5
  0
LINE
  8
0
 10
21.5
 20
45.5
 11
21.5
 21
40.5
  0
LINE
  8
0
 10
21.5
 20
40.5
 11
16.5
 21
40.5
  0
LINE
  8
0
 10
111.5
 20
40.5
 11
111.5
 21
45.5
  0
LINE
  8
0
 10
111.5
 20
45.5
 11
116.5
 21
45.5
  0
LINE
  8
0
 10
116.5
 20
45.5
 11
116.5
 21
40.5
  0
LINE
  8
0
 10
116.5
 20
40.5
 11
111.5
 21
40.5
  0
LINE
  8
0
 10
80.5
 20
32.5
 11
80.5
 21
40.5
  0
LINE
  8
0
 10
80.5
 20
40.5
 11
90.5
 21
40.5
  0
LINE
  8
0
 10
90.5
 20
40.5
 11
90.5
 21
32.5
  0
LINE
  8
0
 10
90.5
 20
32.5
 11
80.5
 21
32.5
  0
LINE
  8
0
 10
61.5
 20
32.5
 11
61.5
 21
40.5
  0
LINE
  8
0
 10
61.5
 20
40.5
 11
71.5
 21
40.5
  0
LINE
  8
0
 10
71.5
 20
40.5
 11
71.5
 21
32.5
  0
LINE
  8
0
 10
71.5
 20
32.5
 11
61.5
 21
32.5
  0
LINE
  8
0
 10
42.5
 20
32.5
 11
42.5
 21
40.5
  0
LINE
  8
0
 10
42.5
 20
40.5
 11
52.5
 21
40.5
  0
LINE
  8
0
 10
52.5
 20
40.5
 11
52.5
 21
32.5
  0
LINE
  8
0
 10
52.5
 20
32.5
 11
42.5
 21
32.5
  0
LINE
  8
0
 10
123.39
 20
36.2534
 11
123.281
 21
36.2638
  0
LINE
  8
0
 10
123.281
 20
36.2638
 11
123.172
 21
36.281
  0
LINE
  8
0
 10
123.172
 20
36.281
 11
123.065
 21
36.305
  0
LINE
  8
0
 10
123.065
 20
36.305
 11
122.959
 21
36.3356
  0
LINE
  8
0
 10
122.959
 20
36.3356
 11
122.856
 21
36.3729
  0
LINE
  8
0
 10
122.856
 20
36.3729
 11
122.755
 21
36.4165
  0
LINE
  8
0
 10
122.755
 20
36.4165
 11
122.657
 21
36.4665
  0
LINE
  8
0
 10
122.657
 20
36.4665
 11
122.562
 21
36.5224
  0
LINE
  8
0
 10
122.562
 20
36.5224
 11
122.471
 21
36.5842
  0
LINE
  8
0
 10
122.471
 20
36.5842
 11
122.385
 21
36.6516
  0
LINE
  8
0
 10
122.385
 20
36.6516
 11
122.302
 21
36.7243
  0
LINE
  8
0
 10
122.302
 20
36.7243
 11
122.224
 21
36.802
  0
LINE
  8
0
 10
122.224
 20
36.802
 11
122.152
 21
36.8845
  0
LINE
  8
0
 10
122.152
 20
36.8845
 11
122.084
 21
36.9714
  0
LINE
  8
0
 10
122.084
 20
36.9714
 11
122.022
 21
37.0623
  0
LINE
  8
0
 10
122.022
 20
37.0623
 11
121.966
 21
37.1569
  0
LINE
  8
0
 10
121.966
 20
37.1569
 11
121.917
 21
37.2549
  0
LINE
  8
0
 10
121.917
 20
37.2549
 11
121.873
 21
37.3558
  0
LINE
  8
0
 10
121.873
 20
37.3558
 11
121.836
 21
37.4592
  0
LINE
  8
0
 10
121.836
 20
37.4592
 11
121.805
 21
37.5648
  0
LINE
  8
0
 10
121.805
 20
37.5648
 11
121.781
 21
37.6721
  0
LINE
  8
0
 10
121.781
 20
37.6721
 11
121.764
 21
37.7807
  0
LINE
  8
0
 10
121.764
 20
37.7807
 11
121.753
 21
37.8901
  0
LINE
  8
0
 10
121.753
 20
37.8901
 11
121.75
 21
38
  0
LINE
  8
0
 10
121.75
 20
38
 11
121.753
 21
38.1099
  0
LINE
  8
0
 10
121.753
 20
38.1099
 11
121.764
 21
38.2193
  0
LINE
  8
0
 10
121.764
 20
38.2193
 11
121.781
 21
38.3279
  0
LINE
  8
0
 10
121.781
 20
38.3279
 11
121.805
 21
38.4352
  0
LINE
  8
0
 10
121.805
 20
38.4352
 11
121.836
 21
38.5408
  0
LINE
  8
0
 10
121.836
 20
38.5408
 11
121.873
 21
38.6442
  0
LINE
  8
0
 10
121.873
 20
38.6442
 11
121.917
 21
38.7451
  0
LINE
  8
0
 10
121.917
 20
38.7451
 11
121.966
 21
38.8431
  0
LINE
  8
0
 10
121.966
 20
38.8431
 11
122.022
 21
38.9377
  0
LINE
  8
0
 10
122.022
 20
38.9377
 11
122.084
 21
39.0286
  0
LINE
  8
0
 10
122.084
 20
39.0286
 11
122.152
 21
39.1155
  0
LINE
  8
0
 10
122.152
 20
39.1155
 11
122.224
 21
39.198
  0
LINE
  8
0
 10
122.224
 20
39.198
 11
122.302
 21
39.2757
  0
LINE
  8
0
 10
122.302
 20
39.2757
 11
122.385
 21
39.3484
  0
LINE
  8
0
 10
122.385
 20
39.3484
 11
122.471
 21
39.4158
  0
LINE
  8
0
 10
122.471
 20
39.4158
 11
122.562
 21
39.4776
  0
LINE
  8
0
 10
122.562
 20
39.4776
 11
122.657
 21
39.5335
  0
LINE
  8
0
 10
122.657
 20
39.5335
 11
122.755
 21
39.5834
  0
LINE
  8
0
 10
122.755
 20
39.5834
 11
122.856
 21
39.6271
  0
LINE
  8
0
 10
122.856
 20
39.6271
 11
122.959
 21
39.6643
  0
LINE
  8
0
 10
122.959
 20
39.6643
 11
123.065
 21
39.695
  0
LINE
  8
0
 10
123.065
 20
39.695
 11
123.172
 21
39.719
  0
LINE
  8
0
 10
123.172
 20
39.719
 11
123.281
 21
39.7362
  0
LINE
  8
0
 10
123.281
 20
39.7362
 11
123.39
 21
39.7465
  0
LINE
  8
0
 10
123.39
 20
39.7465
 11
123.5
 21
39.75
  0
LINE
  8
0
 10
123.5
 20
39.75
 11
123.61
 21
39.7465
  0
LINE
  8
0
 10
123.61
 20
39.7465
 11
123.719
 21
39.7362
  0
LINE
  8
0
 10
123.719
 20
39.7362
 11
123.828
 21
39.719
  0
LINE
  8
0
 10
123.828
 20
39.719
 11
123.935
 21
39.695
  0
LINE
  8
0
 10
123.935
 20
39.695
 11
124.041
 21
39.6643
  0
LINE
  8
0
 10
124.041
 20
39.6643
 11
124.144
 21
39.6271
  0
LINE
  8
0
 10
124.144
 20
39.6271
 11
124.245
 21
39.5834
  0
LINE
  8
0
 10
124.245
 20
39.5834
 11
124.343
 21
39.5335
  0
LINE
  8
0
 10
124.343
 20
39.5335
 11
124.438
 21
39.4776
  0
LINE
  8
0
 10
124.438
 20
39.4776
 11
124.529
 21
39.4158
  0
LINE
  8
0
 10
124.529
 20
39.4158
 11
124.615
 21
39.3484
  0
LINE
  8
0
 10
124.615
 20
39.3484
 11
124.698
 21
39.2757
  0
LINE
  8
0
 10
124.698
 20
39.2757
 11
124.776
 21
39.198
  0
LINE
  8
0
 10
124.776
 20
39.198
 11
124.848
 21
39.1155
  0
LINE
  8
0
 10
124.848
 20
39.1155
 11
124.916
 21
39.0286
  0
LINE
  8
0
 10
124.916
 20
39.0286
 11
124.978
 21
38.9377
  0
LINE
  8
0
 10
124.978
 20
38.9377
 11
125.034
 21
38.8431
  0
LINE
  8
0
 10
125.034
 20
38.8431
 11
125.083
 21
38.7451
  0
LINE
  8
0
 10
125.083
 20
38.7451
 11
125.127
 21
38.6442
  0
LINE
  8
0
 10
125.127
 20
38.6442
 11
125.164
 21
38.5408
  0
LINE
  8
0
 10
125.164
 20
38.5408
 11
125.195
 21
38.4352
  0
LINE
  8
0
 10
125.195
 20
38.4352
 11
125.219
 21
38.3279
  0
LINE
  8
0
 10
125.219
 20
38.3279
 11
125.236
 21
38.2193
  0
LINE
  8
0
 10
125.236
 20
38.2193
 11
125.247
 21
38.1099
  0
LINE
  8
0
 10
125.247
 20
38.1099
 11
125.25
 21
38
  0
LINE
  8
0
 10
125.25
 20
38
 11
125.247
 21
37.8901
  0
LINE
  8
0
 10
125.247
 20
37.8901
 11
125.236
 21
37.7807
  0
LINE
  8
0
 10
125.236
 20
37.7807
 11
125.219
 21
37.6721
  0
LINE
  8
0
 10
125.219
 20
37.6721
 11
125.195
 21
37.5648
  0
LINE
  8
0
 10
125.195
 20
37.5648
 11
125.164
 21
37.4592
  0
LINE
  8
0
 10
125.164
 20
37.4592
 11
125.127
 21
37.3558
  0
LINE
  8
0
 10
125.127
 20
37.3558
 11
125.083
 21
37.2549
  0
LINE
  8
0
 10
125.083
 20
37.2549
 11
125.034
 21
37.1569
  0
LINE
  8
0
 10
125.034
 20
37.1569
 11
124.978
 21
37.0623
  0
LINE
  8
0
 10
124.978
 20
37.0623
 11
124.916
 21
36.9714
  0
LINE
  8
0
 10
124.916
 20
36.9714
 11
124.848
 21
36.8845
  0
LINE
  8
0
 10
124.848
 20
36.8845
 11
124.776
 21
36.802
  0
LINE
  8
0
 10
124.776
 20
36.802
 11
124.698
 21
36.7243
  0
LINE
  8
0
 10
124.698
 20
36.7243
 11
124.615
 21
36.6516
  0
LINE
  8
0
 10
124.615
 20
36.6516
 11
124.529
 21
36.5842
  0
LINE
  8
0
 10
124.529
 20
36.5842
 11
124.438
 21
36.5224
  0
LINE
  8
0
 10
124.438
 20
36.5224
 11
124.343
 21
36.4665
  0
LINE
  8
0
 10
124.343
 20
36.4665
 11
124.245
 21
36.4165
  0
LINE
  8
0
 10
124.245
 20
36.4165
 11
124.144
 21
36.3729
  0
LINE
  8
0
 10
124.144
 20
36.3729
 11
124.041
 21
36.3356
  0
LINE
  8
0
 10
124.041
 20
36.3356
 11
123.935
 21
36.305
  0
LINE
  8
0
 10
123.935
 20
36.305
 11
123.828
 21
36.281
  0
LINE
  8
0
 10
123.828
 20
36.281
 11
123.719
 21
36.2638
  0
LINE
  8
0
 10
123.719
 20
36.2638
 11
123.61
 21
36.2534
  0
LINE
  8
0
 10
123.61
 20
36.2534
 11
123.5
 21
36.25
  0
LINE
  8
0
 10
123.5
 20
36.25
 11
123.39
 21
36.2534
  0
LINE
  8
0
 10
9.39011
 20
36.2534
 11
9.28065
 21
36.2638
  0
LINE
  8
0
 10
9.28065
 20
36.2638
 11
9.17207
 21
36.281
  0
LINE
  8
0
 10
9.17207
 20
36.281
 11
9.06479
 21
36.305
  0
LINE
  8
0
 10
9.06479
 20
36.305
 11
8.95921
 21
36.3356
  0
LINE
  8
0
 10
8.95921
 20
36.3356
 11
8.85577
 21
36.3729
  0
LINE
  8
0
 10
8.85577
 20
36.3729
 11
8.75488
 21
36.4165
  0
LINE
  8
0
 10
8.75488
 20
36.4165
 11
8.65692
 21
36.4665
  0
LINE
  8
0
 10
8.65692
 20
36.4665
 11
8.5623
 21
36.5224
  0
LINE
  8
0
 10
8.5623
 20
36.5224
 11
8.47137
 21
36.5842
  0
LINE
  8
0
 10
8.47137
 20
36.5842
 11
8.38451
 21
36.6516
  0
LINE
  8
0
 10
8.38451
 20
36.6516
 11
8.30203
 21
36.7243
  0
LINE
  8
0
 10
8.30203
 20
36.7243
 11
8.2243
 21
36.802
  0
LINE
  8
0
 10
8.2243
 20
36.802
 11
8.1516
 21
36.8845
  0
LINE
  8
0
 10
8.1516
 20
36.8845
 11
8.08421
 21
36.9714
  0
LINE
  8
0
 10
8.08421
 20
36.9714
 11
8.02242
 21
37.0623
  0
LINE
  8
0
 10
8.02242
 20
37.0623
 11
7.96646
 21
37.1569
  0
LINE
  8
0
 10
7.96646
 20
37.1569
 11
7.91655
 21
37.2549
  0
LINE
  8
0
 10
7.91655
 20
37.2549
 11
7.87288
 21
37.3558
  0
LINE
  8
0
 10
7.87288
 20
37.3558
 11
7.83565
 21
37.4592
  0
LINE
  8
0
 10
7.83565
 20
37.4592
 11
7.80498
 21
37.5648
  0
LINE
  8
0
 10
7.80498
 20
37.5648
 11
7.78099
 21
37.6721
  0
LINE
  8
0
 10
7.78099
 20
37.6721
 11
7.76379
 21
37.7807
  0
LINE
  8
0
 10
7.76379
 20
37.7807
 11
7.75345
 21
37.8901
  0
LINE
  8
0
 10
7.75345
 20
37.8901
 11
7.75
 21
38
  0
LINE
  8
0
 10
7.75
 20
38
 11
7.75345
 21
38.1099
  0
LINE
  8
0
 10
7.75345
 20
38.1099
 11
7.76379
 21
38.2193
  0
LINE
  8
0
 10
7.76379
 20
38.2193
 11
7.78099
 21
38.3279
  0
LINE
  8
0
 10
7.78099
 20
38.3279
 11
7.80498
 21
38.4352
  0
LINE
  8
0
 10
7.80498
 20
38.4352
 11
7.83565
 21
38.5408
  0
LINE
  8
0
 10
7.83565
 20
38.5408
 11
7.87288
 21
38.6442
  0
LINE
  8
0
 10
7.87288
 20
38.6442
 11
7.91655
 21
38.7451
  0
LINE
  8
0
 10
7.91655
 20
38.7451
 11
7.96646
 21
38.8431
  0
LINE
  8
0
 10
7.96646
 20
38.8431
 11
8.02242
 21
38.9377
  0
LINE
  8
0
 10
8.02242
 20
38.9377
 11
8.08421
 21
39.0286
  0
LINE
  8
0
 10
8.08421
 20
39.0286
 11
8.1516
 21
39.1155
  0
LINE
  8
0
 10
8.1516
 20
39.1155
 11
8.2243
 21
39.198
  0
LINE
  8
0
 10
8.2243
 20
39.198
 11
8.30203
 21
39.2757
  0
LINE
  8
0
 10
8.30203
 20
39.2757
 11
8.38451
 21
39.3484
  0
LINE
  8
0
 10
8.38451
 20
39.3484
 11
8.47137
 21
39.4158
  0
LINE
  8
0
 10
8.47137
 20
39.4158
 11
8.5623
 21
39.4776
  0
LINE
  8
0
 10
8.5623
 20
39.4776
 11
8.65692
 21
39.5335
  0
LINE
  8
0
 10
8.65692
 20
39.5335
 11
8.75488
 21
39.5834
  0
LINE
  8
0
 10
8.75488
 20
39.5834
 11
8.85577
 21
39.6271
  0
LINE
  8
0
 10
8.85577
 20
39.6271
 11
8.95921
 21
39.6643
  0
LINE
  8
0
 10
8.95921
 20
39.6643
 11
9.06479
 21
39.695
  0
LINE
  8
0
 10
9.06479
 20
39.695
 11
9.17207
 21
39.719
  0
LINE
  8
0
 10
9.17207
 20
39.719
 11
9.28065
 21
39.7362
  0
LINE
  8
0
 10
9.28065
 20
39.7362
 11
9.39011
 21
39.7465
  0
LINE
  8
0
 10
9.39011
 20
39.7465
 11
9.5
 21
39.75
  0
LINE
  8
0
 10
9.5
 20
39.75
 11
9.60988
 21
39.7465
  0
LINE
  8
0
 10
9.60988
 20
39.7465
 11
9.71933
 21
39.7362
  0
LINE
  8
0
 10
9.71933
 20
39.7362
 11
9.82791
 21
39.719
  0
LINE
  8
0
 10
9.82791
 20
39.719
 11
9.9352
 21
39.695
  0
LINE
  8
0
 10
9.9352
 20
39.695
 11
10.0408
 21
39.6643
  0
LINE
  8
0
 10
10.0408
 20
39.6643
 11
10.1442
 21
39.6271
  0
LINE
  8
0
 10
10.1442
 20
39.6271
 11
10.2451
 21
39.5834
  0
LINE
  8
0
 10
10.2451
 20
39.5834
 11
10.3431
 21
39.5335
  0
LINE
  8
0
 10
10.3431
 20
39.5335
 11
10.4377
 21
39.4776
  0
LINE
  8
0
 10
10.4377
 20
39.4776
 11
10.5286
 21
39.4158
  0
LINE
  8
0
 10
10.5286
 20
39.4158
 11
10.6155
 21
39.3484
  0
LINE
  8
0
 10
10.6155
 20
39.3484
 11
10.698
 21
39.2757
  0
LINE
  8
0
 10
10.698
 20
39.2757
 11
10.7757
 21
39.198
  0
LINE
  8
0
 10
10.7757
 20
39.198
 11
10.8484
 21
39.1155
  0
LINE
  8
0
 10
10.8484
 20
39.1155
 11
10.9158
 21
39.0286
  0
LINE
  8
0
 10
10.9158
 20
39.0286
 11
10.9776
 21
38.9377
  0
LINE
  8
0
 10
10.9776
 20
38.9377
 11
11.0335
 21
38.8431
  0
LINE
  8
0
 10
11.0335
 20
38.8431
 11
11.0834
 21
38.7451
  0
LINE
  8
0
 10
11.0834
 20
38.7451
 11
11.1271
 21
38.6442
  0
LINE
  8
0
 10
11.1271
 20
38.6442
 11
11.1643
 21
38.5408
  0
LINE
  8
0
 10
11.1643
 20
38.5408
 11
11.195
 21
38.4352
  0
LINE
  8
0
 10
11.195
 20
38.4352
 11
11.219
 21
38.3279
  0
LINE
  8
0
 10
11.219
 20
38.3279
 11
11.2362
 21
38.2193
  0
LINE
  8
0
 10
11.2362
 20
38.2193
 11
11.2465
 21
38.1099
  0
LINE
  8
0
 10
11.2465
 20
38.1099
 11
11.25
 21
38
  0
LINE
  8
0
 10
11.25
 20
38
 11
11.2465
 21
37.8901
  0
LINE
  8
0
 10
11.2465
 20
37.8901
 11
11.2362
 21
37.7807
  0
LINE
  8
0
 10
11.2362
 20
37.7807
 11
11.219
 21
37.6721
  0
LINE
  8
0
 10
11.219
 20
37.6721
 11
11.195
 21
37.5648
  0
LINE
  8
0
 10
11.195
 20
37.5648
 11
11.1643
 21
37.4592
  0
LINE
  8
0
 10
11.1643
 20
37.4592
 11
11.1271
 21
37.3558
  0
LINE
  8
0
 10
11.1271
 20
37.3558
 11
11.0834
 21
37.2549
  0
LINE
  8
0
 10
11.0834
 20
37.2549
 11
11.0335
 21
37.1569
  0
LINE
  8
0
 10
11.0335
 20
37.1569
 11
10.9776
 21
37.0623
  0
LINE
  8
0
 10
10.9776
 20
37.0623
 11
10.9158
 21
36.9714
  0
LINE
  8
0
 10
10.9158
 20
36.9714
 11
10.8484
 21
36.8845
  0
LINE
  8
0
 10
10.8484
 20
36.8845
 11
10.7757
 21
36.802
  0
LINE
  8
0
 10
10.7757
 20
36.802
 11
10.698
 21
36.7243
  0
LINE
  8
0
 10
10.698
 20
36.7243
 11
10.6155
 21
36.6516
  0
LINE
  8
0
 10
10.6155
 20
36.6516
 11
10.5286
 21
36.5842
  0
LINE
  8
0
 10
10.5286
 20
36.5842
 11
10.4377
 21
36.5224
  0
LINE
  8
0
 10
10.4377
 20
36.5224
 11
10.3431
 21
36.4665
  0
LINE
  8
0
 10
10.3431
 20
36.4665
 11
10.2451
 21
36.4165
  0
LINE
  8
0
 10
10.2451
 20
36.4165
 11
10.1442
 21
36.3729
  0
LINE
  8
0
 10
10.1442
 20
36.3729
 11
10.0408
 21
36.3356
  0
LINE
  8
0
 10
10.0408
 20
36.3356
 11
9.9352
 21
36.305
  0
LINE
  8
0
 10
9.9352
 20
36.305
 11
9.82791
 21
36.281
  0
LINE
  8
0
 10
9.82791
 20
36.281
 11
9.71933
 21
36.2638
  0
LINE
  8
0
 10
9.71933
 20
36.2638
 11
9.60988
 21
36.2534
  0
LINE
  8
0
 10
9.60988
 20
36.2534
 11
9.5
 21
36.25
  0
LINE
  8
0
 10
9.5
 20
36.25
 11
9.39011
 21
36.2534
  0
LINE
  8
0
 10
4.5
 20
24.5
 11
4.5
 21
32.5
  0
LINE
  8
0
 10
4.5
 20
32.5
 11
14.5
 21
32.5
  0
LINE
  8
0
 10
14.5
 20
32.5
 11
14.5
 21
24.5
  0
LINE
  8
0
 10
14.5
 20
24.5
 11
4.5
 21
24.5
  0
LINE
  8
0
 10
118.5
 20
24.5
 11
118.5
 21
32.5
  0
LINE
  8
0
 10
118.5
 20
32.5
 11
128.5
 21
32.5
  0
LINE
  8
0
 10
128.5
 20
32.5
 11
128.5
 21
24.5
  0
LINE
  8
0
 10
128.5
 20
24.5
 11
118.5
 21
24.5
  0
LINE
  8
0
 10
35.5
 20
21.5
 11
35.5
 21
26.5
  0
LINE
  8
0
 10
35.5
 20
26.5
 11
40.5
 21
26.5
  0
LINE
  8
0
 10
40.5
 20
26.5
 11
40.5
 21
21.5
  0
LINE
  8
0
 10
40.5
 20
21.5
 11
35.5
 21
21.5
  0
LINE
  8
0
 10
16.5
 20
21.5
 11
16.5
 21
26.5
  0
LINE
  8
0
 10
16.5
 20
26.5
 11
21.5
 21
26.5
  0
LINE
  8
0
 10
21.5
 20
26.5
 11
21.5
 21
21.5
  0
LINE
  8
0
 10
21.5
 20
21.5
 11
16.5
 21
21.5
  0
LINE
  8
0
 10
54.5
 20
21.5
 11
54.5
 21
26.5
  0
LINE
  8
0
 10
54.5
 20
26.5
 11
59.5
 21
26.5
  0
LINE
  8
0
 10
59.5
 20
26.5
 11
59.5
 21
21.5
  0
LINE
  8
0
 10
59.5
 20
21.5
 11
54.5
 21
21.5
  0
LINE
  8
0
 10
73.5
 20
21.5
 11
73.5
 21
26.5
  0
LINE
  8
0
 10
73.5
 20
26.5
 11
78.5
 21
26.5
  0
LINE
  8
0
 10
78.5
 20
26.5
 11
78.5
 21
21.5
  0
LINE
  8
0
 10
78.5
 20
21.5
 11
73.5
 21
21.5
  0
LINE
  8
0
 10
111.5
 20
21.5
 11
111.5
 21
26.5
  0
LINE
  8
0
 10
111.5
 20
26.5
 11
116.5
 21
26.5
  0
LINE
  8
0
 10
116.5
 20
26.5
 11
116.5
 21
21.5
  0
LINE
  8
0
 10
116.5
 20
21.5
 11
111.5
 21
21.5
  0
LINE
  8
0
 10
97.5
 20
21.5
 11
92.5
 21
21.5
  0
LINE
  8
0
 10
92.5
 20
21.5
 11
92.5
 21
26.5
  0
LINE
  8
0
 10
92.5
 20
26.5
 11
97.5
 21
26.5
  0
LINE
  8
0
 10
97.5
 20
26.5
 11
97.5
 21
21.5
  0
LINE
  8
0
 10
80.5
 20
13.5
 11
80.5
 21
21.5
  0
LINE
  8
0
 10
80.5
 20
21.5
 11
90.5
 21
21.5
  0
LINE
  8
0
 10
90.5
 20
21.5
 11
90.5
 21
13.5
  0
LINE
  8
0
 10
90.5
 20
13.5
 11
80.5
 21
13.5
  0
LINE
  8
0
 10
42.5
 20
13.5
 11
42.5
 21
21.5
  0
LINE
  8
0
 10
42.5
 20
21.5
 11
52.5
 21
21.5
  0
LINE
  8
0
 10
52.5
 20
21.5
 11
52.5
 21
13.5
  0
LINE
  8
0
 10
52.5
 20
13.5
 11
42.5
 21
13.5
  0
LINE
  8
0
 10
61.5
 20
13.5
 11
61.5
 21
21.5
  0
LINE
  8
0
 10
61.5
 20
21.5
 11
71.5
 21
21.5
  0
LINE
  8
0
 10
71.5
 20
21.5
 11
71.5
 21
13.5
  0
LINE
  8
0
 10
71.5
 20
13.5
 11
61.5
 21
13.5
  0
LINE
  8
0
 10
99.5
 20
9.5
 11
99.5
 21
17.5
  0
LINE
  8
0
 10
99.5
 20
17.5
 11
109.5
 21
17.5
  0
LINE
  8
0
 10
109.5
 20
17.5
 11
109.5
 21
9.5
  0
LINE
  8
0
 10
109.5
 20
9.5
 11
99.5
 21
9.5
  0
LINE
  8
0
 10
23.5
 20
9.5
 11
23.5
 21
17.5
  0
LINE
  8
0
 10
23.5
 20
17.5
 11
33.5
 21
17.5
  0
LINE
  8
0
 10
33.5
 20
17.5
 11
33.5
 21
9.5
  0
LINE
  8
0
 10
33.5
 20
9.5
 11
23.5
 21
9.5
  0
LINE
  8
0
 10
118.5
 20
5.5
 11
118.5
 21
13.5
  0
LINE
  8
0
 10
118.5
 20
13.5
 11
128.5
 21
13.5
  0
LINE
  8
0
 10
128.5
 20
13.5
 11
128.5
 21
5.5
  0
LINE
  8
0
 10
128.5
 20
5.5
 11
118.5
 21
5.5
  0
LINE
  8
0
 10
4.5
 20
5.5
 11
4.5
 21
13.5
  0
LINE
  8
0
 10
4.5
 20
13.5
 11
14.5
 21
13.5
  0
LINE
  8
0
 10
14.5
 20
13.5
 11
14.5
 21
5.5
  0
LINE
  8
0
 10
14.5
 20
5.5
 11
4.5
 21
5.5
  0
LINE
  8
0
 10
18.8901
 20
3.25345
 11
18.7807
 21
3.26379
  0
LINE
  8
0
 10
18.7807
 20
3.26379
 11
18.6721
 21
3.28099
  0
LINE
  8
0
 10
18.6721
 20
3.28099
 11
18.5648
 21
3.30498
  0
LINE
  8
0
 10
18.5648
 20
3.30498
 11
18.4592
 21
3.33565
  0
LINE
  8
0
 10
18.4592
 20
3.33565
 11
18.3558
 21
3.37288
  0
LINE
  8
0
 10
18.3558
 20
3.37288
 11
18.2549
 21
3.41655
  0
LINE
  8
0
 10
18.2549
 20
3.41655
 11
18.1569
 21
3.46646
  0
LINE
  8
0
 10
18.1569
 20
3.46646
 11
18.0623
 21
3.52242
  0
LINE
  8
0
 10
18.0623
 20
3.52242
 11
17.9714
 21
3.58421
  0
LINE
  8
0
 10
17.9714
 20
3.58421
 11
17.8845
 21
3.6516
  0
LINE
  8
0
 10
17.8845
 20
3.6516
 11
17.802
 21
3.7243
  0
LINE
  8
0
 10
17.802
 20
3.7243
 11
17.7243
 21
3.80203
  0
LINE
  8
0
 10
17.7243
 20
3.80203
 11
17.6516
 21
3.88451
  0
LINE
  8
0
 10
17.6516
 20
3.88451
 11
17.5842
 21
3.97137
  0
LINE
  8
0
 10
17.5842
 20
3.97137
 11
17.5224
 21
4.0623
  0
LINE
  8
0
 10
17.5224
 20
4.0623
 11
17.4665
 21
4.15692
  0
LINE
  8
0
 10
17.4665
 20
4.15692
 11
17.4165
 21
4.25488
  0
LINE
  8
0
 10
17.4165
 20
4.25488
 11
17.3729
 21
4.35577
  0
LINE
  8
0
 10
17.3729
 20
4.35577
 11
17.3356
 21
4.45921
  0
LINE
  8
0
 10
17.3356
 20
4.45921
 11
17.305
 21
4.56479
  0
LINE
  8
0
 10
17.305
 20
4.56479
 11
17.281
 21
4.67207
  0
LINE
  8
0
 10
17.281
 20
4.67207
 11
17.2638
 21
4.78065
  0
LINE
  8
0
 10
17.2638
 20
4.78065
 11
17.2534
 21
4.89011
  0
LINE
  8
0
 10
17.2534
 20
4.89011
 11
17.25
 21
5
  0
LINE
  8
0
 10
17.25
 20
5
 11
17.2534
 21
5.10988
  0
LINE
  8
0
 10
17.2534
 20
5.10988
 11
17.2638
 21
5.21933
  0
LINE
  8
0
 10
17.2638
 20
5.21933
 11
17.281
 21
5.32791
  0
LINE
  8
0
 10
17.281
 20
5.32791
 11
17.305
 21
5.4352
  0
LINE
  8
0
 10
17.305
 20
5.4352
 11
17.3356
 21
5.54077
  0
LINE
  8
0
 10
17.3356
 20
5.54077
 11
17.3729
 21
5.64421
  0
LINE
  8
0
 10
17.3729
 20
5.64421
 11
17.4165
 21
5.7451
  0
LINE
  8
0
 10
17.4165
 20
5.7451
 11
17.4665
 21
5.84306
  0
LINE
  8
0
 10
17.4665
 20
5.84306
 11
17.5224
 21
5.93768
  0
LINE
  8
0
 10
17.5224
 20
5.93768
 11
17.5842
 21
6.02861
  0
LINE
  8
0
 10
17.5842
 20
6.02861
 11
17.6516
 21
6.11548
  0
LINE
  8
0
 10
17.6516
 20
6.11548
 11
17.7243
 21
6.19795
  0
LINE
  8
0
 10
17.7243
 20
6.19795
 11
17.802
 21
6.27568
  0
LINE
  8
0
 10
17.802
 20
6.27568
 11
17.8845
 21
6.34839
  0
LINE
  8
0
 10
17.8845
 20
6.34839
 11
17.9714
 21
6.41577
  0
LINE
  8
0
 10
17.9714
 20
6.41577
 11
18.0623
 21
6.47757
  0
LINE
  8
0
 10
18.0623
 20
6.47757
 11
18.1569
 21
6.53352
  0
LINE
  8
0
 10
18.1569
 20
6.53352
 11
18.2549
 21
6.58344
  0
LINE
  8
0
 10
18.2549
 20
6.58344
 11
18.3558
 21
6.62711
  0
LINE
  8
0
 10
18.3558
 20
6.62711
 11
18.4592
 21
6.66434
  0
LINE
  8
0
 10
18.4592
 20
6.66434
 11
18.5648
 21
6.69501
  0
LINE
  8
0
 10
18.5648
 20
6.69501
 11
18.6721
 21
6.71899
  0
LINE
  8
0
 10
18.6721
 20
6.71899
 11
18.7807
 21
6.73619
  0
LINE
  8
0
 10
18.7807
 20
6.73619
 11
18.8901
 21
6.74654
  0
LINE
  8
0
 10
18.8901
 20
6.74654
 11
19
 21
6.75
  0
LINE
  8
0
 10
19
 20
6.75
 11
19.1099
 21
6.74654
  0
LINE
  8
0
 10
19.1099
 20
6.74654
 11
19.2193
 21
6.73619
  0
LINE
  8
0
 10
19.2193
 20
6.73619
 11
19.3279
 21
6.71899
  0
LINE
  8
0
 10
19.3279
 20
6.71899
 11
19.4352
 21
6.69501
  0
LINE
  8
0
 10
19.4352
 20
6.69501
 11
19.5408
 21
6.66434
  0
LINE
  8
0
 10
19.5408
 20
6.66434
 11
19.6442
 21
6.62711
  0
LINE
  8
0
 10
19.6442
 20
6.62711
 11
19.7451
 21
6.58344
  0
LINE
  8
0
 10
19.7451
 20
6.58344
 11
19.8431
 21
6.53352
  0
LINE
  8
0
 10
19.8431
 20
6.53352
 11
19.9377
 21
6.47757
  0
LINE
  8
0
 10
19.9377
 20
6.47757
 11
20.0286
 21
6.41577
  0
LINE
  8
0
 10
20.0286
 20
6.41577
 11
20.1155
 21
6.34839
  0
LINE
  8
0
 10
20.1155
 20
6.34839
 11
20.198
 21
6.27568
  0
LINE
  8
0
 10
20.198
 20
6.27568
 11
20.2757
 21
6.19795
  0
LINE
  8
0
 10
20.2757
 20
6.19795
 11
20.3484
 21
6.11548
  0
LINE
  8
0
 10
20.3484
 20
6.11548
 11
20.4158
 21
6.02861
  0
LINE
  8
0
 10
20.4158
 20
6.02861
 11
20.4776
 21
5.93768
  0
LINE
  8
0
 10
20.4776
 20
5.93768
 11
20.5335
 21
5.84306
  0
LINE
  8
0
 10
20.5335
 20
5.84306
 11
20.5834
 21
5.7451
  0
LINE
  8
0
 10
20.5834
 20
5.7451
 11
20.6271
 21
5.64421
  0
LINE
  8
0
 10
20.6271
 20
5.64421
 11
20.6643
 21
5.54077
  0
LINE
  8
0
 10
20.6643
 20
5.54077
 11
20.695
 21
5.4352
  0
LINE
  8
0
 10
20.695
 20
5.4352
 11
20.719
 21
5.32791
  0
LINE
  8
0
 10
20.719
 20
5.32791
 11
20.7362
 21
5.21933
  0
LINE
  8
0
 10
20.7362
 20
5.21933
 11
20.7465
 21
5.10988
  0
LINE
  8
0
 10
20.7465
 20
5.10988
 11
20.75
 21
5
  0
LINE
  8
0
 10
20.75
 20
5
 11
20.7465
 21
4.89011
  0
LINE
  8
0
 10
20.7465
 20
4.89011
 11
20.7362
 21
4.78065
  0
LINE
  8
0
 10
20.7362
 20
4.78065
 11
20.719
 21
4.67207
  0
LINE
  8
0
 10
20.719
 20
4.67207
 11
20.695
 21
4.56479
  0
LINE
  8
0
 10
20.695
 20
4.56479
 11
20.6643
 21
4.45921
  0
LINE
  8
0
 10
20.6643
 20
4.45921
 11
20.6271
 21
4.35577
  0
LINE
  8
0
 10
20.6271
 20
4.35577
 11
20.5834
 21
4.25488
  0
LINE
  8
0
 10
20.5834
 20
4.25488
 11
20.5335
 21
4.15692
  0
LINE
  8
0
 10
20.5335
 20
4.15692
 11
20.4776
 21
4.0623
  0
LINE
  8
0
 10
20.4776
 20
4.0623
 11
20.4158
 21
3.97137
  0
LINE
  8
0
 10
20.4158
 20
3.97137
 11
20.3484
 21
3.88451
  0
LINE
  8
0
 10
20.3484
 20
3.88451
 11
20.2757
 21
3.80203
  0
LINE
  8
0
 10
20.2757
 20
3.80203
 11
20.198
 21
3.7243
  0
LINE
  8
0
 10
20.198
 20
3.7243
 11
20.1155
 21
3.6516
  0
LINE
  8
0
 10
20.1155
 20
3.6516
 11
20.0286
 21
3.58421
  0
LINE
  8
0
 10
20.0286
 20
3.58421
 11
19.9377
 21
3.52242
  0
LINE
  8
0
 10
19.9377
 20
3.52242
 11
19.8431
 21
3.46646
  0
LINE
  8
0
 10
19.8431
 20
3.46646
 11
19.7451
 21
3.41655
  0
LINE
  8
0
 10
19.7451
 20
3.41655
 11
19.6442
 21
3.37288
  0
LINE
  8
0
 10
19.6442
 20
3.37288
 11
19.5408
 21
3.33565
  0
LINE
  8
0
 10
19.5408
 20
3.33565
 11
19.4352
 21
3.30498
  0
LINE
  8
0
 10
19.4352
 20
3.30498
 11
19.3279
 21
3.28099
  0
LINE
  8
0
 10
19.3279
 20
3.28099
 11
19.2193
 21
3.26379
  0
LINE
  8
0
 10
19.2193
 20
3.26379
 11
19.1099
 21
3.25345
  0
LINE
  8
0
 10
19.1099
 20
3.25345
 11
19
 21
3.25
  0
LINE
  8
0
 10
19
 20
3.25
 11
18.8901
 21
3.25345
  0
LINE
  8
0
 10
113.89
 20
3.25345
 11
113.781
 21
3.26379
  0
LINE
  8
0
 10
113.781
 20
3.26379
 11
113.672
 21
3.28099
  0
LINE
  8
0
 10
113.672
 20
3.28099
 11
113.565
 21
3.30498
  0
LINE
  8
0
 10
113.565
 20
3.30498
 11
113.459
 21
3.33565
  0
LINE
  8
0
 10
113.459
 20
3.33565
 11
113.356
 21
3.37288
  0
LINE
  8
0
 10
113.356
 20
3.37288
 11
113.255
 21
3.41655
  0
LINE
  8
0
 10
113.255
 20
3.41655
 11
113.157
 21
3.46646
  0
LINE
  8
0
 10
113.157
 20
3.46646
 11
113.062
 21
3.52242
  0
LINE
  8
0
 10
113.062
 20
3.52242
 11
112.971
 21
3.58421
  0
LINE
  8
0
 10
112.971
 20
3.58421
 11
112.885
 21
3.6516
  0
LINE
  8
0
 10
112.885
 20
3.6516
 11
112.802
 21
3.7243
  0
LINE
  8
0
 10
112.802
 20
3.7243
 11
112.724
 21
3.80203
  0
LINE
  8
0
 10
112.724
 20
3.80203
 11
112.652
 21
3.88451
  0
LINE
  8
0
 10
112.652
 20
3.88451
 11
112.584
 21
3.97137
  0
LINE
  8
0
 10
112.584
 20
3.97137
 11
112.522
 21
4.0623
  0
LINE
  8
0
 10
112.522
 20
4.0623
 11
112.466
 21
4.15692
  0
LINE
  8
0
 10
112.466
 20
4.15692
 11
112.417
 21
4.25488
  0
LINE
  8
0
 10
112.417
 20
4.25488
 11
112.373
 21
4.35577
  0
LINE
  8
0
 10
112.373
 20
4.35577
 11
112.336
 21
4.45921
  0
LINE
  8
0
 10
112.336
 20
4.45921
 11
112.305
 21
4.56479
  0
LINE
  8
0
 10
112.305
 20
4.56479
 11
112.281
 21
4.67207
  0
LINE
  8
0
 10
112.281
 20
4.67207
 11
112.264
 21
4.78065
  0
LINE
  8
0
 10
112.264
 20
4.78065
 11
112.253
 21
4.89011
  0
LINE
  8
0
 10
112.253
 20
4.89011
 11
112.25
 21
5
  0
LINE
  8
0
 10
112.25
 20
5
 11
112.253
 21
5.10988
  0
LINE
  8
0
 10
112.253
 20
5.10988
 11
112.264
 21
5.21933
  0
LINE
  8
0
 10
112.264
 20
5.21933
 11
112.281
 21
5.32791
  0
LINE
  8
0
 10
112.281
 20
5.32791
 11
112.305
 21
5.4352
  0
LINE
  8
0
 10
112.305
 20
5.4352
 11
112.336
 21
5.54077
  0
LINE
  8
0
 10
112.336
 20
5.54077
 11
112.373
 21
5.64421
  0
LINE
  8
0
 10
112.373
 20
5.64421
 11
112.417
 21
5.7451
  0
LINE
  8
0
 10
112.417
 20
5.7451
 11
112.466
 21
5.84306
  0
LINE
  8
0
 10
112.466
 20
5.84306
 11
112.522
 21
5.93768
  0
LINE
  8
0
 10
112.522
 20
5.93768
 11
112.584
 21
6.02861
  0
LINE
  8
0
 10
112.584
 20
6.02861
 11
112.652
 21
6.11548
  0
LINE
  8
0
 10
112.652
 20
6.11548
 11
112.724
 21
6.19795
  0
LINE
  8
0
 10
112.724
 20
6.19795
 11
112.802
 21
6.27568
  0
LINE
  8
0
 10
112.802
 20
6.27568
 11
112.885
 21
6.34839
  0
LINE
  8
0
 10
112.885
 20
6.34839
 11
112.971
 21
6.41577
  0
LINE
  8
0
 10
112.971
 20
6.41577
 11
113.062
 21
6.47757
  0
LINE
  8
0
 10
113.062
 20
6.47757
 11
113.157
 21
6.53352
  0
LINE
  8
0
 10
113.157
 20
6.53352
 11
113.255
 21
6.58344
  0
LINE
  8
0
 10
113.255
 20
6.58344
 11
113.356
 21
6.62711
  0
LINE
  8
0
 10
113.356
 20
6.62711
 11
113.459
 21
6.66434
  0
LINE
  8
0
 10
113.459
 20
6.66434
 11
113.565
 21
6.69501
  0
LINE
  8
0
 10
113.565
 20
6.69501
 11
113.672
 21
6.71899
  0
LINE
  8
0
 10
113.672
 20
6.71899
 11
113.781
 21
6.73619
  0
LINE
  8
0
 10
113.781
 20
6.73619
 11
113.89
 21
6.74654
  0
LINE
  8
0
 10
113.89
 20
6.74654
 11
114
 21
6.75
  0
LINE
  8
0
 10
114
 20
6.75
 11
114.11
 21
6.74654
  0
LINE
  8
0
 10
114.11
 20
6.74654
 11
114.219
 21
6.73619
  0
LINE
  8
0
 10
114.219
 20
6.73619
 11
114.328
 21
6.71899
  0
LINE
  8
0
 10
114.328
 20
6.71899
 11
114.435
 21
6.69501
  0
LINE
  8
0
 10
114.435
 20
6.69501
 11
114.541
 21
6.66434
  0
LINE
  8
0
 10
114.541
 20
6.66434
 11
114.644
 21
6.62711
  0
LINE
  8
0
 10
114.644
 20
6.62711
 11
114.745
 21
6.58344
  0
LINE
  8
0
 10
114.745
 20
6.58344
 11
114.843
 21
6.53352
  0
LINE
  8
0
 10
114.843
 20
6.53352
 11
114.938
 21
6.47757
  0
LINE
  8
0
 10
114.938
 20
6.47757
 11
115.029
 21
6.41577
  0
LINE
  8
0
 10
115.029
 20
6.41577
 11
115.115
 21
6.34839
  0
LINE
  8
0
 10
115.115
 20
6.34839
 11
115.198
 21
6.27568
  0
LINE
  8
0
 10
115.198
 20
6.27568
 11
115.276
 21
6.19795
  0
LINE
  8
0
 10
115.276
 20
6.19795
 11
115.348
 21
6.11548
  0
LINE
  8
0
 10
115.348
 20
6.11548
 11
115.416
 21
6.02861
  0
LINE
  8
0
 10
115.416
 20
6.02861
 11
115.478
 21
5.93768
  0
LINE
  8
0
 10
115.478
 20
5.93768
 11
115.534
 21
5.84306
  0
LINE
  8
0
 10
115.534
 20
5.84306
 11
115.583
 21
5.7451
  0
LINE
  8
0
 10
115.583
 20
5.7451
 11
115.627
 21
5.64421
  0
LINE
  8
0
 10
115.627
 20
5.64421
 11
115.664
 21
5.54077
  0
LINE
  8
0
 10
115.664
 20
5.54077
 11
115.695
 21
5.4352
  0
LINE
  8
0
 10
115.695
 20
5.4352
 11
115.719
 21
5.32791
  0
LINE
  8
0
 10
115.719
 20
5.32791
 11
115.736
 21
5.21933
  0
LINE
  8
0
 10
115.736
 20
5.21933
 11
115.747
 21
5.10988
  0
LINE
  8
0
 10
115.747
 20
5.10988
 11
115.75
 21
5
  0
LINE
  8
0
 10
115.75
 20
5
 11
115.747
 21
4.89011
  0
LINE
  8
0
 10
115.747
 20
4.89011
 11
115.736
 21
4.78065
  0
LINE
  8
0
 10
115.736
 20
4.78065
 11
115.719
 21
4.67207
  0
LINE
  8
0
 10
115.719
 20
4.67207
 11
115.695
 21
4.56479
  0
LINE
  8
0
 10
115.695
 20
4.56479
 11
115.664
 21
4.45921
  0
LINE
  8
0
 10
115.664
 20
4.45921
 11
115.627
 21
4.35577
  0
LINE
  8
0
 10
115.627
 20
4.35577
 11
115.583
 21
4.25488
  0
LINE
  8
0
 10
115.583
 20
4.25488
 11
115.534
 21
4.15692
  0
LINE
  8
0
 10
115.534
 20
4.15692
 11
115.478
 21
4.0623
  0
LINE
  8
0
 10
115.478
 20
4.0623
 11
115.416
 21
3.97137
  0
LINE
  8
0
 10
115.416
 20
3.97137
 11
115.348
 21
3.88451
  0
LINE
  8
0
 10
115.348
 20
3.88451
 11
115.276
 21
3.80203
  0
LINE
  8
0
 10
115.276
 20
3.80203
 11
115.198
 21
3.7243
  0
LINE
  8
0
 10
115.198
 20
3.7243
 11
115.115
 21
3.6516
  0
LINE
  8
0
 10
115.115
 20
3.6516
 11
115.029
 21
3.58421
  0
LINE
  8
0
 10
115.029
 20
3.58421
 11
114.938
 21
3.52242
  0
LINE
  8
0
 10
114.938
 20
3.52242
 11
114.843
 21
3.46646
  0
LINE
  8
0
 10
114.843
 20
3.46646
 11
114.745
 21
3.41655
  0
LINE
  8
0
 10
114.745
 20
3.41655
 11
114.644
 21
3.37288
  0
LINE
  8
0
 10
114.644
 20
3.37288
 11
114.541
 21
3.33565
  0
LINE
  8
0
 10
114.541
 20
3.33565
 11
114.435
 21
3.30498
  0
LINE
  8
0
 10
114.435
 20
3.30498
 11
114.328
 21
3.28099
  0
LINE
  8
0
 10
114.328
 20
3.28099
 11
114.219
 21
3.26379
  0
LINE
  8
0
 10
114.219
 20
3.26379
 11
114.11
 21
3.25345
  0
LINE
  8
0
 10
114.11
 20
3.25345
 11
114
 21
3.25
  0
LINE
  8
0
 10
114
 20
3.25
 11
113.89
 21
3.25345
  0
ENDSEC
  0
SECTION
  2
OBJECTS
  0
DICTIONARY
  0
ENDSEC
  0
EOF
