  0
SECTION
  2
BLOCKS
  0
ENDSEC
  0
SECTION
  2
ENTITIES
  0
LINE
  8
0
 10
131.126
 20
0.00393677
 11
131.251
 21
0.0157623
  0
LINE
  8
0
 10
131.251
 20
0.0157623
 11
131.375
 21
0.0354156
  0
LINE
  8
0
 10
131.375
 20
0.0354156
 11
131.497
 21
0.0628204
  0
LINE
  8
0
 10
131.497
 20
0.0628204
 11
131.618
 21
0.0978851
  0
LINE
  8
0
 10
131.618
 20
0.0978851
 11
131.736
 21
0.140442
  0
LINE
  8
0
 10
131.736
 20
0.140442
 11
131.852
 21
0.190338
  0
LINE
  8
0
 10
131.852
 20
0.190338
 11
131.964
 21
0.247375
  0
LINE
  8
0
 10
131.964
 20
0.247375
 11
132.072
 21
0.31134
  0
LINE
  8
0
 10
132.072
 20
0.31134
 11
132.176
 21
0.381958
  0
LINE
  8
0
 10
132.176
 20
0.381958
 11
132.275
 21
0.458969
  0
LINE
  8
0
 10
132.275
 20
0.458969
 11
132.369
 21
0.542053
  0
LINE
  8
0
 10
132.369
 20
0.542053
 11
132.458
 21
0.630905
  0
LINE
  8
0
 10
132.458
 20
0.630905
 11
132.541
 21
0.725143
  0
LINE
  8
0
 10
132.541
 20
0.725143
 11
132.618
 21
0.824417
  0
LINE
  8
0
 10
132.618
 20
0.824417
 11
132.689
 21
0.928345
  0
LINE
  8
0
 10
132.689
 20
0.928345
 11
132.753
 21
1.03648
  0
LINE
  8
0
 10
132.753
 20
1.03648
 11
132.81
 21
1.14844
  0
LINE
  8
0
 10
132.81
 20
1.14844
 11
132.86
 21
1.26375
  0
LINE
  8
0
 10
132.86
 20
1.26375
 11
132.902
 21
1.38196
  0
LINE
  8
0
 10
132.902
 20
1.38196
 11
132.937
 21
1.50261
  0
LINE
  8
0
 10
132.937
 20
1.50261
 11
132.965
 21
1.62523
  0
LINE
  8
0
 10
132.965
 20
1.62523
 11
132.984
 21
1.74933
  0
LINE
  8
0
 10
132.984
 20
1.74933
 11
132.996
 21
1.8744
  0
LINE
  8
0
 10
132.996
 20
1.8744
 11
133
 21
2
  0
LINE
  8
0
 10
133
 20
2
 11
133
 21
120
  0
LINE
  8
0
 10
133
 20
120
 11
132.996
 21
120.126
  0
LINE
  8
0
 10
132.996
 20
120.126
 11
132.984
 21
120.251
  0
LINE
  8
0
 10
132.984
 20
120.251
 11
132.965
 21
120.375
  0
LINE
  8
0
 10
132.965
 20
120.375
 11
132.937
 21
120.497
  0
LINE
  8
0
 10
132.937
 20
120.497
 11
132.902
 21
120.618
  0
LINE
  8
0
 10
132.902
 20
120.618
 11
132.86
 21
120.736
  0
LINE
  8
0
 10
132.86
 20
120.736
 11
132.81
 21
120.852
  0
LINE
  8
0
 10
132.81
 20
120.852
 11
132.753
 21
120.964
  0
LINE
  8
0
 10
132.753
 20
120.964
 11
132.689
 21
121.072
  0
LINE
  8
0
 10
132.689
 20
121.072
 11
132.618
 21
121.176
  0
LINE
  8
0
 10
132.618
 20
121.176
 11
132.541
 21
121.275
  0
LINE
  8
0
 10
132.541
 20
121.275
 11
132.458
 21
121.369
  0
LINE
  8
0
 10
132.458
 20
121.369
 11
132.369
 21
121.458
  0
LINE
  8
0
 10
132.369
 20
121.458
 11
132.275
 21
121.541
  0
LINE
  8
0
 10
132.275
 20
121.541
 11
132.176
 21
121.618
  0
LINE
  8
0
 10
132.176
 20
121.618
 11
132.072
 21
121.689
  0
LINE
  8
0
 10
132.072
 20
121.689
 11
131.964
 21
121.753
  0
LINE
  8
0
 10
131.964
 20
121.753
 11
131.852
 21
121.81
  0
LINE
  8
0
 10
131.852
 20
121.81
 11
131.736
 21
121.86
  0
LINE
  8
0
 10
131.736
 20
121.86
 11
131.618
 21
121.902
  0
LINE
  8
0
 10
131.618
 20
121.902
 11
131.497
 21
121.937
  0
LINE
  8
0
 10
131.497
 20
121.937
 11
131.375
 21
121.965
  0
LINE
  8
0
 10
131.375
 20
121.965
 11
131.251
 21
121.984
  0
LINE
  8
0
 10
131.251
 20
121.984
 11
131.126
 21
121.996
  0
LINE
  8
0
 10
131.126
 20
121.996
 11
131
 21
122
  0
LINE
  8
0
 10
131
 20
122
 11
2
 21
122
  0
LINE
  8
0
 10
2
 20
122
 11
1.8744
 21
121.996
  0
LINE
  8
0
 10
1.8744
 20
121.996
 11
1.74933
 21
121.984
  0
LINE
  8
0
 10
1.74933
 20
121.984
 11
1.62523
 21
121.965
  0
LINE
  8
0
 10
1.62523
 20
121.965
 11
1.50261
 21
121.937
  0
LINE
  8
0
 10
1.50261
 20
121.937
 11
1.38196
 21
121.902
  0
LINE
  8
0
 10
1.38196
 20
121.902
 11
1.26375
 21
121.86
  0
LINE
  8
0
 10
1.26375
 20
121.86
 11
1.14844
 21
121.81
  0
LINE
  8
0
 10
1.14844
 20
121.81
 11
1.03648
 21
121.753
  0
LINE
  8
0
 10
1.03648
 20
121.753
 11
0.928345
 21
121.689
  0
LINE
  8
0
 10
0.928345
 20
121.689
 11
0.824417
 21
121.618
  0
LINE
  8
0
 10
0.824417
 20
121.618
 11
0.725143
 21
121.541
  0
LINE
  8
0
 10
0.725143
 20
121.541
 11
0.630905
 21
121.458
  0
LINE
  8
0
 10
0.630905
 20
121.458
 11
0.542053
 21
121.369
  0
LINE
  8
0
 10
0.542053
 20
121.369
 11
0.458969
 21
121.275
  0
LINE
  8
0
 10
0.458969
 20
121.275
 11
0.381958
 21
121.176
  0
LINE
  8
0
 10
0.381958
 20
121.176
 11
0.31134
 21
121.072
  0
LINE
  8
0
 10
0.31134
 20
121.072
 11
0.247375
 21
120.964
  0
LINE
  8
0
 10
0.247375
 20
120.964
 11
0.190338
 21
120.852
  0
LINE
  8
0
 10
0.190338
 20
120.852
 11
0.140442
 21
120.736
  0
LINE
  8
0
 10
0.140442
 20
120.736
 11
0.0978851
 21
120.618
  0
LINE
  8
0
 10
0.0978851
 20
120.618
 11
0.0628204
 21
120.497
  0
LINE
  8
0
 10
0.0628204
 20
120.497
 11
0.0354156
 21
120.375
  0
LINE
  8
0
 10
0.0354156
 20
120.375
 11
0.0157623
 21
120.251
  0
LINE
  8
0
 10
0.0157623
 20
120.251
 11
0.00393677
 21
120.126
  0
LINE
  8
0
 10
0.00393677
 20
120.126
 11
0
 21
120
  0
LINE
  8
0
 10
0
 20
120
 11
0
 21
2
  0
LINE
  8
0
 10
0
 20
2
 11
0.00393677
 21
1.8744
  0
LINE
  8
0
 10
0.00393677
 20
1.8744
 11
0.0157623
 21
1.74933
  0
LINE
  8
0
 10
0.0157623
 20
1.74933
 11
0.0354156
 21
1.62523
  0
LINE
  8
0
 10
0.0354156
 20
1.62523
 11
0.0628204
 21
1.50261
  0
LINE
  8
0
 10
0.0628204
 20
1.50261
 11
0.0978851
 21
1.38196
  0
LINE
  8
0
 10
0.0978851
 20
1.38196
 11
0.140442
 21
1.26375
  0
LINE
  8
0
 10
0.140442
 20
1.26375
 11
0.190338
 21
1.14844
  0
LINE
  8
0
 10
0.190338
 20
1.14844
 11
0.247375
 21
1.03648
  0
LINE
  8
0
 10
0.247375
 20
1.03648
 11
0.31134
 21
0.928345
  0
LINE
  8
0
 10
0.31134
 20
0.928345
 11
0.381958
 21
0.824417
  0
LINE
  8
0
 10
0.381958
 20
0.824417
 11
0.458969
 21
0.725143
  0
LINE
  8
0
 10
0.458969
 20
0.725143
 11
0.542053
 21
0.630905
  0
LINE
  8
0
 10
0.542053
 20
0.630905
 11
0.630905
 21
0.542053
  0
LINE
  8
0
 10
0.630905
 20
0.542053
 11
0.725143
 21
0.458969
  0
LINE
  8
0
 10
0.725143
 20
0.458969
 11
0.824417
 21
0.381958
  0
LINE
  8
0
 10
0.824417
 20
0.381958
 11
0.928345
 21
0.31134
  0
LINE
  8
0
 10
0.928345
 20
0.31134
 11
1.03648
 21
0.247375
  0
LINE
  8
0
 10
1.03648
 20
0.247375
 11
1.14844
 21
0.190338
  0
LINE
  8
0
 10
1.14844
 20
0.190338
 11
1.26375
 21
0.140442
  0
LINE
  8
0
 10
1.26375
 20
0.140442
 11
1.38196
 21
0.0978851
  0
LINE
  8
0
 10
1.38196
 20
0.0978851
 11
1.50261
 21
0.0628204
  0
LINE
  8
0
 10
1.50261
 20
0.0628204
 11
1.62523
 21
0.0354156
  0
LINE
  8
0
 10
1.62523
 20
0.0354156
 11
1.74933
 21
0.0157623
  0
LINE
  8
0
 10
1.74933
 20
0.0157623
 11
1.8744
 21
0.00393677
  0
LINE
  8
0
 10
1.8744
 20
0.00393677
 11
2
 21
0
  0
LINE
  8
0
 10
2
 20
0
 11
131
 21
0
  0
LINE
  8
0
 10
131
 20
0
 11
131.126
 21
0.00393677
  0
LINE
  8
0
 10
4.93719
 20
116.002
 11
4.87466
 21
116.008
  0
LINE
  8
0
 10
4.87466
 20
116.008
 11
4.81261
 21
116.018
  0
LINE
  8
0
 10
4.81261
 20
116.018
 11
4.7513
 21
116.031
  0
LINE
  8
0
 10
4.7513
 20
116.031
 11
4.69098
 21
116.049
  0
LINE
  8
0
 10
4.69098
 20
116.049
 11
4.63187
 21
116.07
  0
LINE
  8
0
 10
4.63187
 20
116.07
 11
4.57422
 21
116.095
  0
LINE
  8
0
 10
4.57422
 20
116.095
 11
4.51823
 21
116.124
  0
LINE
  8
0
 10
4.51823
 20
116.124
 11
4.46417
 21
116.156
  0
LINE
  8
0
 10
4.46417
 20
116.156
 11
4.4122
 21
116.191
  0
LINE
  8
0
 10
4.4122
 20
116.191
 11
4.36256
 21
116.229
  0
LINE
  8
0
 10
4.36256
 20
116.229
 11
4.31544
 21
116.271
  0
LINE
  8
0
 10
4.31544
 20
116.271
 11
4.27103
 21
116.315
  0
LINE
  8
0
 10
4.27103
 20
116.315
 11
4.22948
 21
116.363
  0
LINE
  8
0
 10
4.22948
 20
116.363
 11
4.19098
 21
116.412
  0
LINE
  8
0
 10
4.19098
 20
116.412
 11
4.15567
 21
116.464
  0
LINE
  8
0
 10
4.15567
 20
116.464
 11
4.12369
 21
116.518
  0
LINE
  8
0
 10
4.12369
 20
116.518
 11
4.09517
 21
116.574
  0
LINE
  8
0
 10
4.09517
 20
116.574
 11
4.07022
 21
116.632
  0
LINE
  8
0
 10
4.07022
 20
116.632
 11
4.04893
 21
116.691
  0
LINE
  8
0
 10
4.04893
 20
116.691
 11
4.0314
 21
116.751
  0
LINE
  8
0
 10
4.0314
 20
116.751
 11
4.0177
 21
116.813
  0
LINE
  8
0
 10
4.0177
 20
116.813
 11
4.00787
 21
116.875
  0
LINE
  8
0
 10
4.00787
 20
116.875
 11
4.00197
 21
116.937
  0
LINE
  8
0
 10
4.00197
 20
116.937
 11
4
 21
117
  0
LINE
  8
0
 10
4
 20
117
 11
4.00197
 21
117.063
  0
LINE
  8
0
 10
4.00197
 20
117.063
 11
4.00787
 21
117.125
  0
LINE
  8
0
 10
4.00787
 20
117.125
 11
4.0177
 21
117.187
  0
LINE
  8
0
 10
4.0177
 20
117.187
 11
4.0314
 21
117.249
  0
LINE
  8
0
 10
4.0314
 20
117.249
 11
4.04893
 21
117.309
  0
LINE
  8
0
 10
4.04893
 20
117.309
 11
4.07022
 21
117.368
  0
LINE
  8
0
 10
4.07022
 20
117.368
 11
4.09517
 21
117.426
  0
LINE
  8
0
 10
4.09517
 20
117.426
 11
4.12369
 21
117.482
  0
LINE
  8
0
 10
4.12369
 20
117.482
 11
4.15567
 21
117.536
  0
LINE
  8
0
 10
4.15567
 20
117.536
 11
4.19098
 21
117.588
  0
LINE
  8
0
 10
4.19098
 20
117.588
 11
4.22948
 21
117.637
  0
LINE
  8
0
 10
4.22948
 20
117.637
 11
4.27103
 21
117.685
  0
LINE
  8
0
 10
4.27103
 20
117.685
 11
4.31544
 21
117.729
  0
LINE
  8
0
 10
4.31544
 20
117.729
 11
4.36256
 21
117.771
  0
LINE
  8
0
 10
4.36256
 20
117.771
 11
4.4122
 21
117.809
  0
LINE
  8
0
 10
4.4122
 20
117.809
 11
4.46417
 21
117.844
  0
LINE
  8
0
 10
4.46417
 20
117.844
 11
4.51823
 21
117.876
  0
LINE
  8
0
 10
4.51823
 20
117.876
 11
4.57422
 21
117.905
  0
LINE
  8
0
 10
4.57422
 20
117.905
 11
4.63187
 21
117.93
  0
LINE
  8
0
 10
4.63187
 20
117.93
 11
4.69098
 21
117.951
  0
LINE
  8
0
 10
4.69098
 20
117.951
 11
4.7513
 21
117.969
  0
LINE
  8
0
 10
4.7513
 20
117.969
 11
4.81261
 21
117.982
  0
LINE
  8
0
 10
4.81261
 20
117.982
 11
4.87466
 21
117.992
  0
LINE
  8
0
 10
4.87466
 20
117.992
 11
4.93719
 21
117.998
  0
LINE
  8
0
 10
4.93719
 20
117.998
 11
5
 21
118
  0
LINE
  8
0
 10
5
 20
118
 11
5.06279
 21
117.998
  0
LINE
  8
0
 10
5.06279
 20
117.998
 11
5.12532
 21
117.992
  0
LINE
  8
0
 10
5.12532
 20
117.992
 11
5.18738
 21
117.982
  0
LINE
  8
0
 10
5.18738
 20
117.982
 11
5.24869
 21
117.969
  0
LINE
  8
0
 10
5.24869
 20
117.969
 11
5.30901
 21
117.951
  0
LINE
  8
0
 10
5.30901
 20
117.951
 11
5.36812
 21
117.93
  0
LINE
  8
0
 10
5.36812
 20
117.93
 11
5.42577
 21
117.905
  0
LINE
  8
0
 10
5.42577
 20
117.905
 11
5.48175
 21
117.876
  0
LINE
  8
0
 10
5.48175
 20
117.876
 11
5.53581
 21
117.844
  0
LINE
  8
0
 10
5.53581
 20
117.844
 11
5.58778
 21
117.809
  0
LINE
  8
0
 10
5.58778
 20
117.809
 11
5.63742
 21
117.771
  0
LINE
  8
0
 10
5.63742
 20
117.771
 11
5.68454
 21
117.729
  0
LINE
  8
0
 10
5.68454
 20
117.729
 11
5.72896
 21
117.685
  0
LINE
  8
0
 10
5.72896
 20
117.685
 11
5.77051
 21
117.637
  0
LINE
  8
0
 10
5.77051
 20
117.637
 11
5.80901
 21
117.588
  0
LINE
  8
0
 10
5.80901
 20
117.588
 11
5.84431
 21
117.536
  0
LINE
  8
0
 10
5.84431
 20
117.536
 11
5.8763
 21
117.482
  0
LINE
  8
0
 10
5.8763
 20
117.482
 11
5.90482
 21
117.426
  0
LINE
  8
0
 10
5.90482
 20
117.426
 11
5.92976
 21
117.368
  0
LINE
  8
0
 10
5.92976
 20
117.368
 11
5.95105
 21
117.309
  0
LINE
  8
0
 10
5.95105
 20
117.309
 11
5.96858
 21
117.249
  0
LINE
  8
0
 10
5.96858
 20
117.249
 11
5.98228
 21
117.187
  0
LINE
  8
0
 10
5.98228
 20
117.187
 11
5.99211
 21
117.125
  0
LINE
  8
0
 10
5.99211
 20
117.125
 11
5.99802
 21
117.063
  0
LINE
  8
0
 10
5.99802
 20
117.063
 11
6
 21
117
  0
LINE
  8
0
 10
6
 20
117
 11
5.99802
 21
116.937
  0
LINE
  8
0
 10
5.99802
 20
116.937
 11
5.99211
 21
116.875
  0
LINE
  8
0
 10
5.99211
 20
116.875
 11
5.98228
 21
116.813
  0
LINE
  8
0
 10
5.98228
 20
116.813
 11
5.96858
 21
116.751
  0
LINE
  8
0
 10
5.96858
 20
116.751
 11
5.95105
 21
116.691
  0
LINE
  8
0
 10
5.95105
 20
116.691
 11
5.92976
 21
116.632
  0
LINE
  8
0
 10
5.92976
 20
116.632
 11
5.90482
 21
116.574
  0
LINE
  8
0
 10
5.90482
 20
116.574
 11
5.8763
 21
116.518
  0
LINE
  8
0
 10
5.8763
 20
116.518
 11
5.84431
 21
116.464
  0
LINE
  8
0
 10
5.84431
 20
116.464
 11
5.80901
 21
116.412
  0
LINE
  8
0
 10
5.80901
 20
116.412
 11
5.77051
 21
116.363
  0
LINE
  8
0
 10
5.77051
 20
116.363
 11
5.72896
 21
116.315
  0
LINE
  8
0
 10
5.72896
 20
116.315
 11
5.68454
 21
116.271
  0
LINE
  8
0
 10
5.68454
 20
116.271
 11
5.63742
 21
116.229
  0
LINE
  8
0
 10
5.63742
 20
116.229
 11
5.58778
 21
116.191
  0
LINE
  8
0
 10
5.58778
 20
116.191
 11
5.53581
 21
116.156
  0
LINE
  8
0
 10
5.53581
 20
116.156
 11
5.48175
 21
116.124
  0
LINE
  8
0
 10
5.48175
 20
116.124
 11
5.42577
 21
116.095
  0
LINE
  8
0
 10
5.42577
 20
116.095
 11
5.36812
 21
116.07
  0
LINE
  8
0
 10
5.36812
 20
116.07
 11
5.30901
 21
116.049
  0
LINE
  8
0
 10
5.30901
 20
116.049
 11
5.24869
 21
116.031
  0
LINE
  8
0
 10
5.24869
 20
116.031
 11
5.18738
 21
116.018
  0
LINE
  8
0
 10
5.18738
 20
116.018
 11
5.12532
 21
116.008
  0
LINE
  8
0
 10
5.12532
 20
116.008
 11
5.06279
 21
116.002
  0
LINE
  8
0
 10
5.06279
 20
116.002
 11
5
 21
116
  0
LINE
  8
0
 10
5
 20
116
 11
4.93719
 21
116.002
  0
LINE
  8
0
 10
127.937
 20
116.002
 11
127.875
 21
116.008
  0
LINE
  8
0
 10
127.875
 20
116.008
 11
127.813
 21
116.018
  0
LINE
  8
0
 10
127.813
 20
116.018
 11
127.751
 21
116.031
  0
LINE
  8
0
 10
127.751
 20
116.031
 11
127.691
 21
116.049
  0
LINE
  8
0
 10
127.691
 20
116.049
 11
127.632
 21
116.07
  0
LINE
  8
0
 10
127.632
 20
116.07
 11
127.574
 21
116.095
  0
LINE
  8
0
 10
127.574
 20
116.095
 11
127.518
 21
116.124
  0
LINE
  8
0
 10
127.518
 20
116.124
 11
127.464
 21
116.156
  0
LINE
  8
0
 10
127.464
 20
116.156
 11
127.412
 21
116.191
  0
LINE
  8
0
 10
127.412
 20
116.191
 11
127.363
 21
116.229
  0
LINE
  8
0
 10
127.363
 20
116.229
 11
127.315
 21
116.271
  0
LINE
  8
0
 10
127.315
 20
116.271
 11
127.271
 21
116.315
  0
LINE
  8
0
 10
127.271
 20
116.315
 11
127.229
 21
116.363
  0
LINE
  8
0
 10
127.229
 20
116.363
 11
127.191
 21
116.412
  0
LINE
  8
0
 10
127.191
 20
116.412
 11
127.156
 21
116.464
  0
LINE
  8
0
 10
127.156
 20
116.464
 11
127.124
 21
116.518
  0
LINE
  8
0
 10
127.124
 20
116.518
 11
127.095
 21
116.574
  0
LINE
  8
0
 10
127.095
 20
116.574
 11
127.07
 21
116.632
  0
LINE
  8
0
 10
127.07
 20
116.632
 11
127.049
 21
116.691
  0
LINE
  8
0
 10
127.049
 20
116.691
 11
127.031
 21
116.751
  0
LINE
  8
0
 10
127.031
 20
116.751
 11
127.018
 21
116.813
  0
LINE
  8
0
 10
127.018
 20
116.813
 11
127.008
 21
116.875
  0
LINE
  8
0
 10
127.008
 20
116.875
 11
127.002
 21
116.937
  0
LINE
  8
0
 10
127.002
 20
116.937
 11
127
 21
117
  0
LINE
  8
0
 10
127
 20
117
 11
127.002
 21
117.063
  0
LINE
  8
0
 10
127.002
 20
117.063
 11
127.008
 21
117.125
  0
LINE
  8
0
 10
127.008
 20
117.125
 11
127.018
 21
117.187
  0
LINE
  8
0
 10
127.018
 20
117.187
 11
127.031
 21
117.249
  0
LINE
  8
0
 10
127.031
 20
117.249
 11
127.049
 21
117.309
  0
LINE
  8
0
 10
127.049
 20
117.309
 11
127.07
 21
117.368
  0
LINE
  8
0
 10
127.07
 20
117.368
 11
127.095
 21
117.426
  0
LINE
  8
0
 10
127.095
 20
117.426
 11
127.124
 21
117.482
  0
LINE
  8
0
 10
127.124
 20
117.482
 11
127.156
 21
117.536
  0
LINE
  8
0
 10
127.156
 20
117.536
 11
127.191
 21
117.588
  0
LINE
  8
0
 10
127.191
 20
117.588
 11
127.229
 21
117.637
  0
LINE
  8
0
 10
127.229
 20
117.637
 11
127.271
 21
117.685
  0
LINE
  8
0
 10
127.271
 20
117.685
 11
127.315
 21
117.729
  0
LINE
  8
0
 10
127.315
 20
117.729
 11
127.363
 21
117.771
  0
LINE
  8
0
 10
127.363
 20
117.771
 11
127.412
 21
117.809
  0
LINE
  8
0
 10
127.412
 20
117.809
 11
127.464
 21
117.844
  0
LINE
  8
0
 10
127.464
 20
117.844
 11
127.518
 21
117.876
  0
LINE
  8
0
 10
127.518
 20
117.876
 11
127.574
 21
117.905
  0
LINE
  8
0
 10
127.574
 20
117.905
 11
127.632
 21
117.93
  0
LINE
  8
0
 10
127.632
 20
117.93
 11
127.691
 21
117.951
  0
LINE
  8
0
 10
127.691
 20
117.951
 11
127.751
 21
117.969
  0
LINE
  8
0
 10
127.751
 20
117.969
 11
127.813
 21
117.982
  0
LINE
  8
0
 10
127.813
 20
117.982
 11
127.875
 21
117.992
  0
LINE
  8
0
 10
127.875
 20
117.992
 11
127.937
 21
117.998
  0
LINE
  8
0
 10
127.937
 20
117.998
 11
128
 21
118
  0
LINE
  8
0
 10
128
 20
118
 11
128.063
 21
117.998
  0
LINE
  8
0
 10
128.063
 20
117.998
 11
128.125
 21
117.992
  0
LINE
  8
0
 10
128.125
 20
117.992
 11
128.187
 21
117.982
  0
LINE
  8
0
 10
128.187
 20
117.982
 11
128.249
 21
117.969
  0
LINE
  8
0
 10
128.249
 20
117.969
 11
128.309
 21
117.951
  0
LINE
  8
0
 10
128.309
 20
117.951
 11
128.368
 21
117.93
  0
LINE
  8
0
 10
128.368
 20
117.93
 11
128.426
 21
117.905
  0
LINE
  8
0
 10
128.426
 20
117.905
 11
128.482
 21
117.876
  0
LINE
  8
0
 10
128.482
 20
117.876
 11
128.536
 21
117.844
  0
LINE
  8
0
 10
128.536
 20
117.844
 11
128.588
 21
117.809
  0
LINE
  8
0
 10
128.588
 20
117.809
 11
128.637
 21
117.771
  0
LINE
  8
0
 10
128.637
 20
117.771
 11
128.685
 21
117.729
  0
LINE
  8
0
 10
128.685
 20
117.729
 11
128.729
 21
117.685
  0
LINE
  8
0
 10
128.729
 20
117.685
 11
128.771
 21
117.637
  0
LINE
  8
0
 10
128.771
 20
117.637
 11
128.809
 21
117.588
  0
LINE
  8
0
 10
128.809
 20
117.588
 11
128.844
 21
117.536
  0
LINE
  8
0
 10
128.844
 20
117.536
 11
128.876
 21
117.482
  0
LINE
  8
0
 10
128.876
 20
117.482
 11
128.905
 21
117.426
  0
LINE
  8
0
 10
128.905
 20
117.426
 11
128.93
 21
117.368
  0
LINE
  8
0
 10
128.93
 20
117.368
 11
128.951
 21
117.309
  0
LINE
  8
0
 10
128.951
 20
117.309
 11
128.969
 21
117.249
  0
LINE
  8
0
 10
128.969
 20
117.249
 11
128.982
 21
117.187
  0
LINE
  8
0
 10
128.982
 20
117.187
 11
128.992
 21
117.125
  0
LINE
  8
0
 10
128.992
 20
117.125
 11
128.998
 21
117.063
  0
LINE
  8
0
 10
128.998
 20
117.063
 11
129
 21
117
  0
LINE
  8
0
 10
129
 20
117
 11
128.998
 21
116.937
  0
LINE
  8
0
 10
128.998
 20
116.937
 11
128.992
 21
116.875
  0
LINE
  8
0
 10
128.992
 20
116.875
 11
128.982
 21
116.813
  0
LINE
  8
0
 10
128.982
 20
116.813
 11
128.969
 21
116.751
  0
LINE
  8
0
 10
128.969
 20
116.751
 11
128.951
 21
116.691
  0
LINE
  8
0
 10
128.951
 20
116.691
 11
128.93
 21
116.632
  0
LINE
  8
0
 10
128.93
 20
116.632
 11
128.905
 21
116.574
  0
LINE
  8
0
 10
128.905
 20
116.574
 11
128.876
 21
116.518
  0
LINE
  8
0
 10
128.876
 20
116.518
 11
128.844
 21
116.464
  0
LINE
  8
0
 10
128.844
 20
116.464
 11
128.809
 21
116.412
  0
LINE
  8
0
 10
128.809
 20
116.412
 11
128.771
 21
116.363
  0
LINE
  8
0
 10
128.771
 20
116.363
 11
128.729
 21
116.315
  0
LINE
  8
0
 10
128.729
 20
116.315
 11
128.685
 21
116.271
  0
LINE
  8
0
 10
128.685
 20
116.271
 11
128.637
 21
116.229
  0
LINE
  8
0
 10
128.637
 20
116.229
 11
128.588
 21
116.191
  0
LINE
  8
0
 10
128.588
 20
116.191
 11
128.536
 21
116.156
  0
LINE
  8
0
 10
128.536
 20
116.156
 11
128.482
 21
116.124
  0
LINE
  8
0
 10
128.482
 20
116.124
 11
128.426
 21
116.095
  0
LINE
  8
0
 10
128.426
 20
116.095
 11
128.368
 21
116.07
  0
LINE
  8
0
 10
128.368
 20
116.07
 11
128.309
 21
116.049
  0
LINE
  8
0
 10
128.309
 20
116.049
 11
128.249
 21
116.031
  0
LINE
  8
0
 10
128.249
 20
116.031
 11
128.187
 21
116.018
  0
LINE
  8
0
 10
128.187
 20
116.018
 11
128.125
 21
116.008
  0
LINE
  8
0
 10
128.125
 20
116.008
 11
128.063
 21
116.002
  0
LINE
  8
0
 10
128.063
 20
116.002
 11
128
 21
116
  0
LINE
  8
0
 10
128
 20
116
 11
127.937
 21
116.002
  0
LINE
  8
0
 10
84.691
 20
83.4122
 11
84.6557
 21
83.4642
  0
LINE
  8
0
 10
84.6557
 20
83.4642
 11
84.6237
 21
83.5182
  0
LINE
  8
0
 10
84.6237
 20
83.5182
 11
84.5952
 21
83.5742
  0
LINE
  8
0
 10
84.5952
 20
83.5742
 11
84.5702
 21
83.6319
  0
LINE
  8
0
 10
84.5702
 20
83.6319
 11
84.5489
 21
83.691
  0
LINE
  8
0
 10
84.5489
 20
83.691
 11
84.5314
 21
83.7513
  0
LINE
  8
0
 10
84.5314
 20
83.7513
 11
84.5177
 21
83.8126
  0
LINE
  8
0
 10
84.5177
 20
83.8126
 11
84.5079
 21
83.8747
  0
LINE
  8
0
 10
84.5079
 20
83.8747
 11
84.502
 21
83.9372
  0
LINE
  8
0
 10
84.502
 20
83.9372
 11
84.5
 21
84
  0
LINE
  8
0
 10
84.5
 20
84
 11
84.502
 21
84.0628
  0
LINE
  8
0
 10
84.502
 20
84.0628
 11
84.5079
 21
84.1253
  0
LINE
  8
0
 10
84.5079
 20
84.1253
 11
84.5177
 21
84.1874
  0
LINE
  8
0
 10
84.5177
 20
84.1874
 11
84.5314
 21
84.2487
  0
LINE
  8
0
 10
84.5314
 20
84.2487
 11
84.5489
 21
84.309
  0
LINE
  8
0
 10
84.5489
 20
84.309
 11
84.5702
 21
84.3681
  0
LINE
  8
0
 10
84.5702
 20
84.3681
 11
84.5952
 21
84.4258
  0
LINE
  8
0
 10
84.5952
 20
84.4258
 11
84.6237
 21
84.4818
  0
LINE
  8
0
 10
84.6237
 20
84.4818
 11
84.6557
 21
84.5358
  0
LINE
  8
0
 10
84.6557
 20
84.5358
 11
84.691
 21
84.5878
  0
LINE
  8
0
 10
84.691
 20
84.5878
 11
84.7295
 21
84.6374
  0
LINE
  8
0
 10
84.7295
 20
84.6374
 11
84.771
 21
84.6845
  0
LINE
  8
0
 10
84.771
 20
84.6845
 11
84.8154
 21
84.729
  0
LINE
  8
0
 10
84.8154
 20
84.729
 11
84.8626
 21
84.7705
  0
LINE
  8
0
 10
84.8626
 20
84.7705
 11
84.9122
 21
84.809
  0
LINE
  8
0
 10
84.9122
 20
84.809
 11
84.9642
 21
84.8443
  0
LINE
  8
0
 10
84.9642
 20
84.8443
 11
85.0182
 21
84.8763
  0
LINE
  8
0
 10
85.0182
 20
84.8763
 11
85.0742
 21
84.9048
  0
LINE
  8
0
 10
85.0742
 20
84.9048
 11
85.1319
 21
84.9298
  0
LINE
  8
0
 10
85.1319
 20
84.9298
 11
85.191
 21
84.951
  0
LINE
  8
0
 10
85.191
 20
84.951
 11
85.2513
 21
84.9686
  0
LINE
  8
0
 10
85.2513
 20
84.9686
 11
85.3126
 21
84.9823
  0
LINE
  8
0
 10
85.3126
 20
84.9823
 11
85.3747
 21
84.9921
  0
LINE
  8
0
 10
85.3747
 20
84.9921
 11
85.4372
 21
84.998
  0
LINE
  8
0
 10
85.4372
 20
84.998
 11
85.5
 21
85
  0
LINE
  8
0
 10
85.5
 20
85
 11
85.5628
 21
84.998
  0
LINE
  8
0
 10
85.5628
 20
84.998
 11
85.6253
 21
84.9921
  0
LINE
  8
0
 10
85.6253
 20
84.9921
 11
85.6874
 21
84.9823
  0
LINE
  8
0
 10
85.6874
 20
84.9823
 11
85.7487
 21
84.9686
  0
LINE
  8
0
 10
85.7487
 20
84.9686
 11
85.809
 21
84.951
  0
LINE
  8
0
 10
85.809
 20
84.951
 11
85.8681
 21
84.9298
  0
LINE
  8
0
 10
85.8681
 20
84.9298
 11
85.9258
 21
84.9048
  0
LINE
  8
0
 10
85.9258
 20
84.9048
 11
85.9818
 21
84.8763
  0
LINE
  8
0
 10
85.9818
 20
84.8763
 11
86.0358
 21
84.8443
  0
LINE
  8
0
 10
86.0358
 20
84.8443
 11
86.0878
 21
84.809
  0
LINE
  8
0
 10
86.0878
 20
84.809
 11
86.1374
 21
84.7705
  0
LINE
  8
0
 10
86.1374
 20
84.7705
 11
86.1845
 21
84.729
  0
LINE
  8
0
 10
86.1845
 20
84.729
 11
86.229
 21
84.6845
  0
LINE
  8
0
 10
86.229
 20
84.6845
 11
86.2705
 21
84.6374
  0
LINE
  8
0
 10
86.2705
 20
84.6374
 11
86.309
 21
84.5878
  0
LINE
  8
0
 10
86.309
 20
84.5878
 11
86.3443
 21
84.5358
  0
LINE
  8
0
 10
86.3443
 20
84.5358
 11
86.3763
 21
84.4818
  0
LINE
  8
0
 10
86.3763
 20
84.4818
 11
86.4048
 21
84.4258
  0
LINE
  8
0
 10
86.4048
 20
84.4258
 11
86.4298
 21
84.3681
  0
LINE
  8
0
 10
86.4298
 20
84.3681
 11
86.451
 21
84.309
  0
LINE
  8
0
 10
86.451
 20
84.309
 11
86.4686
 21
84.2487
  0
LINE
  8
0
 10
86.4686
 20
84.2487
 11
86.4823
 21
84.1874
  0
LINE
  8
0
 10
86.4823
 20
84.1874
 11
86.4921
 21
84.1253
  0
LINE
  8
0
 10
86.4921
 20
84.1253
 11
86.498
 21
84.0628
  0
LINE
  8
0
 10
86.498
 20
84.0628
 11
86.5
 21
84
  0
LINE
  8
0
 10
86.5
 20
84
 11
86.498
 21
83.9372
  0
LINE
  8
0
 10
86.498
 20
83.9372
 11
86.4921
 21
83.8747
  0
LINE
  8
0
 10
86.4921
 20
83.8747
 11
86.4823
 21
83.8126
  0
LINE
  8
0
 10
86.4823
 20
83.8126
 11
86.4686
 21
83.7513
  0
LINE
  8
0
 10
86.4686
 20
83.7513
 11
86.451
 21
83.691
  0
LINE
  8
0
 10
86.451
 20
83.691
 11
86.4298
 21
83.6319
  0
LINE
  8
0
 10
86.4298
 20
83.6319
 11
86.4048
 21
83.5742
  0
LINE
  8
0
 10
86.4048
 20
83.5742
 11
86.3763
 21
83.5182
  0
LINE
  8
0
 10
86.3763
 20
83.5182
 11
86.3443
 21
83.4642
  0
LINE
  8
0
 10
86.3443
 20
83.4642
 11
86.309
 21
83.4122
  0
LINE
  8
0
 10
86.309
 20
83.4122
 11
86.2705
 21
83.3626
  0
LINE
  8
0
 10
86.2705
 20
83.3626
 11
86.229
 21
83.3154
  0
LINE
  8
0
 10
86.229
 20
83.3154
 11
86.1845
 21
83.271
  0
LINE
  8
0
 10
86.1845
 20
83.271
 11
86.1374
 21
83.2295
  0
LINE
  8
0
 10
86.1374
 20
83.2295
 11
86.0878
 21
83.191
  0
LINE
  8
0
 10
86.0878
 20
83.191
 11
86.0358
 21
83.1557
  0
LINE
  8
0
 10
86.0358
 20
83.1557
 11
85.9818
 21
83.1237
  0
LINE
  8
0
 10
85.9818
 20
83.1237
 11
85.9258
 21
83.0952
  0
LINE
  8
0
 10
85.9258
 20
83.0952
 11
85.8681
 21
83.0702
  0
LINE
  8
0
 10
85.8681
 20
83.0702
 11
85.809
 21
83.0489
  0
LINE
  8
0
 10
85.809
 20
83.0489
 11
85.7487
 21
83.0314
  0
LINE
  8
0
 10
85.7487
 20
83.0314
 11
85.6874
 21
83.0177
  0
LINE
  8
0
 10
85.6874
 20
83.0177
 11
85.6253
 21
83.0079
  0
LINE
  8
0
 10
85.6253
 20
83.0079
 11
85.5628
 21
83.002
  0
LINE
  8
0
 10
85.5628
 20
83.002
 11
85.5
 21
83
  0
LINE
  8
0
 10
85.5
 20
83
 11
85.4372
 21
83.002
  0
LINE
  8
0
 10
85.4372
 20
83.002
 11
85.3747
 21
83.0079
  0
LINE
  8
0
 10
85.3747
 20
83.0079
 11
85.3126
 21
83.0177
  0
LINE
  8
0
 10
85.3126
 20
83.0177
 11
85.2513
 21
83.0314
  0
LINE
  8
0
 10
85.2513
 20
83.0314
 11
85.191
 21
83.0489
  0
LINE
  8
0
 10
85.191
 20
83.0489
 11
85.1319
 21
83.0702
  0
LINE
  8
0
 10
85.1319
 20
83.0702
 11
85.0742
 21
83.0952
  0
LINE
  8
0
 10
85.0742
 20
83.0952
 11
85.0182
 21
83.1237
  0
LINE
  8
0
 10
85.0182
 20
83.1237
 11
84.9642
 21
83.1557
  0
LINE
  8
0
 10
84.9642
 20
83.1557
 11
84.9122
 21
83.191
  0
LINE
  8
0
 10
84.9122
 20
83.191
 11
84.8626
 21
83.2295
  0
LINE
  8
0
 10
84.8626
 20
83.2295
 11
84.8154
 21
83.271
  0
LINE
  8
0
 10
84.8154
 20
83.271
 11
84.771
 21
83.3154
  0
LINE
  8
0
 10
84.771
 20
83.3154
 11
84.7295
 21
83.3626
  0
LINE
  8
0
 10
84.7295
 20
83.3626
 11
84.691
 21
83.4122
  0
LINE
  8
0
 10
9.43719
 20
75.002
 11
9.37466
 21
75.0079
  0
LINE
  8
0
 10
9.37466
 20
75.0079
 11
9.31261
 21
75.0177
  0
LINE
  8
0
 10
9.31261
 20
75.0177
 11
9.2513
 21
75.0314
  0
LINE
  8
0
 10
9.2513
 20
75.0314
 11
9.19098
 21
75.0489
  0
LINE
  8
0
 10
9.19098
 20
75.0489
 11
9.13187
 21
75.0702
  0
LINE
  8
0
 10
9.13187
 20
75.0702
 11
9.07422
 21
75.0952
  0
LINE
  8
0
 10
9.07422
 20
75.0952
 11
9.01823
 21
75.1237
  0
LINE
  8
0
 10
9.01823
 20
75.1237
 11
8.96417
 21
75.1557
  0
LINE
  8
0
 10
8.96417
 20
75.1557
 11
8.9122
 21
75.191
  0
LINE
  8
0
 10
8.9122
 20
75.191
 11
8.86256
 21
75.2295
  0
LINE
  8
0
 10
8.86256
 20
75.2295
 11
8.81544
 21
75.271
  0
LINE
  8
0
 10
8.81544
 20
75.271
 11
8.77103
 21
75.3154
  0
LINE
  8
0
 10
8.77103
 20
75.3154
 11
8.72948
 21
75.3626
  0
LINE
  8
0
 10
8.72948
 20
75.3626
 11
8.69098
 21
75.4122
  0
LINE
  8
0
 10
8.69098
 20
75.4122
 11
8.65567
 21
75.4642
  0
LINE
  8
0
 10
8.65567
 20
75.4642
 11
8.62369
 21
75.5182
  0
LINE
  8
0
 10
8.62369
 20
75.5182
 11
8.59517
 21
75.5742
  0
LINE
  8
0
 10
8.59517
 20
75.5742
 11
8.57022
 21
75.6319
  0
LINE
  8
0
 10
8.57022
 20
75.6319
 11
8.54893
 21
75.691
  0
LINE
  8
0
 10
8.54893
 20
75.691
 11
8.5314
 21
75.7513
  0
LINE
  8
0
 10
8.5314
 20
75.7513
 11
8.5177
 21
75.8126
  0
LINE
  8
0
 10
8.5177
 20
75.8126
 11
8.50787
 21
75.8747
  0
LINE
  8
0
 10
8.50787
 20
75.8747
 11
8.50197
 21
75.9372
  0
LINE
  8
0
 10
8.50197
 20
75.9372
 11
8.5
 21
76
  0
LINE
  8
0
 10
8.5
 20
76
 11
8.50197
 21
76.0628
  0
LINE
  8
0
 10
8.50197
 20
76.0628
 11
8.50787
 21
76.1253
  0
LINE
  8
0
 10
8.50787
 20
76.1253
 11
8.5177
 21
76.1874
  0
LINE
  8
0
 10
8.5177
 20
76.1874
 11
8.5314
 21
76.2487
  0
LINE
  8
0
 10
8.5314
 20
76.2487
 11
8.54893
 21
76.309
  0
LINE
  8
0
 10
8.54893
 20
76.309
 11
8.57022
 21
76.3681
  0
LINE
  8
0
 10
8.57022
 20
76.3681
 11
8.59517
 21
76.4258
  0
LINE
  8
0
 10
8.59517
 20
76.4258
 11
8.62369
 21
76.4818
  0
LINE
  8
0
 10
8.62369
 20
76.4818
 11
8.65567
 21
76.5358
  0
LINE
  8
0
 10
8.65567
 20
76.5358
 11
8.69098
 21
76.5878
  0
LINE
  8
0
 10
8.69098
 20
76.5878
 11
8.72948
 21
76.6374
  0
LINE
  8
0
 10
8.72948
 20
76.6374
 11
8.77103
 21
76.6845
  0
LINE
  8
0
 10
8.77103
 20
76.6845
 11
8.81544
 21
76.729
  0
LINE
  8
0
 10
8.81544
 20
76.729
 11
8.86256
 21
76.7705
  0
LINE
  8
0
 10
8.86256
 20
76.7705
 11
8.9122
 21
76.809
  0
LINE
  8
0
 10
8.9122
 20
76.809
 11
8.96417
 21
76.8443
  0
LINE
  8
0
 10
8.96417
 20
76.8443
 11
9.01823
 21
76.8763
  0
LINE
  8
0
 10
9.01823
 20
76.8763
 11
9.07422
 21
76.9048
  0
LINE
  8
0
 10
9.07422
 20
76.9048
 11
9.13187
 21
76.9298
  0
LINE
  8
0
 10
9.13187
 20
76.9298
 11
9.19098
 21
76.951
  0
LINE
  8
0
 10
9.19098
 20
76.951
 11
9.2513
 21
76.9686
  0
LINE
  8
0
 10
9.2513
 20
76.9686
 11
9.31261
 21
76.9823
  0
LINE
  8
0
 10
9.31261
 20
76.9823
 11
9.37466
 21
76.9921
  0
LINE
  8
0
 10
9.37466
 20
76.9921
 11
9.43719
 21
76.998
  0
LINE
  8
0
 10
9.43719
 20
76.998
 11
9.5
 21
77
  0
LINE
  8
0
 10
9.5
 20
77
 11
9.56279
 21
76.998
  0
LINE
  8
0
 10
9.56279
 20
76.998
 11
9.62532
 21
76.9921
  0
LINE
  8
0
 10
9.62532
 20
76.9921
 11
9.68738
 21
76.9823
  0
LINE
  8
0
 10
9.68738
 20
76.9823
 11
9.74869
 21
76.9686
  0
LINE
  8
0
 10
9.74869
 20
76.9686
 11
9.80901
 21
76.951
  0
LINE
  8
0
 10
9.80901
 20
76.951
 11
9.86812
 21
76.9298
  0
LINE
  8
0
 10
9.86812
 20
76.9298
 11
9.92577
 21
76.9048
  0
LINE
  8
0
 10
9.92577
 20
76.9048
 11
9.98175
 21
76.8763
  0
LINE
  8
0
 10
9.98175
 20
76.8763
 11
10.0358
 21
76.8443
  0
LINE
  8
0
 10
10.0358
 20
76.8443
 11
10.0878
 21
76.809
  0
LINE
  8
0
 10
10.0878
 20
76.809
 11
10.1374
 21
76.7705
  0
LINE
  8
0
 10
10.1374
 20
76.7705
 11
10.1845
 21
76.729
  0
LINE
  8
0
 10
10.1845
 20
76.729
 11
10.229
 21
76.6845
  0
LINE
  8
0
 10
10.229
 20
76.6845
 11
10.2705
 21
76.6374
  0
LINE
  8
0
 10
10.2705
 20
76.6374
 11
10.309
 21
76.5878
  0
LINE
  8
0
 10
10.309
 20
76.5878
 11
10.3443
 21
76.5358
  0
LINE
  8
0
 10
10.3443
 20
76.5358
 11
10.3763
 21
76.4818
  0
LINE
  8
0
 10
10.3763
 20
76.4818
 11
10.4048
 21
76.4258
  0
LINE
  8
0
 10
10.4048
 20
76.4258
 11
10.4298
 21
76.3681
  0
LINE
  8
0
 10
10.4298
 20
76.3681
 11
10.451
 21
76.309
  0
LINE
  8
0
 10
10.451
 20
76.309
 11
10.4686
 21
76.2487
  0
LINE
  8
0
 10
10.4686
 20
76.2487
 11
10.4823
 21
76.1874
  0
LINE
  8
0
 10
10.4823
 20
76.1874
 11
10.4921
 21
76.1253
  0
LINE
  8
0
 10
10.4921
 20
76.1253
 11
10.498
 21
76.0628
  0
LINE
  8
0
 10
10.498
 20
76.0628
 11
10.5
 21
76
  0
LINE
  8
0
 10
10.5
 20
76
 11
10.498
 21
75.9372
  0
LINE
  8
0
 10
10.498
 20
75.9372
 11
10.4921
 21
75.8747
  0
LINE
  8
0
 10
10.4921
 20
75.8747
 11
10.4823
 21
75.8126
  0
LINE
  8
0
 10
10.4823
 20
75.8126
 11
10.4686
 21
75.7513
  0
LINE
  8
0
 10
10.4686
 20
75.7513
 11
10.451
 21
75.691
  0
LINE
  8
0
 10
10.451
 20
75.691
 11
10.4298
 21
75.6319
  0
LINE
  8
0
 10
10.4298
 20
75.6319
 11
10.4048
 21
75.5742
  0
LINE
  8
0
 10
10.4048
 20
75.5742
 11
10.3763
 21
75.5182
  0
LINE
  8
0
 10
10.3763
 20
75.5182
 11
10.3443
 21
75.4642
  0
LINE
  8
0
 10
10.3443
 20
75.4642
 11
10.309
 21
75.4122
  0
LINE
  8
0
 10
10.309
 20
75.4122
 11
10.2705
 21
75.3626
  0
LINE
  8
0
 10
10.2705
 20
75.3626
 11
10.229
 21
75.3154
  0
LINE
  8
0
 10
10.229
 20
75.3154
 11
10.1845
 21
75.271
  0
LINE
  8
0
 10
10.1845
 20
75.271
 11
10.1374
 21
75.2295
  0
LINE
  8
0
 10
10.1374
 20
75.2295
 11
10.0878
 21
75.191
  0
LINE
  8
0
 10
10.0878
 20
75.191
 11
10.0358
 21
75.1557
  0
LINE
  8
0
 10
10.0358
 20
75.1557
 11
9.98175
 21
75.1237
  0
LINE
  8
0
 10
9.98175
 20
75.1237
 11
9.92577
 21
75.0952
  0
LINE
  8
0
 10
9.92577
 20
75.0952
 11
9.86812
 21
75.0702
  0
LINE
  8
0
 10
9.86812
 20
75.0702
 11
9.80901
 21
75.0489
  0
LINE
  8
0
 10
9.80901
 20
75.0489
 11
9.74869
 21
75.0314
  0
LINE
  8
0
 10
9.74869
 20
75.0314
 11
9.68738
 21
75.0177
  0
LINE
  8
0
 10
9.68738
 20
75.0177
 11
9.62532
 21
75.0079
  0
LINE
  8
0
 10
9.62532
 20
75.0079
 11
9.56279
 21
75.002
  0
LINE
  8
0
 10
9.56279
 20
75.002
 11
9.5
 21
75
  0
LINE
  8
0
 10
9.5
 20
75
 11
9.43719
 21
75.002
  0
LINE
  8
0
 10
123.437
 20
75.002
 11
123.375
 21
75.0079
  0
LINE
  8
0
 10
123.375
 20
75.0079
 11
123.313
 21
75.0177
  0
LINE
  8
0
 10
123.313
 20
75.0177
 11
123.251
 21
75.0314
  0
LINE
  8
0
 10
123.251
 20
75.0314
 11
123.191
 21
75.0489
  0
LINE
  8
0
 10
123.191
 20
75.0489
 11
123.132
 21
75.0702
  0
LINE
  8
0
 10
123.132
 20
75.0702
 11
123.074
 21
75.0952
  0
LINE
  8
0
 10
123.074
 20
75.0952
 11
123.018
 21
75.1237
  0
LINE
  8
0
 10
123.018
 20
75.1237
 11
122.964
 21
75.1557
  0
LINE
  8
0
 10
122.964
 20
75.1557
 11
122.912
 21
75.191
  0
LINE
  8
0
 10
122.912
 20
75.191
 11
122.863
 21
75.2295
  0
LINE
  8
0
 10
122.863
 20
75.2295
 11
122.815
 21
75.271
  0
LINE
  8
0
 10
122.815
 20
75.271
 11
122.771
 21
75.3154
  0
LINE
  8
0
 10
122.771
 20
75.3154
 11
122.729
 21
75.3626
  0
LINE
  8
0
 10
122.729
 20
75.3626
 11
122.691
 21
75.4122
  0
LINE
  8
0
 10
122.691
 20
75.4122
 11
122.656
 21
75.4642
  0
LINE
  8
0
 10
122.656
 20
75.4642
 11
122.624
 21
75.5182
  0
LINE
  8
0
 10
122.624
 20
75.5182
 11
122.595
 21
75.5742
  0
LINE
  8
0
 10
122.595
 20
75.5742
 11
122.57
 21
75.6319
  0
LINE
  8
0
 10
122.57
 20
75.6319
 11
122.549
 21
75.691
  0
LINE
  8
0
 10
122.549
 20
75.691
 11
122.531
 21
75.7513
  0
LINE
  8
0
 10
122.531
 20
75.7513
 11
122.518
 21
75.8126
  0
LINE
  8
0
 10
122.518
 20
75.8126
 11
122.508
 21
75.8747
  0
LINE
  8
0
 10
122.508
 20
75.8747
 11
122.502
 21
75.9372
  0
LINE
  8
0
 10
122.502
 20
75.9372
 11
122.5
 21
76
  0
LINE
  8
0
 10
122.5
 20
76
 11
122.502
 21
76.0628
  0
LINE
  8
0
 10
122.502
 20
76.0628
 11
122.508
 21
76.1253
  0
LINE
  8
0
 10
122.508
 20
76.1253
 11
122.518
 21
76.1874
  0
LINE
  8
0
 10
122.518
 20
76.1874
 11
122.531
 21
76.2487
  0
LINE
  8
0
 10
122.531
 20
76.2487
 11
122.549
 21
76.309
  0
LINE
  8
0
 10
122.549
 20
76.309
 11
122.57
 21
76.3681
  0
LINE
  8
0
 10
122.57
 20
76.3681
 11
122.595
 21
76.4258
  0
LINE
  8
0
 10
122.595
 20
76.4258
 11
122.624
 21
76.4818
  0
LINE
  8
0
 10
122.624
 20
76.4818
 11
122.656
 21
76.5358
  0
LINE
  8
0
 10
122.656
 20
76.5358
 11
122.691
 21
76.5878
  0
LINE
  8
0
 10
122.691
 20
76.5878
 11
122.729
 21
76.6374
  0
LINE
  8
0
 10
122.729
 20
76.6374
 11
122.771
 21
76.6845
  0
LINE
  8
0
 10
122.771
 20
76.6845
 11
122.815
 21
76.729
  0
LINE
  8
0
 10
122.815
 20
76.729
 11
122.863
 21
76.7705
  0
LINE
  8
0
 10
122.863
 20
76.7705
 11
122.912
 21
76.809
  0
LINE
  8
0
 10
122.912
 20
76.809
 11
122.964
 21
76.8443
  0
LINE
  8
0
 10
122.964
 20
76.8443
 11
123.018
 21
76.8763
  0
LINE
  8
0
 10
123.018
 20
76.8763
 11
123.074
 21
76.9048
  0
LINE
  8
0
 10
123.074
 20
76.9048
 11
123.132
 21
76.9298
  0
LINE
  8
0
 10
123.132
 20
76.9298
 11
123.191
 21
76.951
  0
LINE
  8
0
 10
123.191
 20
76.951
 11
123.251
 21
76.9686
  0
LINE
  8
0
 10
123.251
 20
76.9686
 11
123.313
 21
76.9823
  0
LINE
  8
0
 10
123.313
 20
76.9823
 11
123.375
 21
76.9921
  0
LINE
  8
0
 10
123.375
 20
76.9921
 11
123.437
 21
76.998
  0
LINE
  8
0
 10
123.437
 20
76.998
 11
123.5
 21
77
  0
LINE
  8
0
 10
123.5
 20
77
 11
123.563
 21
76.998
  0
LINE
  8
0
 10
123.563
 20
76.998
 11
123.625
 21
76.9921
  0
LINE
  8
0
 10
123.625
 20
76.9921
 11
123.687
 21
76.9823
  0
LINE
  8
0
 10
123.687
 20
76.9823
 11
123.749
 21
76.9686
  0
LINE
  8
0
 10
123.749
 20
76.9686
 11
123.809
 21
76.951
  0
LINE
  8
0
 10
123.809
 20
76.951
 11
123.868
 21
76.9298
  0
LINE
  8
0
 10
123.868
 20
76.9298
 11
123.926
 21
76.9048
  0
LINE
  8
0
 10
123.926
 20
76.9048
 11
123.982
 21
76.8763
  0
LINE
  8
0
 10
123.982
 20
76.8763
 11
124.036
 21
76.8443
  0
LINE
  8
0
 10
124.036
 20
76.8443
 11
124.088
 21
76.809
  0
LINE
  8
0
 10
124.088
 20
76.809
 11
124.137
 21
76.7705
  0
LINE
  8
0
 10
124.137
 20
76.7705
 11
124.185
 21
76.729
  0
LINE
  8
0
 10
124.185
 20
76.729
 11
124.229
 21
76.6845
  0
LINE
  8
0
 10
124.229
 20
76.6845
 11
124.271
 21
76.6374
  0
LINE
  8
0
 10
124.271
 20
76.6374
 11
124.309
 21
76.5878
  0
LINE
  8
0
 10
124.309
 20
76.5878
 11
124.344
 21
76.5358
  0
LINE
  8
0
 10
124.344
 20
76.5358
 11
124.376
 21
76.4818
  0
LINE
  8
0
 10
124.376
 20
76.4818
 11
124.405
 21
76.4258
  0
LINE
  8
0
 10
124.405
 20
76.4258
 11
124.43
 21
76.3681
  0
LINE
  8
0
 10
124.43
 20
76.3681
 11
124.451
 21
76.309
  0
LINE
  8
0
 10
124.451
 20
76.309
 11
124.469
 21
76.2487
  0
LINE
  8
0
 10
124.469
 20
76.2487
 11
124.482
 21
76.1874
  0
LINE
  8
0
 10
124.482
 20
76.1874
 11
124.492
 21
76.1253
  0
LINE
  8
0
 10
124.492
 20
76.1253
 11
124.498
 21
76.0628
  0
LINE
  8
0
 10
124.498
 20
76.0628
 11
124.5
 21
76
  0
LINE
  8
0
 10
124.5
 20
76
 11
124.498
 21
75.9372
  0
LINE
  8
0
 10
124.498
 20
75.9372
 11
124.492
 21
75.8747
  0
LINE
  8
0
 10
124.492
 20
75.8747
 11
124.482
 21
75.8126
  0
LINE
  8
0
 10
124.482
 20
75.8126
 11
124.469
 21
75.7513
  0
LINE
  8
0
 10
124.469
 20
75.7513
 11
124.451
 21
75.691
  0
LINE
  8
0
 10
124.451
 20
75.691
 11
124.43
 21
75.6319
  0
LINE
  8
0
 10
124.43
 20
75.6319
 11
124.405
 21
75.5742
  0
LINE
  8
0
 10
124.405
 20
75.5742
 11
124.376
 21
75.5182
  0
LINE
  8
0
 10
124.376
 20
75.5182
 11
124.344
 21
75.4642
  0
LINE
  8
0
 10
124.344
 20
75.4642
 11
124.309
 21
75.4122
  0
LINE
  8
0
 10
124.309
 20
75.4122
 11
124.271
 21
75.3626
  0
LINE
  8
0
 10
124.271
 20
75.3626
 11
124.229
 21
75.3154
  0
LINE
  8
0
 10
124.229
 20
75.3154
 11
124.185
 21
75.271
  0
LINE
  8
0
 10
124.185
 20
75.271
 11
124.137
 21
75.2295
  0
LINE
  8
0
 10
124.137
 20
75.2295
 11
124.088
 21
75.191
  0
LINE
  8
0
 10
124.088
 20
75.191
 11
124.036
 21
75.1557
  0
LINE
  8
0
 10
124.036
 20
75.1557
 11
123.982
 21
75.1237
  0
LINE
  8
0
 10
123.982
 20
75.1237
 11
123.926
 21
75.0952
  0
LINE
  8
0
 10
123.926
 20
75.0952
 11
123.868
 21
75.0702
  0
LINE
  8
0
 10
123.868
 20
75.0702
 11
123.809
 21
75.0489
  0
LINE
  8
0
 10
123.809
 20
75.0489
 11
123.749
 21
75.0314
  0
LINE
  8
0
 10
123.749
 20
75.0314
 11
123.687
 21
75.0177
  0
LINE
  8
0
 10
123.687
 20
75.0177
 11
123.625
 21
75.0079
  0
LINE
  8
0
 10
123.625
 20
75.0079
 11
123.563
 21
75.002
  0
LINE
  8
0
 10
123.563
 20
75.002
 11
123.5
 21
75
  0
LINE
  8
0
 10
123.5
 20
75
 11
123.437
 21
75.002
  0
LINE
  8
0
 10
85.4372
 20
45.002
 11
85.3747
 21
45.0079
  0
LINE
  8
0
 10
85.3747
 20
45.0079
 11
85.3126
 21
45.0177
  0
LINE
  8
0
 10
85.3126
 20
45.0177
 11
85.2513
 21
45.0314
  0
LINE
  8
0
 10
85.2513
 20
45.0314
 11
85.191
 21
45.0489
  0
LINE
  8
0
 10
85.191
 20
45.0489
 11
85.1319
 21
45.0702
  0
LINE
  8
0
 10
85.1319
 20
45.0702
 11
85.0742
 21
45.0952
  0
LINE
  8
0
 10
85.0742
 20
45.0952
 11
85.0182
 21
45.1237
  0
LINE
  8
0
 10
85.0182
 20
45.1237
 11
84.9642
 21
45.1557
  0
LINE
  8
0
 10
84.9642
 20
45.1557
 11
84.9122
 21
45.191
  0
LINE
  8
0
 10
84.9122
 20
45.191
 11
84.8626
 21
45.2295
  0
LINE
  8
0
 10
84.8626
 20
45.2295
 11
84.8154
 21
45.271
  0
LINE
  8
0
 10
84.8154
 20
45.271
 11
84.771
 21
45.3154
  0
LINE
  8
0
 10
84.771
 20
45.3154
 11
84.7295
 21
45.3626
  0
LINE
  8
0
 10
84.7295
 20
45.3626
 11
84.691
 21
45.4122
  0
LINE
  8
0
 10
84.691
 20
45.4122
 11
84.6557
 21
45.4642
  0
LINE
  8
0
 10
84.6557
 20
45.4642
 11
84.6237
 21
45.5182
  0
LINE
  8
0
 10
84.6237
 20
45.5182
 11
84.5952
 21
45.5742
  0
LINE
  8
0
 10
84.5952
 20
45.5742
 11
84.5702
 21
45.6319
  0
LINE
  8
0
 10
84.5702
 20
45.6319
 11
84.5489
 21
45.691
  0
LINE
  8
0
 10
84.5489
 20
45.691
 11
84.5314
 21
45.7513
  0
LINE
  8
0
 10
84.5314
 20
45.7513
 11
84.5177
 21
45.8126
  0
LINE
  8
0
 10
84.5177
 20
45.8126
 11
84.5079
 21
45.8747
  0
LINE
  8
0
 10
84.5079
 20
45.8747
 11
84.502
 21
45.9372
  0
LINE
  8
0
 10
84.502
 20
45.9372
 11
84.5
 21
46
  0
LINE
  8
0
 10
84.5
 20
46
 11
84.502
 21
46.0628
  0
LINE
  8
0
 10
84.502
 20
46.0628
 11
84.5079
 21
46.1253
  0
LINE
  8
0
 10
84.5079
 20
46.1253
 11
84.5177
 21
46.1874
  0
LINE
  8
0
 10
84.5177
 20
46.1874
 11
84.5314
 21
46.2487
  0
LINE
  8
0
 10
84.5314
 20
46.2487
 11
84.5489
 21
46.309
  0
LINE
  8
0
 10
84.5489
 20
46.309
 11
84.5702
 21
46.3681
  0
LINE
  8
0
 10
84.5702
 20
46.3681
 11
84.5952
 21
46.4258
  0
LINE
  8
0
 10
84.5952
 20
46.4258
 11
84.6237
 21
46.4818
  0
LINE
  8
0
 10
84.6237
 20
46.4818
 11
84.6557
 21
46.5358
  0
LINE
  8
0
 10
84.6557
 20
46.5358
 11
84.691
 21
46.5878
  0
LINE
  8
0
 10
84.691
 20
46.5878
 11
84.7295
 21
46.6374
  0
LINE
  8
0
 10
84.7295
 20
46.6374
 11
84.771
 21
46.6845
  0
LINE
  8
0
 10
84.771
 20
46.6845
 11
84.8154
 21
46.729
  0
LINE
  8
0
 10
84.8154
 20
46.729
 11
84.8626
 21
46.7705
  0
LINE
  8
0
 10
84.8626
 20
46.7705
 11
84.9122
 21
46.809
  0
LINE
  8
0
 10
84.9122
 20
46.809
 11
84.9642
 21
46.8443
  0
LINE
  8
0
 10
84.9642
 20
46.8443
 11
85.0182
 21
46.8763
  0
LINE
  8
0
 10
85.0182
 20
46.8763
 11
85.0742
 21
46.9048
  0
LINE
  8
0
 10
85.0742
 20
46.9048
 11
85.1319
 21
46.9298
  0
LINE
  8
0
 10
85.1319
 20
46.9298
 11
85.191
 21
46.951
  0
LINE
  8
0
 10
85.191
 20
46.951
 11
85.2513
 21
46.9686
  0
LINE
  8
0
 10
85.2513
 20
46.9686
 11
85.3126
 21
46.9823
  0
LINE
  8
0
 10
85.3126
 20
46.9823
 11
85.3747
 21
46.9921
  0
LINE
  8
0
 10
85.3747
 20
46.9921
 11
85.4372
 21
46.998
  0
LINE
  8
0
 10
85.4372
 20
46.998
 11
85.5
 21
47
  0
LINE
  8
0
 10
85.5
 20
47
 11
85.5628
 21
46.998
  0
LINE
  8
0
 10
85.5628
 20
46.998
 11
85.6253
 21
46.9921
  0
LINE
  8
0
 10
85.6253
 20
46.9921
 11
85.6874
 21
46.9823
  0
LINE
  8
0
 10
85.6874
 20
46.9823
 11
85.7487
 21
46.9686
  0
LINE
  8
0
 10
85.7487
 20
46.9686
 11
85.809
 21
46.951
  0
LINE
  8
0
 10
85.809
 20
46.951
 11
85.8681
 21
46.9298
  0
LINE
  8
0
 10
85.8681
 20
46.9298
 11
85.9258
 21
46.9048
  0
LINE
  8
0
 10
85.9258
 20
46.9048
 11
85.9818
 21
46.8763
  0
LINE
  8
0
 10
85.9818
 20
46.8763
 11
86.0358
 21
46.8443
  0
LINE
  8
0
 10
86.0358
 20
46.8443
 11
86.0878
 21
46.809
  0
LINE
  8
0
 10
86.0878
 20
46.809
 11
86.1374
 21
46.7705
  0
LINE
  8
0
 10
86.1374
 20
46.7705
 11
86.1845
 21
46.729
  0
LINE
  8
0
 10
86.1845
 20
46.729
 11
86.229
 21
46.6845
  0
LINE
  8
0
 10
86.229
 20
46.6845
 11
86.2705
 21
46.6374
  0
LINE
  8
0
 10
86.2705
 20
46.6374
 11
86.309
 21
46.5878
  0
LINE
  8
0
 10
86.309
 20
46.5878
 11
86.3443
 21
46.5358
  0
LINE
  8
0
 10
86.3443
 20
46.5358
 11
86.3763
 21
46.4818
  0
LINE
  8
0
 10
86.3763
 20
46.4818
 11
86.4048
 21
46.4258
  0
LINE
  8
0
 10
86.4048
 20
46.4258
 11
86.4298
 21
46.3681
  0
LINE
  8
0
 10
86.4298
 20
46.3681
 11
86.451
 21
46.309
  0
LINE
  8
0
 10
86.451
 20
46.309
 11
86.4686
 21
46.2487
  0
LINE
  8
0
 10
86.4686
 20
46.2487
 11
86.4823
 21
46.1874
  0
LINE
  8
0
 10
86.4823
 20
46.1874
 11
86.4921
 21
46.1253
  0
LINE
  8
0
 10
86.4921
 20
46.1253
 11
86.498
 21
46.0628
  0
LINE
  8
0
 10
86.498
 20
46.0628
 11
86.5
 21
46
  0
LINE
  8
0
 10
86.5
 20
46
 11
86.498
 21
45.9372
  0
LINE
  8
0
 10
86.498
 20
45.9372
 11
86.4921
 21
45.8747
  0
LINE
  8
0
 10
86.4921
 20
45.8747
 11
86.4823
 21
45.8126
  0
LINE
  8
0
 10
86.4823
 20
45.8126
 11
86.4686
 21
45.7513
  0
LINE
  8
0
 10
86.4686
 20
45.7513
 11
86.451
 21
45.691
  0
LINE
  8
0
 10
86.451
 20
45.691
 11
86.4298
 21
45.6319
  0
LINE
  8
0
 10
86.4298
 20
45.6319
 11
86.4048
 21
45.5742
  0
LINE
  8
0
 10
86.4048
 20
45.5742
 11
86.3763
 21
45.5182
  0
LINE
  8
0
 10
86.3763
 20
45.5182
 11
86.3443
 21
45.4642
  0
LINE
  8
0
 10
86.3443
 20
45.4642
 11
86.309
 21
45.4122
  0
LINE
  8
0
 10
86.309
 20
45.4122
 11
86.2705
 21
45.3626
  0
LINE
  8
0
 10
86.2705
 20
45.3626
 11
86.229
 21
45.3154
  0
LINE
  8
0
 10
86.229
 20
45.3154
 11
86.1845
 21
45.271
  0
LINE
  8
0
 10
86.1845
 20
45.271
 11
86.1374
 21
45.2295
  0
LINE
  8
0
 10
86.1374
 20
45.2295
 11
86.0878
 21
45.191
  0
LINE
  8
0
 10
86.0878
 20
45.191
 11
86.0358
 21
45.1557
  0
LINE
  8
0
 10
86.0358
 20
45.1557
 11
85.9818
 21
45.1237
  0
LINE
  8
0
 10
85.9818
 20
45.1237
 11
85.9258
 21
45.0952
  0
LINE
  8
0
 10
85.9258
 20
45.0952
 11
85.8681
 21
45.0702
  0
LINE
  8
0
 10
85.8681
 20
45.0702
 11
85.809
 21
45.0489
  0
LINE
  8
0
 10
85.809
 20
45.0489
 11
85.7487
 21
45.0314
  0
LINE
  8
0
 10
85.7487
 20
45.0314
 11
85.6874
 21
45.0177
  0
LINE
  8
0
 10
85.6874
 20
45.0177
 11
85.6253
 21
45.0079
  0
LINE
  8
0
 10
85.6253
 20
45.0079
 11
85.5628
 21
45.002
  0
LINE
  8
0
 10
85.5628
 20
45.002
 11
85.5
 21
45
  0
LINE
  8
0
 10
85.5
 20
45
 11
85.4372
 21
45.002
  0
LINE
  8
0
 10
47.4372
 20
45.002
 11
47.3747
 21
45.0079
  0
LINE
  8
0
 10
47.3747
 20
45.0079
 11
47.3126
 21
45.0177
  0
LINE
  8
0
 10
47.3126
 20
45.0177
 11
47.2513
 21
45.0314
  0
LINE
  8
0
 10
47.2513
 20
45.0314
 11
47.191
 21
45.0489
  0
LINE
  8
0
 10
47.191
 20
45.0489
 11
47.1319
 21
45.0702
  0
LINE
  8
0
 10
47.1319
 20
45.0702
 11
47.0742
 21
45.0952
  0
LINE
  8
0
 10
47.0742
 20
45.0952
 11
47.0182
 21
45.1237
  0
LINE
  8
0
 10
47.0182
 20
45.1237
 11
46.9642
 21
45.1557
  0
LINE
  8
0
 10
46.9642
 20
45.1557
 11
46.9122
 21
45.191
  0
LINE
  8
0
 10
46.9122
 20
45.191
 11
46.8626
 21
45.2295
  0
LINE
  8
0
 10
46.8626
 20
45.2295
 11
46.8154
 21
45.271
  0
LINE
  8
0
 10
46.8154
 20
45.271
 11
46.771
 21
45.3154
  0
LINE
  8
0
 10
46.771
 20
45.3154
 11
46.7295
 21
45.3626
  0
LINE
  8
0
 10
46.7295
 20
45.3626
 11
46.691
 21
45.4122
  0
LINE
  8
0
 10
46.691
 20
45.4122
 11
46.6557
 21
45.4642
  0
LINE
  8
0
 10
46.6557
 20
45.4642
 11
46.6237
 21
45.5182
  0
LINE
  8
0
 10
46.6237
 20
45.5182
 11
46.5952
 21
45.5742
  0
LINE
  8
0
 10
46.5952
 20
45.5742
 11
46.5702
 21
45.6319
  0
LINE
  8
0
 10
46.5702
 20
45.6319
 11
46.5489
 21
45.691
  0
LINE
  8
0
 10
46.5489
 20
45.691
 11
46.5314
 21
45.7513
  0
LINE
  8
0
 10
46.5314
 20
45.7513
 11
46.5177
 21
45.8126
  0
LINE
  8
0
 10
46.5177
 20
45.8126
 11
46.5079
 21
45.8747
  0
LINE
  8
0
 10
46.5079
 20
45.8747
 11
46.502
 21
45.9372
  0
LINE
  8
0
 10
46.502
 20
45.9372
 11
46.5
 21
46
  0
LINE
  8
0
 10
46.5
 20
46
 11
46.502
 21
46.0628
  0
LINE
  8
0
 10
46.502
 20
46.0628
 11
46.5079
 21
46.1253
  0
LINE
  8
0
 10
46.5079
 20
46.1253
 11
46.5177
 21
46.1874
  0
LINE
  8
0
 10
46.5177
 20
46.1874
 11
46.5314
 21
46.2487
  0
LINE
  8
0
 10
46.5314
 20
46.2487
 11
46.5489
 21
46.309
  0
LINE
  8
0
 10
46.5489
 20
46.309
 11
46.5702
 21
46.3681
  0
LINE
  8
0
 10
46.5702
 20
46.3681
 11
46.5952
 21
46.4258
  0
LINE
  8
0
 10
46.5952
 20
46.4258
 11
46.6237
 21
46.4818
  0
LINE
  8
0
 10
46.6237
 20
46.4818
 11
46.6557
 21
46.5358
  0
LINE
  8
0
 10
46.6557
 20
46.5358
 11
46.691
 21
46.5878
  0
LINE
  8
0
 10
46.691
 20
46.5878
 11
46.7295
 21
46.6374
  0
LINE
  8
0
 10
46.7295
 20
46.6374
 11
46.771
 21
46.6845
  0
LINE
  8
0
 10
46.771
 20
46.6845
 11
46.8154
 21
46.729
  0
LINE
  8
0
 10
46.8154
 20
46.729
 11
46.8626
 21
46.7705
  0
LINE
  8
0
 10
46.8626
 20
46.7705
 11
46.9122
 21
46.809
  0
LINE
  8
0
 10
46.9122
 20
46.809
 11
46.9642
 21
46.8443
  0
LINE
  8
0
 10
46.9642
 20
46.8443
 11
47.0182
 21
46.8763
  0
LINE
  8
0
 10
47.0182
 20
46.8763
 11
47.0742
 21
46.9048
  0
LINE
  8
0
 10
47.0742
 20
46.9048
 11
47.1319
 21
46.9298
  0
LINE
  8
0
 10
47.1319
 20
46.9298
 11
47.191
 21
46.951
  0
LINE
  8
0
 10
47.191
 20
46.951
 11
47.2513
 21
46.9686
  0
LINE
  8
0
 10
47.2513
 20
46.9686
 11
47.3126
 21
46.9823
  0
LINE
  8
0
 10
47.3126
 20
46.9823
 11
47.3747
 21
46.9921
  0
LINE
  8
0
 10
47.3747
 20
46.9921
 11
47.4372
 21
46.998
  0
LINE
  8
0
 10
47.4372
 20
46.998
 11
47.5
 21
47
  0
LINE
  8
0
 10
47.5
 20
47
 11
47.5628
 21
46.998
  0
LINE
  8
0
 10
47.5628
 20
46.998
 11
47.6253
 21
46.9921
  0
LINE
  8
0
 10
47.6253
 20
46.9921
 11
47.6874
 21
46.9823
  0
LINE
  8
0
 10
47.6874
 20
46.9823
 11
47.7487
 21
46.9686
  0
LINE
  8
0
 10
47.7487
 20
46.9686
 11
47.809
 21
46.951
  0
LINE
  8
0
 10
47.809
 20
46.951
 11
47.8681
 21
46.9298
  0
LINE
  8
0
 10
47.8681
 20
46.9298
 11
47.9258
 21
46.9048
  0
LINE
  8
0
 10
47.9258
 20
46.9048
 11
47.9818
 21
46.8763
  0
LINE
  8
0
 10
47.9818
 20
46.8763
 11
48.0358
 21
46.8443
  0
LINE
  8
0
 10
48.0358
 20
46.8443
 11
48.0878
 21
46.809
  0
LINE
  8
0
 10
48.0878
 20
46.809
 11
48.1374
 21
46.7705
  0
LINE
  8
0
 10
48.1374
 20
46.7705
 11
48.1845
 21
46.729
  0
LINE
  8
0
 10
48.1845
 20
46.729
 11
48.229
 21
46.6845
  0
LINE
  8
0
 10
48.229
 20
46.6845
 11
48.2705
 21
46.6374
  0
LINE
  8
0
 10
48.2705
 20
46.6374
 11
48.309
 21
46.5878
  0
LINE
  8
0
 10
48.309
 20
46.5878
 11
48.3443
 21
46.5358
  0
LINE
  8
0
 10
48.3443
 20
46.5358
 11
48.3763
 21
46.4818
  0
LINE
  8
0
 10
48.3763
 20
46.4818
 11
48.4048
 21
46.4258
  0
LINE
  8
0
 10
48.4048
 20
46.4258
 11
48.4298
 21
46.3681
  0
LINE
  8
0
 10
48.4298
 20
46.3681
 11
48.451
 21
46.309
  0
LINE
  8
0
 10
48.451
 20
46.309
 11
48.4686
 21
46.2487
  0
LINE
  8
0
 10
48.4686
 20
46.2487
 11
48.4823
 21
46.1874
  0
LINE
  8
0
 10
48.4823
 20
46.1874
 11
48.4921
 21
46.1253
  0
LINE
  8
0
 10
48.4921
 20
46.1253
 11
48.498
 21
46.0628
  0
LINE
  8
0
 10
48.498
 20
46.0628
 11
48.5
 21
46
  0
LINE
  8
0
 10
48.5
 20
46
 11
48.498
 21
45.9372
  0
LINE
  8
0
 10
48.498
 20
45.9372
 11
48.4921
 21
45.8747
  0
LINE
  8
0
 10
48.4921
 20
45.8747
 11
48.4823
 21
45.8126
  0
LINE
  8
0
 10
48.4823
 20
45.8126
 11
48.4686
 21
45.7513
  0
LINE
  8
0
 10
48.4686
 20
45.7513
 11
48.451
 21
45.691
  0
LINE
  8
0
 10
48.451
 20
45.691
 11
48.4298
 21
45.6319
  0
LINE
  8
0
 10
48.4298
 20
45.6319
 11
48.4048
 21
45.5742
  0
LINE
  8
0
 10
48.4048
 20
45.5742
 11
48.3763
 21
45.5182
  0
LINE
  8
0
 10
48.3763
 20
45.5182
 11
48.3443
 21
45.4642
  0
LINE
  8
0
 10
48.3443
 20
45.4642
 11
48.309
 21
45.4122
  0
LINE
  8
0
 10
48.309
 20
45.4122
 11
48.2705
 21
45.3626
  0
LINE
  8
0
 10
48.2705
 20
45.3626
 11
48.229
 21
45.3154
  0
LINE
  8
0
 10
48.229
 20
45.3154
 11
48.1845
 21
45.271
  0
LINE
  8
0
 10
48.1845
 20
45.271
 11
48.1374
 21
45.2295
  0
LINE
  8
0
 10
48.1374
 20
45.2295
 11
48.0878
 21
45.191
  0
LINE
  8
0
 10
48.0878
 20
45.191
 11
48.0358
 21
45.1557
  0
LINE
  8
0
 10
48.0358
 20
45.1557
 11
47.9818
 21
45.1237
  0
LINE
  8
0
 10
47.9818
 20
45.1237
 11
47.9258
 21
45.0952
  0
LINE
  8
0
 10
47.9258
 20
45.0952
 11
47.8681
 21
45.0702
  0
LINE
  8
0
 10
47.8681
 20
45.0702
 11
47.809
 21
45.0489
  0
LINE
  8
0
 10
47.809
 20
45.0489
 11
47.7487
 21
45.0314
  0
LINE
  8
0
 10
47.7487
 20
45.0314
 11
47.6874
 21
45.0177
  0
LINE
  8
0
 10
47.6874
 20
45.0177
 11
47.6253
 21
45.0079
  0
LINE
  8
0
 10
47.6253
 20
45.0079
 11
47.5628
 21
45.002
  0
LINE
  8
0
 10
47.5628
 20
45.002
 11
47.5
 21
45
  0
LINE
  8
0
 10
47.5
 20
45
 11
47.4372
 21
45.002
  0
LINE
  8
0
 10
9.43719
 20
37.002
 11
9.37466
 21
37.0079
  0
LINE
  8
0
 10
9.37466
 20
37.0079
 11
9.31261
 21
37.0177
  0
LINE
  8
0
 10
9.31261
 20
37.0177
 11
9.2513
 21
37.0314
  0
LINE
  8
0
 10
9.2513
 20
37.0314
 11
9.19098
 21
37.0489
  0
LINE
  8
0
 10
9.19098
 20
37.0489
 11
9.13187
 21
37.0702
  0
LINE
  8
0
 10
9.13187
 20
37.0702
 11
9.07422
 21
37.0952
  0
LINE
  8
0
 10
9.07422
 20
37.0952
 11
9.01823
 21
37.1237
  0
LINE
  8
0
 10
9.01823
 20
37.1237
 11
8.96417
 21
37.1557
  0
LINE
  8
0
 10
8.96417
 20
37.1557
 11
8.9122
 21
37.191
  0
LINE
  8
0
 10
8.9122
 20
37.191
 11
8.86256
 21
37.2295
  0
LINE
  8
0
 10
8.86256
 20
37.2295
 11
8.81544
 21
37.271
  0
LINE
  8
0
 10
8.81544
 20
37.271
 11
8.77103
 21
37.3154
  0
LINE
  8
0
 10
8.77103
 20
37.3154
 11
8.72948
 21
37.3626
  0
LINE
  8
0
 10
8.72948
 20
37.3626
 11
8.69098
 21
37.4122
  0
LINE
  8
0
 10
8.69098
 20
37.4122
 11
8.65567
 21
37.4642
  0
LINE
  8
0
 10
8.65567
 20
37.4642
 11
8.62369
 21
37.5182
  0
LINE
  8
0
 10
8.62369
 20
37.5182
 11
8.59517
 21
37.5742
  0
LINE
  8
0
 10
8.59517
 20
37.5742
 11
8.57022
 21
37.6319
  0
LINE
  8
0
 10
8.57022
 20
37.6319
 11
8.54893
 21
37.691
  0
LINE
  8
0
 10
8.54893
 20
37.691
 11
8.5314
 21
37.7513
  0
LINE
  8
0
 10
8.5314
 20
37.7513
 11
8.5177
 21
37.8126
  0
LINE
  8
0
 10
8.5177
 20
37.8126
 11
8.50787
 21
37.8747
  0
LINE
  8
0
 10
8.50787
 20
37.8747
 11
8.50197
 21
37.9372
  0
LINE
  8
0
 10
8.50197
 20
37.9372
 11
8.5
 21
38
  0
LINE
  8
0
 10
8.5
 20
38
 11
8.50197
 21
38.0628
  0
LINE
  8
0
 10
8.50197
 20
38.0628
 11
8.50787
 21
38.1253
  0
LINE
  8
0
 10
8.50787
 20
38.1253
 11
8.5177
 21
38.1874
  0
LINE
  8
0
 10
8.5177
 20
38.1874
 11
8.5314
 21
38.2487
  0
LINE
  8
0
 10
8.5314
 20
38.2487
 11
8.54893
 21
38.309
  0
LINE
  8
0
 10
8.54893
 20
38.309
 11
8.57022
 21
38.3681
  0
LINE
  8
0
 10
8.57022
 20
38.3681
 11
8.59517
 21
38.4258
  0
LINE
  8
0
 10
8.59517
 20
38.4258
 11
8.62369
 21
38.4818
  0
LINE
  8
0
 10
8.62369
 20
38.4818
 11
8.65567
 21
38.5358
  0
LINE
  8
0
 10
8.65567
 20
38.5358
 11
8.69098
 21
38.5878
  0
LINE
  8
0
 10
8.69098
 20
38.5878
 11
8.72948
 21
38.6374
  0
LINE
  8
0
 10
8.72948
 20
38.6374
 11
8.77103
 21
38.6845
  0
LINE
  8
0
 10
8.77103
 20
38.6845
 11
8.81544
 21
38.729
  0
LINE
  8
0
 10
8.81544
 20
38.729
 11
8.86256
 21
38.7705
  0
LINE
  8
0
 10
8.86256
 20
38.7705
 11
8.9122
 21
38.809
  0
LINE
  8
0
 10
8.9122
 20
38.809
 11
8.96417
 21
38.8443
  0
LINE
  8
0
 10
8.96417
 20
38.8443
 11
9.01823
 21
38.8763
  0
LINE
  8
0
 10
9.01823
 20
38.8763
 11
9.07422
 21
38.9048
  0
LINE
  8
0
 10
9.07422
 20
38.9048
 11
9.13187
 21
38.9298
  0
LINE
  8
0
 10
9.13187
 20
38.9298
 11
9.19098
 21
38.951
  0
LINE
  8
0
 10
9.19098
 20
38.951
 11
9.2513
 21
38.9686
  0
LINE
  8
0
 10
9.2513
 20
38.9686
 11
9.31261
 21
38.9823
  0
LINE
  8
0
 10
9.31261
 20
38.9823
 11
9.37466
 21
38.9921
  0
LINE
  8
0
 10
9.37466
 20
38.9921
 11
9.43719
 21
38.998
  0
LINE
  8
0
 10
9.43719
 20
38.998
 11
9.5
 21
39
  0
LINE
  8
0
 10
9.5
 20
39
 11
9.56279
 21
38.998
  0
LINE
  8
0
 10
9.56279
 20
38.998
 11
9.62532
 21
38.9921
  0
LINE
  8
0
 10
9.62532
 20
38.9921
 11
9.68738
 21
38.9823
  0
LINE
  8
0
 10
9.68738
 20
38.9823
 11
9.74869
 21
38.9686
  0
LINE
  8
0
 10
9.74869
 20
38.9686
 11
9.80901
 21
38.951
  0
LINE
  8
0
 10
9.80901
 20
38.951
 11
9.86812
 21
38.9298
  0
LINE
  8
0
 10
9.86812
 20
38.9298
 11
9.92577
 21
38.9048
  0
LINE
  8
0
 10
9.92577
 20
38.9048
 11
9.98175
 21
38.8763
  0
LINE
  8
0
 10
9.98175
 20
38.8763
 11
10.0358
 21
38.8443
  0
LINE
  8
0
 10
10.0358
 20
38.8443
 11
10.0878
 21
38.809
  0
LINE
  8
0
 10
10.0878
 20
38.809
 11
10.1374
 21
38.7705
  0
LINE
  8
0
 10
10.1374
 20
38.7705
 11
10.1845
 21
38.729
  0
LINE
  8
0
 10
10.1845
 20
38.729
 11
10.229
 21
38.6845
  0
LINE
  8
0
 10
10.229
 20
38.6845
 11
10.2705
 21
38.6374
  0
LINE
  8
0
 10
10.2705
 20
38.6374
 11
10.309
 21
38.5878
  0
LINE
  8
0
 10
10.309
 20
38.5878
 11
10.3443
 21
38.5358
  0
LINE
  8
0
 10
10.3443
 20
38.5358
 11
10.3763
 21
38.4818
  0
LINE
  8
0
 10
10.3763
 20
38.4818
 11
10.4048
 21
38.4258
  0
LINE
  8
0
 10
10.4048
 20
38.4258
 11
10.4298
 21
38.3681
  0
LINE
  8
0
 10
10.4298
 20
38.3681
 11
10.451
 21
38.309
  0
LINE
  8
0
 10
10.451
 20
38.309
 11
10.4686
 21
38.2487
  0
LINE
  8
0
 10
10.4686
 20
38.2487
 11
10.4823
 21
38.1874
  0
LINE
  8
0
 10
10.4823
 20
38.1874
 11
10.4921
 21
38.1253
  0
LINE
  8
0
 10
10.4921
 20
38.1253
 11
10.498
 21
38.0628
  0
LINE
  8
0
 10
10.498
 20
38.0628
 11
10.5
 21
38
  0
LINE
  8
0
 10
10.5
 20
38
 11
10.498
 21
37.9372
  0
LINE
  8
0
 10
10.498
 20
37.9372
 11
10.4921
 21
37.8747
  0
LINE
  8
0
 10
10.4921
 20
37.8747
 11
10.4823
 21
37.8126
  0
LINE
  8
0
 10
10.4823
 20
37.8126
 11
10.4686
 21
37.7513
  0
LINE
  8
0
 10
10.4686
 20
37.7513
 11
10.451
 21
37.691
  0
LINE
  8
0
 10
10.451
 20
37.691
 11
10.4298
 21
37.6319
  0
LINE
  8
0
 10
10.4298
 20
37.6319
 11
10.4048
 21
37.5742
  0
LINE
  8
0
 10
10.4048
 20
37.5742
 11
10.3763
 21
37.5182
  0
LINE
  8
0
 10
10.3763
 20
37.5182
 11
10.3443
 21
37.4642
  0
LINE
  8
0
 10
10.3443
 20
37.4642
 11
10.309
 21
37.4122
  0
LINE
  8
0
 10
10.309
 20
37.4122
 11
10.2705
 21
37.3626
  0
LINE
  8
0
 10
10.2705
 20
37.3626
 11
10.229
 21
37.3154
  0
LINE
  8
0
 10
10.229
 20
37.3154
 11
10.1845
 21
37.271
  0
LINE
  8
0
 10
10.1845
 20
37.271
 11
10.1374
 21
37.2295
  0
LINE
  8
0
 10
10.1374
 20
37.2295
 11
10.0878
 21
37.191
  0
LINE
  8
0
 10
10.0878
 20
37.191
 11
10.0358
 21
37.1557
  0
LINE
  8
0
 10
10.0358
 20
37.1557
 11
9.98175
 21
37.1237
  0
LINE
  8
0
 10
9.98175
 20
37.1237
 11
9.92577
 21
37.0952
  0
LINE
  8
0
 10
9.92577
 20
37.0952
 11
9.86812
 21
37.0702
  0
LINE
  8
0
 10
9.86812
 20
37.0702
 11
9.80901
 21
37.0489
  0
LINE
  8
0
 10
9.80901
 20
37.0489
 11
9.74869
 21
37.0314
  0
LINE
  8
0
 10
9.74869
 20
37.0314
 11
9.68738
 21
37.0177
  0
LINE
  8
0
 10
9.68738
 20
37.0177
 11
9.62532
 21
37.0079
  0
LINE
  8
0
 10
9.62532
 20
37.0079
 11
9.56279
 21
37.002
  0
LINE
  8
0
 10
9.56279
 20
37.002
 11
9.5
 21
37
  0
LINE
  8
0
 10
9.5
 20
37
 11
9.43719
 21
37.002
  0
LINE
  8
0
 10
123.437
 20
37.002
 11
123.375
 21
37.0079
  0
LINE
  8
0
 10
123.375
 20
37.0079
 11
123.313
 21
37.0177
  0
LINE
  8
0
 10
123.313
 20
37.0177
 11
123.251
 21
37.0314
  0
LINE
  8
0
 10
123.251
 20
37.0314
 11
123.191
 21
37.0489
  0
LINE
  8
0
 10
123.191
 20
37.0489
 11
123.132
 21
37.0702
  0
LINE
  8
0
 10
123.132
 20
37.0702
 11
123.074
 21
37.0952
  0
LINE
  8
0
 10
123.074
 20
37.0952
 11
123.018
 21
37.1237
  0
LINE
  8
0
 10
123.018
 20
37.1237
 11
122.964
 21
37.1557
  0
LINE
  8
0
 10
122.964
 20
37.1557
 11
122.912
 21
37.191
  0
LINE
  8
0
 10
122.912
 20
37.191
 11
122.863
 21
37.2295
  0
LINE
  8
0
 10
122.863
 20
37.2295
 11
122.815
 21
37.271
  0
LINE
  8
0
 10
122.815
 20
37.271
 11
122.771
 21
37.3154
  0
LINE
  8
0
 10
122.771
 20
37.3154
 11
122.729
 21
37.3626
  0
LINE
  8
0
 10
122.729
 20
37.3626
 11
122.691
 21
37.4122
  0
LINE
  8
0
 10
122.691
 20
37.4122
 11
122.656
 21
37.4642
  0
LINE
  8
0
 10
122.656
 20
37.4642
 11
122.624
 21
37.5182
  0
LINE
  8
0
 10
122.624
 20
37.5182
 11
122.595
 21
37.5742
  0
LINE
  8
0
 10
122.595
 20
37.5742
 11
122.57
 21
37.6319
  0
LINE
  8
0
 10
122.57
 20
37.6319
 11
122.549
 21
37.691
  0
LINE
  8
0
 10
122.549
 20
37.691
 11
122.531
 21
37.7513
  0
LINE
  8
0
 10
122.531
 20
37.7513
 11
122.518
 21
37.8126
  0
LINE
  8
0
 10
122.518
 20
37.8126
 11
122.508
 21
37.8747
  0
LINE
  8
0
 10
122.508
 20
37.8747
 11
122.502
 21
37.9372
  0
LINE
  8
0
 10
122.502
 20
37.9372
 11
122.5
 21
38
  0
LINE
  8
0
 10
122.5
 20
38
 11
122.502
 21
38.0628
  0
LINE
  8
0
 10
122.502
 20
38.0628
 11
122.508
 21
38.1253
  0
LINE
  8
0
 10
122.508
 20
38.1253
 11
122.518
 21
38.1874
  0
LINE
  8
0
 10
122.518
 20
38.1874
 11
122.531
 21
38.2487
  0
LINE
  8
0
 10
122.531
 20
38.2487
 11
122.549
 21
38.309
  0
LINE
  8
0
 10
122.549
 20
38.309
 11
122.57
 21
38.3681
  0
LINE
  8
0
 10
122.57
 20
38.3681
 11
122.595
 21
38.4258
  0
LINE
  8
0
 10
122.595
 20
38.4258
 11
122.624
 21
38.4818
  0
LINE
  8
0
 10
122.624
 20
38.4818
 11
122.656
 21
38.5358
  0
LINE
  8
0
 10
122.656
 20
38.5358
 11
122.691
 21
38.5878
  0
LINE
  8
0
 10
122.691
 20
38.5878
 11
122.729
 21
38.6374
  0
LINE
  8
0
 10
122.729
 20
38.6374
 11
122.771
 21
38.6845
  0
LINE
  8
0
 10
122.771
 20
38.6845
 11
122.815
 21
38.729
  0
LINE
  8
0
 10
122.815
 20
38.729
 11
122.863
 21
38.7705
  0
LINE
  8
0
 10
122.863
 20
38.7705
 11
122.912
 21
38.809
  0
LINE
  8
0
 10
122.912
 20
38.809
 11
122.964
 21
38.8443
  0
LINE
  8
0
 10
122.964
 20
38.8443
 11
123.018
 21
38.8763
  0
LINE
  8
0
 10
123.018
 20
38.8763
 11
123.074
 21
38.9048
  0
LINE
  8
0
 10
123.074
 20
38.9048
 11
123.132
 21
38.9298
  0
LINE
  8
0
 10
123.132
 20
38.9298
 11
123.191
 21
38.951
  0
LINE
  8
0
 10
123.191
 20
38.951
 11
123.251
 21
38.9686
  0
LINE
  8
0
 10
123.251
 20
38.9686
 11
123.313
 21
38.9823
  0
LINE
  8
0
 10
123.313
 20
38.9823
 11
123.375
 21
38.9921
  0
LINE
  8
0
 10
123.375
 20
38.9921
 11
123.437
 21
38.998
  0
LINE
  8
0
 10
123.437
 20
38.998
 11
123.5
 21
39
  0
LINE
  8
0
 10
123.5
 20
39
 11
123.563
 21
38.998
  0
LINE
  8
0
 10
123.563
 20
38.998
 11
123.625
 21
38.9921
  0
LINE
  8
0
 10
123.625
 20
38.9921
 11
123.687
 21
38.9823
  0
LINE
  8
0
 10
123.687
 20
38.9823
 11
123.749
 21
38.9686
  0
LINE
  8
0
 10
123.749
 20
38.9686
 11
123.809
 21
38.951
  0
LINE
  8
0
 10
123.809
 20
38.951
 11
123.868
 21
38.9298
  0
LINE
  8
0
 10
123.868
 20
38.9298
 11
123.926
 21
38.9048
  0
LINE
  8
0
 10
123.926
 20
38.9048
 11
123.982
 21
38.8763
  0
LINE
  8
0
 10
123.982
 20
38.8763
 11
124.036
 21
38.8443
  0
LINE
  8
0
 10
124.036
 20
38.8443
 11
124.088
 21
38.809
  0
LINE
  8
0
 10
124.088
 20
38.809
 11
124.137
 21
38.7705
  0
LINE
  8
0
 10
124.137
 20
38.7705
 11
124.185
 21
38.729
  0
LINE
  8
0
 10
124.185
 20
38.729
 11
124.229
 21
38.6845
  0
LINE
  8
0
 10
124.229
 20
38.6845
 11
124.271
 21
38.6374
  0
LINE
  8
0
 10
124.271
 20
38.6374
 11
124.309
 21
38.5878
  0
LINE
  8
0
 10
124.309
 20
38.5878
 11
124.344
 21
38.5358
  0
LINE
  8
0
 10
124.344
 20
38.5358
 11
124.376
 21
38.4818
  0
LINE
  8
0
 10
124.376
 20
38.4818
 11
124.405
 21
38.4258
  0
LINE
  8
0
 10
124.405
 20
38.4258
 11
124.43
 21
38.3681
  0
LINE
  8
0
 10
124.43
 20
38.3681
 11
124.451
 21
38.309
  0
LINE
  8
0
 10
124.451
 20
38.309
 11
124.469
 21
38.2487
  0
LINE
  8
0
 10
124.469
 20
38.2487
 11
124.482
 21
38.1874
  0
LINE
  8
0
 10
124.482
 20
38.1874
 11
124.492
 21
38.1253
  0
LINE
  8
0
 10
124.492
 20
38.1253
 11
124.498
 21
38.0628
  0
LINE
  8
0
 10
124.498
 20
38.0628
 11
124.5
 21
38
  0
LINE
  8
0
 10
124.5
 20
38
 11
124.498
 21
37.9372
  0
LINE
  8
0
 10
124.498
 20
37.9372
 11
124.492
 21
37.8747
  0
LINE
  8
0
 10
124.492
 20
37.8747
 11
124.482
 21
37.8126
  0
LINE
  8
0
 10
124.482
 20
37.8126
 11
124.469
 21
37.7513
  0
LINE
  8
0
 10
124.469
 20
37.7513
 11
124.451
 21
37.691
  0
LINE
  8
0
 10
124.451
 20
37.691
 11
124.43
 21
37.6319
  0
LINE
  8
0
 10
124.43
 20
37.6319
 11
124.405
 21
37.5742
  0
LINE
  8
0
 10
124.405
 20
37.5742
 11
124.376
 21
37.5182
  0
LINE
  8
0
 10
124.376
 20
37.5182
 11
124.344
 21
37.4642
  0
LINE
  8
0
 10
124.344
 20
37.4642
 11
124.309
 21
37.4122
  0
LINE
  8
0
 10
124.309
 20
37.4122
 11
124.271
 21
37.3626
  0
LINE
  8
0
 10
124.271
 20
37.3626
 11
124.229
 21
37.3154
  0
LINE
  8
0
 10
124.229
 20
37.3154
 11
124.185
 21
37.271
  0
LINE
  8
0
 10
124.185
 20
37.271
 11
124.137
 21
37.2295
  0
LINE
  8
0
 10
124.137
 20
37.2295
 11
124.088
 21
37.191
  0
LINE
  8
0
 10
124.088
 20
37.191
 11
124.036
 21
37.1557
  0
LINE
  8
0
 10
124.036
 20
37.1557
 11
123.982
 21
37.1237
  0
LINE
  8
0
 10
123.982
 20
37.1237
 11
123.926
 21
37.0952
  0
LINE
  8
0
 10
123.926
 20
37.0952
 11
123.868
 21
37.0702
  0
LINE
  8
0
 10
123.868
 20
37.0702
 11
123.809
 21
37.0489
  0
LINE
  8
0
 10
123.809
 20
37.0489
 11
123.749
 21
37.0314
  0
LINE
  8
0
 10
123.749
 20
37.0314
 11
123.687
 21
37.0177
  0
LINE
  8
0
 10
123.687
 20
37.0177
 11
123.625
 21
37.0079
  0
LINE
  8
0
 10
123.625
 20
37.0079
 11
123.563
 21
37.002
  0
LINE
  8
0
 10
123.563
 20
37.002
 11
123.5
 21
37
  0
LINE
  8
0
 10
123.5
 20
37
 11
123.437
 21
37.002
  0
LINE
  8
0
 10
18.9372
 20
4.00197
 11
18.8747
 21
4.00787
  0
LINE
  8
0
 10
18.8747
 20
4.00787
 11
18.8126
 21
4.0177
  0
LINE
  8
0
 10
18.8126
 20
4.0177
 11
18.7513
 21
4.0314
  0
LINE
  8
0
 10
18.7513
 20
4.0314
 11
18.691
 21
4.04893
  0
LINE
  8
0
 10
18.691
 20
4.04893
 11
18.6319
 21
4.07022
  0
LINE
  8
0
 10
18.6319
 20
4.07022
 11
18.5742
 21
4.09517
  0
LINE
  8
0
 10
18.5742
 20
4.09517
 11
18.5182
 21
4.12369
  0
LINE
  8
0
 10
18.5182
 20
4.12369
 11
18.4642
 21
4.15567
  0
LINE
  8
0
 10
18.4642
 20
4.15567
 11
18.4122
 21
4.19098
  0
LINE
  8
0
 10
18.4122
 20
4.19098
 11
18.3626
 21
4.22948
  0
LINE
  8
0
 10
18.3626
 20
4.22948
 11
18.3154
 21
4.27103
  0
LINE
  8
0
 10
18.3154
 20
4.27103
 11
18.271
 21
4.31544
  0
LINE
  8
0
 10
18.271
 20
4.31544
 11
18.2295
 21
4.36256
  0
LINE
  8
0
 10
18.2295
 20
4.36256
 11
18.191
 21
4.4122
  0
LINE
  8
0
 10
18.191
 20
4.4122
 11
18.1557
 21
4.46417
  0
LINE
  8
0
 10
18.1557
 20
4.46417
 11
18.1237
 21
4.51823
  0
LINE
  8
0
 10
18.1237
 20
4.51823
 11
18.0952
 21
4.57422
  0
LINE
  8
0
 10
18.0952
 20
4.57422
 11
18.0702
 21
4.63187
  0
LINE
  8
0
 10
18.0702
 20
4.63187
 11
18.0489
 21
4.69098
  0
LINE
  8
0
 10
18.0489
 20
4.69098
 11
18.0314
 21
4.7513
  0
LINE
  8
0
 10
18.0314
 20
4.7513
 11
18.0177
 21
4.81261
  0
LINE
  8
0
 10
18.0177
 20
4.81261
 11
18.0079
 21
4.87466
  0
LINE
  8
0
 10
18.0079
 20
4.87466
 11
18.002
 21
4.93719
  0
LINE
  8
0
 10
18.002
 20
4.93719
 11
18
 21
5
  0
LINE
  8
0
 10
18
 20
5
 11
18.002
 21
5.06279
  0
LINE
  8
0
 10
18.002
 20
5.06279
 11
18.0079
 21
5.12532
  0
LINE
  8
0
 10
18.0079
 20
5.12532
 11
18.0177
 21
5.18738
  0
LINE
  8
0
 10
18.0177
 20
5.18738
 11
18.0314
 21
5.24869
  0
LINE
  8
0
 10
18.0314
 20
5.24869
 11
18.0489
 21
5.30901
  0
LINE
  8
0
 10
18.0489
 20
5.30901
 11
18.0702
 21
5.36812
  0
LINE
  8
0
 10
18.0702
 20
5.36812
 11
18.0952
 21
5.42577
  0
LINE
  8
0
 10
18.0952
 20
5.42577
 11
18.1237
 21
5.48175
  0
LINE
  8
0
 10
18.1237
 20
5.48175
 11
18.1557
 21
5.53581
  0
LINE
  8
0
 10
18.1557
 20
5.53581
 11
18.191
 21
5.58778
  0
LINE
  8
0
 10
18.191
 20
5.58778
 11
18.2295
 21
5.63742
  0
LINE
  8
0
 10
18.2295
 20
5.63742
 11
18.271
 21
5.68454
  0
LINE
  8
0
 10
18.271
 20
5.68454
 11
18.3154
 21
5.72896
  0
LINE
  8
0
 10
18.3154
 20
5.72896
 11
18.3626
 21
5.77051
  0
LINE
  8
0
 10
18.3626
 20
5.77051
 11
18.4122
 21
5.80901
  0
LINE
  8
0
 10
18.4122
 20
5.80901
 11
18.4642
 21
5.84431
  0
LINE
  8
0
 10
18.4642
 20
5.84431
 11
18.5182
 21
5.8763
  0
LINE
  8
0
 10
18.5182
 20
5.8763
 11
18.5742
 21
5.90482
  0
LINE
  8
0
 10
18.5742
 20
5.90482
 11
18.6319
 21
5.92976
  0
LINE
  8
0
 10
18.6319
 20
5.92976
 11
18.691
 21
5.95105
  0
LINE
  8
0
 10
18.691
 20
5.95105
 11
18.7513
 21
5.96858
  0
LINE
  8
0
 10
18.7513
 20
5.96858
 11
18.8126
 21
5.98228
  0
LINE
  8
0
 10
18.8126
 20
5.98228
 11
18.8747
 21
5.99211
  0
LINE
  8
0
 10
18.8747
 20
5.99211
 11
18.9372
 21
5.99802
  0
LINE
  8
0
 10
18.9372
 20
5.99802
 11
19
 21
6
  0
LINE
  8
0
 10
19
 20
6
 11
19.0628
 21
5.99802
  0
LINE
  8
0
 10
19.0628
 20
5.99802
 11
19.1253
 21
5.99211
  0
LINE
  8
0
 10
19.1253
 20
5.99211
 11
19.1874
 21
5.98228
  0
LINE
  8
0
 10
19.1874
 20
5.98228
 11
19.2487
 21
5.96858
  0
LINE
  8
0
 10
19.2487
 20
5.96858
 11
19.309
 21
5.95105
  0
LINE
  8
0
 10
19.309
 20
5.95105
 11
19.3681
 21
5.92976
  0
LINE
  8
0
 10
19.3681
 20
5.92976
 11
19.4258
 21
5.90482
  0
LINE
  8
0
 10
19.4258
 20
5.90482
 11
19.4818
 21
5.8763
  0
LINE
  8
0
 10
19.4818
 20
5.8763
 11
19.5358
 21
5.84431
  0
LINE
  8
0
 10
19.5358
 20
5.84431
 11
19.5878
 21
5.80901
  0
LINE
  8
0
 10
19.5878
 20
5.80901
 11
19.6374
 21
5.77051
  0
LINE
  8
0
 10
19.6374
 20
5.77051
 11
19.6845
 21
5.72896
  0
LINE
  8
0
 10
19.6845
 20
5.72896
 11
19.729
 21
5.68454
  0
LINE
  8
0
 10
19.729
 20
5.68454
 11
19.7705
 21
5.63742
  0
LINE
  8
0
 10
19.7705
 20
5.63742
 11
19.809
 21
5.58778
  0
LINE
  8
0
 10
19.809
 20
5.58778
 11
19.8443
 21
5.53581
  0
LINE
  8
0
 10
19.8443
 20
5.53581
 11
19.8763
 21
5.48175
  0
LINE
  8
0
 10
19.8763
 20
5.48175
 11
19.9048
 21
5.42577
  0
LINE
  8
0
 10
19.9048
 20
5.42577
 11
19.9298
 21
5.36812
  0
LINE
  8
0
 10
19.9298
 20
5.36812
 11
19.951
 21
5.30901
  0
LINE
  8
0
 10
19.951
 20
5.30901
 11
19.9686
 21
5.24869
  0
LINE
  8
0
 10
19.9686
 20
5.24869
 11
19.9823
 21
5.18738
  0
LINE
  8
0
 10
19.9823
 20
5.18738
 11
19.9921
 21
5.12532
  0
LINE
  8
0
 10
19.9921
 20
5.12532
 11
19.998
 21
5.06279
  0
LINE
  8
0
 10
19.998
 20
5.06279
 11
20
 21
5
  0
LINE
  8
0
 10
20
 20
5
 11
19.998
 21
4.93719
  0
LINE
  8
0
 10
19.998
 20
4.93719
 11
19.9921
 21
4.87466
  0
LINE
  8
0
 10
19.9921
 20
4.87466
 11
19.9823
 21
4.81261
  0
LINE
  8
0
 10
19.9823
 20
4.81261
 11
19.9686
 21
4.7513
  0
LINE
  8
0
 10
19.9686
 20
4.7513
 11
19.951
 21
4.69098
  0
LINE
  8
0
 10
19.951
 20
4.69098
 11
19.9298
 21
4.63187
  0
LINE
  8
0
 10
19.9298
 20
4.63187
 11
19.9048
 21
4.57422
  0
LINE
  8
0
 10
19.9048
 20
4.57422
 11
19.8763
 21
4.51823
  0
LINE
  8
0
 10
19.8763
 20
4.51823
 11
19.8443
 21
4.46417
  0
LINE
  8
0
 10
19.8443
 20
4.46417
 11
19.809
 21
4.4122
  0
LINE
  8
0
 10
19.809
 20
4.4122
 11
19.7705
 21
4.36256
  0
LINE
  8
0
 10
19.7705
 20
4.36256
 11
19.729
 21
4.31544
  0
LINE
  8
0
 10
19.729
 20
4.31544
 11
19.6845
 21
4.27103
  0
LINE
  8
0
 10
19.6845
 20
4.27103
 11
19.6374
 21
4.22948
  0
LINE
  8
0
 10
19.6374
 20
4.22948
 11
19.5878
 21
4.19098
  0
LINE
  8
0
 10
19.5878
 20
4.19098
 11
19.5358
 21
4.15567
  0
LINE
  8
0
 10
19.5358
 20
4.15567
 11
19.4818
 21
4.12369
  0
LINE
  8
0
 10
19.4818
 20
4.12369
 11
19.4258
 21
4.09517
  0
LINE
  8
0
 10
19.4258
 20
4.09517
 11
19.3681
 21
4.07022
  0
LINE
  8
0
 10
19.3681
 20
4.07022
 11
19.309
 21
4.04893
  0
LINE
  8
0
 10
19.309
 20
4.04893
 11
19.2487
 21
4.0314
  0
LINE
  8
0
 10
19.2487
 20
4.0314
 11
19.1874
 21
4.0177
  0
LINE
  8
0
 10
19.1874
 20
4.0177
 11
19.1253
 21
4.00787
  0
LINE
  8
0
 10
19.1253
 20
4.00787
 11
19.0628
 21
4.00197
  0
LINE
  8
0
 10
19.0628
 20
4.00197
 11
19
 21
4
  0
LINE
  8
0
 10
19
 20
4
 11
18.9372
 21
4.00197
  0
LINE
  8
0
 10
113.937
 20
4.00197
 11
113.875
 21
4.00787
  0
LINE
  8
0
 10
113.875
 20
4.00787
 11
113.813
 21
4.0177
  0
LINE
  8
0
 10
113.813
 20
4.0177
 11
113.751
 21
4.0314
  0
LINE
  8
0
 10
113.751
 20
4.0314
 11
113.691
 21
4.04893
  0
LINE
  8
0
 10
113.691
 20
4.04893
 11
113.632
 21
4.07022
  0
LINE
  8
0
 10
113.632
 20
4.07022
 11
113.574
 21
4.09517
  0
LINE
  8
0
 10
113.574
 20
4.09517
 11
113.518
 21
4.12369
  0
LINE
  8
0
 10
113.518
 20
4.12369
 11
113.464
 21
4.15567
  0
LINE
  8
0
 10
113.464
 20
4.15567
 11
113.412
 21
4.19098
  0
LINE
  8
0
 10
113.412
 20
4.19098
 11
113.363
 21
4.22948
  0
LINE
  8
0
 10
113.363
 20
4.22948
 11
113.315
 21
4.27103
  0
LINE
  8
0
 10
113.315
 20
4.27103
 11
113.271
 21
4.31544
  0
LINE
  8
0
 10
113.271
 20
4.31544
 11
113.229
 21
4.36256
  0
LINE
  8
0
 10
113.229
 20
4.36256
 11
113.191
 21
4.4122
  0
LINE
  8
0
 10
113.191
 20
4.4122
 11
113.156
 21
4.46417
  0
LINE
  8
0
 10
113.156
 20
4.46417
 11
113.124
 21
4.51823
  0
LINE
  8
0
 10
113.124
 20
4.51823
 11
113.095
 21
4.57422
  0
LINE
  8
0
 10
113.095
 20
4.57422
 11
113.07
 21
4.63187
  0
LINE
  8
0
 10
113.07
 20
4.63187
 11
113.049
 21
4.69098
  0
LINE
  8
0
 10
113.049
 20
4.69098
 11
113.031
 21
4.7513
  0
LINE
  8
0
 10
113.031
 20
4.7513
 11
113.018
 21
4.81261
  0
LINE
  8
0
 10
113.018
 20
4.81261
 11
113.008
 21
4.87466
  0
LINE
  8
0
 10
113.008
 20
4.87466
 11
113.002
 21
4.93719
  0
LINE
  8
0
 10
113.002
 20
4.93719
 11
113
 21
5
  0
LINE
  8
0
 10
113
 20
5
 11
113.002
 21
5.06279
  0
LINE
  8
0
 10
113.002
 20
5.06279
 11
113.008
 21
5.12532
  0
LINE
  8
0
 10
113.008
 20
5.12532
 11
113.018
 21
5.18738
  0
LINE
  8
0
 10
113.018
 20
5.18738
 11
113.031
 21
5.24869
  0
LINE
  8
0
 10
113.031
 20
5.24869
 11
113.049
 21
5.30901
  0
LINE
  8
0
 10
113.049
 20
5.30901
 11
113.07
 21
5.36812
  0
LINE
  8
0
 10
113.07
 20
5.36812
 11
113.095
 21
5.42577
  0
LINE
  8
0
 10
113.095
 20
5.42577
 11
113.124
 21
5.48175
  0
LINE
  8
0
 10
113.124
 20
5.48175
 11
113.156
 21
5.53581
  0
LINE
  8
0
 10
113.156
 20
5.53581
 11
113.191
 21
5.58778
  0
LINE
  8
0
 10
113.191
 20
5.58778
 11
113.229
 21
5.63742
  0
LINE
  8
0
 10
113.229
 20
5.63742
 11
113.271
 21
5.68454
  0
LINE
  8
0
 10
113.271
 20
5.68454
 11
113.315
 21
5.72896
  0
LINE
  8
0
 10
113.315
 20
5.72896
 11
113.363
 21
5.77051
  0
LINE
  8
0
 10
113.363
 20
5.77051
 11
113.412
 21
5.80901
  0
LINE
  8
0
 10
113.412
 20
5.80901
 11
113.464
 21
5.84431
  0
LINE
  8
0
 10
113.464
 20
5.84431
 11
113.518
 21
5.8763
  0
LINE
  8
0
 10
113.518
 20
5.8763
 11
113.574
 21
5.90482
  0
LINE
  8
0
 10
113.574
 20
5.90482
 11
113.632
 21
5.92976
  0
LINE
  8
0
 10
113.632
 20
5.92976
 11
113.691
 21
5.95105
  0
LINE
  8
0
 10
113.691
 20
5.95105
 11
113.751
 21
5.96858
  0
LINE
  8
0
 10
113.751
 20
5.96858
 11
113.813
 21
5.98228
  0
LINE
  8
0
 10
113.813
 20
5.98228
 11
113.875
 21
5.99211
  0
LINE
  8
0
 10
113.875
 20
5.99211
 11
113.937
 21
5.99802
  0
LINE
  8
0
 10
113.937
 20
5.99802
 11
114
 21
6
  0
LINE
  8
0
 10
114
 20
6
 11
114.063
 21
5.99802
  0
LINE
  8
0
 10
114.063
 20
5.99802
 11
114.125
 21
5.99211
  0
LINE
  8
0
 10
114.125
 20
5.99211
 11
114.187
 21
5.98228
  0
LINE
  8
0
 10
114.187
 20
5.98228
 11
114.249
 21
5.96858
  0
LINE
  8
0
 10
114.249
 20
5.96858
 11
114.309
 21
5.95105
  0
LINE
  8
0
 10
114.309
 20
5.95105
 11
114.368
 21
5.92976
  0
LINE
  8
0
 10
114.368
 20
5.92976
 11
114.426
 21
5.90482
  0
LINE
  8
0
 10
114.426
 20
5.90482
 11
114.482
 21
5.8763
  0
LINE
  8
0
 10
114.482
 20
5.8763
 11
114.536
 21
5.84431
  0
LINE
  8
0
 10
114.536
 20
5.84431
 11
114.588
 21
5.80901
  0
LINE
  8
0
 10
114.588
 20
5.80901
 11
114.637
 21
5.77051
  0
LINE
  8
0
 10
114.637
 20
5.77051
 11
114.685
 21
5.72896
  0
LINE
  8
0
 10
114.685
 20
5.72896
 11
114.729
 21
5.68454
  0
LINE
  8
0
 10
114.729
 20
5.68454
 11
114.771
 21
5.63742
  0
LINE
  8
0
 10
114.771
 20
5.63742
 11
114.809
 21
5.58778
  0
LINE
  8
0
 10
114.809
 20
5.58778
 11
114.844
 21
5.53581
  0
LINE
  8
0
 10
114.844
 20
5.53581
 11
114.876
 21
5.48175
  0
LINE
  8
0
 10
114.876
 20
5.48175
 11
114.905
 21
5.42577
  0
LINE
  8
0
 10
114.905
 20
5.42577
 11
114.93
 21
5.36812
  0
LINE
  8
0
 10
114.93
 20
5.36812
 11
114.951
 21
5.30901
  0
LINE
  8
0
 10
114.951
 20
5.30901
 11
114.969
 21
5.24869
  0
LINE
  8
0
 10
114.969
 20
5.24869
 11
114.982
 21
5.18738
  0
LINE
  8
0
 10
114.982
 20
5.18738
 11
114.992
 21
5.12532
  0
LINE
  8
0
 10
114.992
 20
5.12532
 11
114.998
 21
5.06279
  0
LINE
  8
0
 10
114.998
 20
5.06279
 11
115
 21
5
  0
LINE
  8
0
 10
115
 20
5
 11
114.998
 21
4.93719
  0
LINE
  8
0
 10
114.998
 20
4.93719
 11
114.992
 21
4.87466
  0
LINE
  8
0
 10
114.992
 20
4.87466
 11
114.982
 21
4.81261
  0
LINE
  8
0
 10
114.982
 20
4.81261
 11
114.969
 21
4.7513
  0
LINE
  8
0
 10
114.969
 20
4.7513
 11
114.951
 21
4.69098
  0
LINE
  8
0
 10
114.951
 20
4.69098
 11
114.93
 21
4.63187
  0
LINE
  8
0
 10
114.93
 20
4.63187
 11
114.905
 21
4.57422
  0
LINE
  8
0
 10
114.905
 20
4.57422
 11
114.876
 21
4.51823
  0
LINE
  8
0
 10
114.876
 20
4.51823
 11
114.844
 21
4.46417
  0
LINE
  8
0
 10
114.844
 20
4.46417
 11
114.809
 21
4.4122
  0
LINE
  8
0
 10
114.809
 20
4.4122
 11
114.771
 21
4.36256
  0
LINE
  8
0
 10
114.771
 20
4.36256
 11
114.729
 21
4.31544
  0
LINE
  8
0
 10
114.729
 20
4.31544
 11
114.685
 21
4.27103
  0
LINE
  8
0
 10
114.685
 20
4.27103
 11
114.637
 21
4.22948
  0
LINE
  8
0
 10
114.637
 20
4.22948
 11
114.588
 21
4.19098
  0
LINE
  8
0
 10
114.588
 20
4.19098
 11
114.536
 21
4.15567
  0
LINE
  8
0
 10
114.536
 20
4.15567
 11
114.482
 21
4.12369
  0
LINE
  8
0
 10
114.482
 20
4.12369
 11
114.426
 21
4.09517
  0
LINE
  8
0
 10
114.426
 20
4.09517
 11
114.368
 21
4.07022
  0
LINE
  8
0
 10
114.368
 20
4.07022
 11
114.309
 21
4.04893
  0
LINE
  8
0
 10
114.309
 20
4.04893
 11
114.249
 21
4.0314
  0
LINE
  8
0
 10
114.249
 20
4.0314
 11
114.187
 21
4.0177
  0
LINE
  8
0
 10
114.187
 20
4.0177
 11
114.125
 21
4.00787
  0
LINE
  8
0
 10
114.125
 20
4.00787
 11
114.063
 21
4.00197
  0
LINE
  8
0
 10
114.063
 20
4.00197
 11
114
 21
4
  0
LINE
  8
0
 10
114
 20
4
 11
113.937
 21
4.00197
  0
LINE
  8
0
 10
48.1374
 20
83.2295
 11
48.0878
 21
83.191
  0
LINE
  8
0
 10
48.0878
 20
83.191
 11
48.0358
 21
83.1557
  0
LINE
  8
0
 10
48.0358
 20
83.1557
 11
47.9818
 21
83.1237
  0
LINE
  8
0
 10
47.9818
 20
83.1237
 11
47.9258
 21
83.0952
  0
LINE
  8
0
 10
47.9258
 20
83.0952
 11
47.8681
 21
83.0702
  0
LINE
  8
0
 10
47.8681
 20
83.0702
 11
47.809
 21
83.0489
  0
LINE
  8
0
 10
47.809
 20
83.0489
 11
47.7487
 21
83.0314
  0
LINE
  8
0
 10
47.7487
 20
83.0314
 11
47.6874
 21
83.0177
  0
LINE
  8
0
 10
47.6874
 20
83.0177
 11
47.6253
 21
83.0079
  0
LINE
  8
0
 10
47.6253
 20
83.0079
 11
47.5628
 21
83.002
  0
LINE
  8
0
 10
47.5628
 20
83.002
 11
47.5
 21
83
  0
LINE
  8
0
 10
47.5
 20
83
 11
47.4372
 21
83.002
  0
LINE
  8
0
 10
47.4372
 20
83.002
 11
47.3747
 21
83.0079
  0
LINE
  8
0
 10
47.3747
 20
83.0079
 11
47.3126
 21
83.0177
  0
LINE
  8
0
 10
47.3126
 20
83.0177
 11
47.2513
 21
83.0314
  0
LINE
  8
0
 10
47.2513
 20
83.0314
 11
47.191
 21
83.0489
  0
LINE
  8
0
 10
47.191
 20
83.0489
 11
47.1319
 21
83.0702
  0
LINE
  8
0
 10
47.1319
 20
83.0702
 11
47.0742
 21
83.0952
  0
LINE
  8
0
 10
47.0742
 20
83.0952
 11
47.0182
 21
83.1237
  0
LINE
  8
0
 10
47.0182
 20
83.1237
 11
46.9642
 21
83.1557
  0
LINE
  8
0
 10
46.9642
 20
83.1557
 11
46.9122
 21
83.191
  0
LINE
  8
0
 10
46.9122
 20
83.191
 11
46.8626
 21
83.2295
  0
LINE
  8
0
 10
46.8626
 20
83.2295
 11
46.8154
 21
83.271
  0
LINE
  8
0
 10
46.8154
 20
83.271
 11
46.771
 21
83.3154
  0
LINE
  8
0
 10
46.771
 20
83.3154
 11
46.7295
 21
83.3626
  0
LINE
  8
0
 10
46.7295
 20
83.3626
 11
46.691
 21
83.4122
  0
LINE
  8
0
 10
46.691
 20
83.4122
 11
46.6557
 21
83.4642
  0
LINE
  8
0
 10
46.6557
 20
83.4642
 11
46.6237
 21
83.5182
  0
LINE
  8
0
 10
46.6237
 20
83.5182
 11
46.5952
 21
83.5742
  0
LINE
  8
0
 10
46.5952
 20
83.5742
 11
46.5702
 21
83.6319
  0
LINE
  8
0
 10
46.5702
 20
83.6319
 11
46.5489
 21
83.691
  0
LINE
  8
0
 10
46.5489
 20
83.691
 11
46.5314
 21
83.7513
  0
LINE
  8
0
 10
46.5314
 20
83.7513
 11
46.5177
 21
83.8126
  0
LINE
  8
0
 10
46.5177
 20
83.8126
 11
46.5079
 21
83.8747
  0
LINE
  8
0
 10
46.5079
 20
83.8747
 11
46.502
 21
83.9372
  0
LINE
  8
0
 10
46.502
 20
83.9372
 11
46.5
 21
84
  0
LINE
  8
0
 10
46.5
 20
84
 11
46.502
 21
84.0628
  0
LINE
  8
0
 10
46.502
 20
84.0628
 11
46.5079
 21
84.1253
  0
LINE
  8
0
 10
46.5079
 20
84.1253
 11
46.5177
 21
84.1874
  0
LINE
  8
0
 10
46.5177
 20
84.1874
 11
46.5314
 21
84.2487
  0
LINE
  8
0
 10
46.5314
 20
84.2487
 11
46.5489
 21
84.309
  0
LINE
  8
0
 10
46.5489
 20
84.309
 11
46.5702
 21
84.3681
  0
LINE
  8
0
 10
46.5702
 20
84.3681
 11
46.5952
 21
84.4258
  0
LINE
  8
0
 10
46.5952
 20
84.4258
 11
46.6237
 21
84.4818
  0
LINE
  8
0
 10
46.6237
 20
84.4818
 11
46.6557
 21
84.5358
  0
LINE
  8
0
 10
46.6557
 20
84.5358
 11
46.691
 21
84.5878
  0
LINE
  8
0
 10
46.691
 20
84.5878
 11
46.7295
 21
84.6374
  0
LINE
  8
0
 10
46.7295
 20
84.6374
 11
46.771
 21
84.6845
  0
LINE
  8
0
 10
46.771
 20
84.6845
 11
46.8154
 21
84.729
  0
LINE
  8
0
 10
46.8154
 20
84.729
 11
46.8626
 21
84.7705
  0
LINE
  8
0
 10
46.8626
 20
84.7705
 11
46.9122
 21
84.809
  0
LINE
  8
0
 10
46.9122
 20
84.809
 11
46.9642
 21
84.8443
  0
LINE
  8
0
 10
46.9642
 20
84.8443
 11
47.0182
 21
84.8763
  0
LINE
  8
0
 10
47.0182
 20
84.8763
 11
47.0742
 21
84.9048
  0
LINE
  8
0
 10
47.0742
 20
84.9048
 11
47.1319
 21
84.9298
  0
LINE
  8
0
 10
47.1319
 20
84.9298
 11
47.191
 21
84.951
  0
LINE
  8
0
 10
47.191
 20
84.951
 11
47.2513
 21
84.9686
  0
LINE
  8
0
 10
47.2513
 20
84.9686
 11
47.3126
 21
84.9823
  0
LINE
  8
0
 10
47.3126
 20
84.9823
 11
47.3747
 21
84.9921
  0
LINE
  8
0
 10
47.3747
 20
84.9921
 11
47.4372
 21
84.998
  0
LINE
  8
0
 10
47.4372
 20
84.998
 11
47.5
 21
85
  0
LINE
  8
0
 10
47.5
 20
85
 11
47.5628
 21
84.998
  0
LINE
  8
0
 10
47.5628
 20
84.998
 11
47.6253
 21
84.9921
  0
LINE
  8
0
 10
47.6253
 20
84.9921
 11
47.6874
 21
84.9823
  0
LINE
  8
0
 10
47.6874
 20
84.9823
 11
47.7487
 21
84.9686
  0
LINE
  8
0
 10
47.7487
 20
84.9686
 11
47.809
 21
84.951
  0
LINE
  8
0
 10
47.809
 20
84.951
 11
47.8681
 21
84.9298
  0
LINE
  8
0
 10
47.8681
 20
84.9298
 11
47.9258
 21
84.9048
  0
LINE
  8
0
 10
47.9258
 20
84.9048
 11
47.9818
 21
84.8763
  0
LINE
  8
0
 10
47.9818
 20
84.8763
 11
48.0358
 21
84.8443
  0
LINE
  8
0
 10
48.0358
 20
84.8443
 11
48.0878
 21
84.809
  0
LINE
  8
0
 10
48.0878
 20
84.809
 11
48.1374
 21
84.7705
  0
LINE
  8
0
 10
48.1374
 20
84.7705
 11
48.1845
 21
84.729
  0
LINE
  8
0
 10
48.1845
 20
84.729
 11
48.229
 21
84.6845
  0
LINE
  8
0
 10
48.229
 20
84.6845
 11
48.2705
 21
84.6374
  0
LINE
  8
0
 10
48.2705
 20
84.6374
 11
48.309
 21
84.5878
  0
LINE
  8
0
 10
48.309
 20
84.5878
 11
48.3443
 21
84.5358
  0
LINE
  8
0
 10
48.3443
 20
84.5358
 11
48.3763
 21
84.4818
  0
LINE
  8
0
 10
48.3763
 20
84.4818
 11
48.4048
 21
84.4258
  0
LINE
  8
0
 10
48.4048
 20
84.4258
 11
48.4298
 21
84.3681
  0
LINE
  8
0
 10
48.4298
 20
84.3681
 11
48.451
 21
84.309
  0
LINE
  8
0
 10
48.451
 20
84.309
 11
48.4686
 21
84.2487
  0
LINE
  8
0
 10
48.4686
 20
84.2487
 11
48.4823
 21
84.1874
  0
LINE
  8
0
 10
48.4823
 20
84.1874
 11
48.4921
 21
84.1253
  0
LINE
  8
0
 10
48.4921
 20
84.1253
 11
48.498
 21
84.0628
  0
LINE
  8
0
 10
48.498
 20
84.0628
 11
48.5
 21
84
  0
LINE
  8
0
 10
48.5
 20
84
 11
48.498
 21
83.9372
  0
LINE
  8
0
 10
48.498
 20
83.9372
 11
48.4921
 21
83.8747
  0
LINE
  8
0
 10
48.4921
 20
83.8747
 11
48.4823
 21
83.8126
  0
LINE
  8
0
 10
48.4823
 20
83.8126
 11
48.4686
 21
83.7513
  0
LINE
  8
0
 10
48.4686
 20
83.7513
 11
48.451
 21
83.691
  0
LINE
  8
0
 10
48.451
 20
83.691
 11
48.4298
 21
83.6319
  0
LINE
  8
0
 10
48.4298
 20
83.6319
 11
48.4048
 21
83.5742
  0
LINE
  8
0
 10
48.4048
 20
83.5742
 11
48.3763
 21
83.5182
  0
LINE
  8
0
 10
48.3763
 20
83.5182
 11
48.3443
 21
83.4642
  0
LINE
  8
0
 10
48.3443
 20
83.4642
 11
48.309
 21
83.4122
  0
LINE
  8
0
 10
48.309
 20
83.4122
 11
48.2705
 21
83.3626
  0
LINE
  8
0
 10
48.2705
 20
83.3626
 11
48.229
 21
83.3154
  0
LINE
  8
0
 10
48.229
 20
83.3154
 11
48.1845
 21
83.271
  0
LINE
  8
0
 10
48.1845
 20
83.271
 11
48.1374
 21
83.2295
  0
ENDSEC
  0
SECTION
  2
OBJECTS
  0
DICTIONARY
  0
ENDSEC
  0
EOF
